<svg width="75" height="66" viewBox="0 0 75 66" fill="none" xmlns="http://www.w3.org/2000/svg">
<g clip-path="url(#clip0_313_1291)">
<path d="M34.5749 0.0683594C43.2583 0.0683594 51.9446 0.0683594 60.6279 0.0683594C62.0401 0.0683594 63.4345 0.163957 64.6987 0.883923C67.0494 2.22228 68.0797 4.32244 68.0974 6.9902C68.1034 7.96111 68.1626 8.935 68.0974 9.90293C67.8695 13.2488 68.7991 16.4454 69.3409 19.6867C70.3504 25.7243 71.4577 31.7439 72.5176 37.7725C73.1156 41.1722 73.6781 44.5808 74.3028 47.9745C75.0311 51.9239 72.7248 55.2578 68.808 55.9479C62.1704 57.119 55.5387 58.3409 48.9041 59.5298C40.5819 61.0236 32.2598 62.5053 23.9376 63.993C21.282 64.468 18.6323 64.9669 15.9737 65.4151C12.0865 66.0723 8.93938 63.8198 8.26141 59.9272C7.62489 56.2676 7.00317 52.608 6.34 48.9544C6.28967 48.6706 6.00249 48.2942 5.74493 48.2076C2.64521 47.147 0.993215 44.9572 0.981373 41.6233C0.954728 34.5401 0.975452 27.457 0.975452 20.3738C0.975452 15.9405 0.990255 11.5072 0.978412 7.07385C0.975452 4.82432 1.68895 2.92433 3.46233 1.48439C4.74129 0.444773 6.23046 0.0832964 7.82028 0.080309C16.7375 0.0683594 25.6577 0.0743342 34.5749 0.0743342V0.0683594ZM4.19063 19.4537C4.19063 19.7315 4.19063 20.0034 4.19063 20.2752C4.19063 27.4361 4.18471 34.5999 4.19063 41.7607C4.19063 43.9027 5.51992 45.2381 7.65745 45.2381C25.5955 45.241 43.5366 45.241 61.4746 45.2381C63.5559 45.2381 64.8823 43.8907 64.8852 41.7906C64.8911 34.6029 64.8852 27.4151 64.8852 20.2244C64.8852 19.9735 64.8586 19.7226 64.8467 19.4507H4.19063V19.4537ZM9.48412 48.4406C9.65287 49.3965 9.80682 50.2629 9.96077 51.1322C10.4818 54.042 10.9644 56.9577 11.5417 59.8555C11.8851 61.5762 13.3802 62.589 15.0826 62.2902C21.4685 61.1789 27.8485 60.0377 34.2285 58.8905C41.399 57.603 48.5666 56.3034 55.7371 55.0039C60.0476 54.2242 64.3642 53.4654 68.6688 52.6439C70.5547 52.2824 71.5347 50.6991 71.2001 48.7871C70.4896 44.7183 69.785 40.6464 69.0715 36.5746C68.8109 35.0808 68.5267 33.5931 68.2514 32.1024C68.1004 32.3474 68.1004 32.5804 68.1004 32.8104C68.1034 35.6694 68.1211 38.5283 68.1004 41.3873C68.0945 42.0893 68.0501 42.8123 67.8724 43.4844C67.0139 46.7019 64.5951 48.4495 61.1845 48.4465C45.6652 48.4376 30.143 48.4406 14.6237 48.4376C12.9391 48.4376 11.2545 48.4376 9.48708 48.4376L9.48412 48.4406ZM4.20247 11.3369H64.8645C64.8645 9.58327 64.9237 7.88045 64.8467 6.1836C64.7846 4.78847 63.6329 3.58156 62.2977 3.39036C61.7115 3.30672 61.1046 3.33958 60.5065 3.33958C50.189 3.33958 39.8714 3.33958 29.5568 3.33958C22.2294 3.33958 14.899 3.33958 7.5716 3.35153C5.67387 3.35451 4.30609 4.50168 4.22023 6.24932C4.13734 7.91928 4.20247 9.59821 4.20247 11.3399V11.3369Z" fill="#106E39"/>
<path d="M12.1899 27.421V24.335H37.6745V27.421H12.1899Z" fill="#106E39"/>
</g>
<defs>
<clipPath id="clip0_313_1291">
<rect width="73.4724" height="65.4572" fill="white" transform="translate(0.966553 0.0683594)"/>
</clipPath>
</defs>
</svg>
