<svg width="74" height="56" viewBox="0 0 74 56" fill="none" xmlns="http://www.w3.org/2000/svg">
<g clip-path="url(#clip0_313_1281)">
<path d="M21.3171 31.9034C21.6301 31.9034 21.8396 31.9034 22.0491 31.9034C23.9049 31.9034 25.7631 31.9107 27.6189 31.9009C28.2252 31.8985 28.7649 32.0226 29.0853 32.5799C29.4156 33.1517 29.2628 33.6847 28.9227 34.2152C24.664 40.8707 20.4127 47.5312 16.1589 54.1892C15.4738 55.2623 14.3006 55.2331 13.5884 54.1186C10 48.5046 6.41416 42.8881 2.82582 37.2716C2.16039 36.2276 1.50237 35.1813 0.827087 34.1422C0.50177 33.6409 0.410582 33.1298 0.698931 32.5969C0.994674 32.0518 1.5073 31.9009 2.09878 31.9009C3.65143 31.9058 5.20408 31.9009 6.75673 31.9009C6.95143 31.9009 7.14613 31.9009 7.38519 31.9009C7.46405 31.0808 7.5232 30.2973 7.61932 29.5185C8.753 20.4392 12.9599 13.0439 20.2007 7.35684C24.6837 3.84046 29.7828 1.61383 35.4339 0.808347C46.1078 -0.715012 55.5223 2.07132 63.4704 9.30849C68.848 14.2071 72.143 20.303 73.4418 27.4063C73.7918 29.319 73.8312 31.2901 73.9668 33.2393C74.0136 33.9085 73.5601 34.4196 72.9637 34.5729C72.4067 34.7165 71.7561 34.495 71.4801 33.984C71.3297 33.7041 71.2657 33.3513 71.2607 33.0276C71.1695 27.5353 69.7869 22.386 66.8492 17.7186C61.76 9.63701 54.4428 4.74328 44.8755 3.4073C36.1807 2.193 28.3263 4.39773 21.4995 9.83899C15.2791 14.796 11.6168 21.2666 10.4437 29.083C10.2514 30.3678 10.2169 31.6795 10.1578 32.979C10.1036 34.1373 9.65501 34.5996 8.47204 34.6021C7.15106 34.6021 5.83254 34.6021 4.37354 34.6021C7.89534 40.1188 11.3679 45.5552 14.8921 51.0743C18.4016 45.5795 21.8766 40.1407 25.4132 34.6045C25.11 34.6045 24.9227 34.6045 24.7354 34.6045C21.5044 34.6045 18.2735 34.6045 15.0425 34.5997C14.1183 34.5997 13.5268 34.0691 13.5292 33.2564C13.5292 32.4533 14.1306 31.9107 15.0474 31.9034C16.0652 31.8936 17.0831 31.8839 18.0985 31.9107C18.4879 31.9204 18.621 31.8011 18.6555 31.4142C19.0646 26.6446 20.8637 22.4468 24.0651 18.855C27.4193 15.088 31.6016 12.6643 36.6071 11.8052C44.1288 10.5155 50.7731 12.4379 56.2173 17.7332C61.4297 22.8021 63.6626 29.0903 62.5585 36.2325C61.097 45.672 55.5001 51.8628 46.1965 54.3717C38.9311 56.3331 32.2473 54.6564 26.3941 49.9257C25.9677 49.5802 25.5635 49.203 25.1667 48.8233C24.5284 48.2125 24.4791 47.3584 25.0312 46.8036C25.5832 46.2487 26.4458 46.2804 27.0817 46.8887C29.7729 49.4633 32.9152 51.2593 36.6046 51.9504C44.3703 53.408 50.9013 51.1546 55.8796 45.0977C62.3958 37.1718 61.2252 25.5301 53.4053 18.821C42.2114 9.21602 24.7009 15.0783 21.6918 29.4455C21.5291 30.2194 21.4478 31.0078 21.3097 31.9009L21.3171 31.9034Z" fill="#106E39"/>
<path d="M39.0099 41.5766C39.0099 40.0775 39.0099 38.615 39.0099 37.1549C39.0099 36.1669 38.9926 35.1814 39.0173 34.1934C39.0271 33.8138 38.9015 33.6921 38.5219 33.6239C36.0845 33.1859 34.3766 31.8572 33.6767 29.4724C32.8658 26.7056 34.384 23.8097 37.233 22.5735C37.785 22.3326 38.3691 22.1647 38.9803 21.9457C38.9803 21.5271 38.9828 21.0721 38.9803 20.6194C38.9729 19.6582 39.5151 19.0547 40.39 19.0498C41.2329 19.045 41.7825 19.6363 41.8071 20.5635C41.817 21.0015 41.6938 21.5417 41.9057 21.8483C42.093 22.1185 42.6697 22.116 43.0665 22.2596C45.467 23.1235 47.1059 24.6639 47.5322 27.2482C47.5864 27.5719 47.5938 27.9247 47.5224 28.2411C47.3794 28.886 46.7288 29.3264 46.0905 29.2802C45.3708 29.2291 44.873 28.7521 44.7547 27.9953C44.4811 26.2578 43.5471 25.2455 41.7899 24.8269C41.7726 24.9827 41.7431 25.1311 41.7431 25.2795C41.7406 27.112 41.7504 28.9468 41.7332 30.7792C41.7307 31.1418 41.8293 31.2878 42.2113 31.373C43.9094 31.7477 45.4596 32.4194 46.6869 33.6994C49.3634 36.4955 48.9074 40.7662 45.6814 43.0756C44.6216 43.8348 43.4436 44.3142 42.1596 44.5235C41.8367 44.577 41.7357 44.6914 41.7603 44.9956C41.785 45.329 41.785 45.6648 41.7776 46.0006C41.7578 46.8645 41.1688 47.485 40.3678 47.4923C39.5644 47.4996 38.9606 46.8864 38.9286 46.0298C38.9089 45.5383 39.0641 44.9348 38.8275 44.5892C38.6156 44.2777 37.9699 44.268 37.5312 44.0879C34.9977 43.0415 33.3144 41.3137 32.9817 38.5128C32.8584 37.4664 33.3563 36.7704 34.278 36.695C35.1406 36.6244 35.7247 37.2085 35.7986 38.2184C35.912 39.7417 37.2552 41.1823 39.0099 41.5839V41.5766ZM41.7702 41.6812C43.6851 41.6204 45.5631 39.7806 45.5902 37.9701C45.6173 36.1523 43.8083 34.3662 41.7702 34.2153V41.6812ZM38.9606 30.7768V24.9681C37.3266 25.3136 36.1584 26.8467 36.3285 28.3652C36.4714 29.633 37.7111 30.7743 38.9606 30.7768Z" fill="#106E39"/>
<path d="M74.0013 46.5623C73.9865 46.7716 73.9865 47.0222 73.9446 47.2631C73.8263 47.9226 73.2373 48.3777 72.5669 48.3485C71.8645 48.3193 71.31 47.8083 71.2632 47.1171C71.2361 46.7302 71.241 46.3409 71.2607 45.9539C71.2977 45.2434 71.8744 44.7007 72.5866 44.6812C73.2693 44.6618 73.8534 45.1485 73.9569 45.8396C73.9914 46.0659 73.9865 46.2946 74.0037 46.5623H74.0013Z" fill="#106E39"/>
<path d="M73.9987 39.2988C73.9864 39.5105 73.9889 39.7222 73.9593 39.9291C73.8607 40.6542 73.2939 41.1142 72.5496 41.085C71.8521 41.0582 71.3099 40.5472 71.2631 39.8463C71.2385 39.4789 71.2434 39.1065 71.2582 38.7367C71.2877 38.0066 71.8275 37.4785 72.5496 37.4518C73.2865 37.425 73.8681 37.8922 73.9618 38.6125C73.9913 38.8364 73.9667 39.07 73.9667 39.2988C73.9765 39.2988 73.9864 39.2988 73.9987 39.2988Z" fill="#106E39"/>
</g>
<defs>
<clipPath id="clip0_313_1281">
<rect width="73.4724" height="54.7703" fill="white" transform="translate(0.528809 0.404297)"/>
</clipPath>
</defs>
</svg>
