<svg width="108" height="55" viewBox="0 0 108 55" fill="none" xmlns="http://www.w3.org/2000/svg">
<g clip-path="url(#clip0_313_1269)">
<path d="M28.0983 45.5638C25.4142 45.5638 22.7976 45.5724 20.1809 45.5609C18.4581 45.5523 17.9212 45.0061 17.9128 43.2469C17.8988 40.7547 17.9128 38.2654 17.9072 35.7731C17.9072 34.6147 18.1686 33.6374 19.5204 33.5425C20.6194 33.4649 21.2377 34.2985 21.2461 35.8134C21.2574 37.8629 21.2489 39.9125 21.2489 42.054H28.1376C28.7869 39.2398 30.1584 36.8683 32.5868 35.2356C34.4474 33.9823 36.5075 33.4275 38.7082 33.4908C43.0786 33.6173 46.5497 36.7792 48.1432 42.0626H73.4692V4.26552H21.2489C21.2489 5.33772 21.2574 6.37542 21.2489 7.416C21.2377 8.54281 20.7121 9.29881 19.5851 9.30456C18.4552 9.30743 17.9269 8.54568 17.9156 7.42462C17.9016 5.93849 17.8988 4.45524 17.9128 2.96911C17.9297 1.33063 18.4974 0.755731 20.136 0.752856C24.7734 0.744233 29.4108 0.752856 34.0454 0.752856C47.0668 0.752856 60.0853 0.752856 73.1067 0.752856C75.3945 0.752856 76.7136 1.90362 77.064 4.20516C77.5446 4.20516 78.0477 4.20516 78.5508 4.20516C83.9358 4.20516 89.3236 4.23103 94.7087 4.18791C95.9285 4.17929 96.6901 4.56447 97.2523 5.73153C100.392 12.2538 103.604 18.7416 106.758 25.2581C107.055 25.8733 107.227 26.6207 107.233 27.3077C107.272 32.6255 107.261 37.9405 107.252 43.2584C107.252 45.0061 106.701 45.5523 104.978 45.5666C103.486 45.5781 101.991 45.5666 100.409 45.5666C99.748 48.5274 98.3203 50.9161 95.8301 52.5489C94.0426 53.7188 92.0836 54.2563 89.9644 54.1758C85.3832 54.0034 82.1033 51.103 80.3692 45.6414H48.1798C46.6452 51.1202 43.2332 54.3196 37.4462 54.1356C32.924 53.9919 29.6216 50.8701 28.0983 45.5638ZM80.3495 42.077C82.241 36.486 85.698 33.4793 90.1837 33.4735C95.0993 33.4678 98.5423 36.3337 100.445 42.031H103.835V33.5368C102.93 33.5368 102.1 33.5281 101.271 33.5368C99.6778 33.5569 98.8655 33.0079 98.8065 31.8494C98.7503 30.6881 99.5344 30.0902 101.159 30.073C102.036 30.0643 102.916 30.073 103.812 30.073V28.3166C103.213 28.3166 102.708 28.3166 102.202 28.3166C96.1674 28.3138 90.1331 28.3195 84.0988 28.3023C82.5474 28.2965 81.9965 27.7187 81.9909 26.1291C81.9768 21.8202 81.974 17.5084 81.9909 13.1995C81.9965 11.7163 82.5867 11.127 84.0426 11.104C85.6334 11.081 87.227 11.1011 88.8177 11.1011C91.1786 11.1011 93.5395 11.1011 96.0802 11.1011C95.7233 10.3308 95.4057 9.79897 95.223 9.22407C94.8183 7.95066 94.0566 7.54248 92.7244 7.58559C89.3574 7.69483 85.9819 7.62296 82.612 7.62296C80.7542 7.62296 78.8936 7.62296 76.9684 7.62296V42.0798H80.3439L80.3495 42.077ZM102.865 24.8672C101.207 21.4724 99.6862 18.3047 98.0898 15.1772C97.9155 14.8351 97.2972 14.5563 96.8756 14.5448C94.5822 14.4844 92.2888 14.5161 89.9954 14.5161H85.4394V24.8672H102.865ZM97.1623 43.9138C97.1792 40.0677 94.1662 36.946 90.431 36.9402C86.6789 36.9345 83.6547 40.0188 83.6491 43.8621C83.6435 47.6191 86.6396 50.7235 90.313 50.7609C94.0707 50.7983 97.1483 47.7225 97.1651 43.9138H97.1623ZM44.883 43.9195C44.9055 40.0763 41.8897 36.9517 38.1573 36.9431C34.4052 36.9345 31.3726 40.0274 31.3726 43.8592C31.3726 47.6305 34.3546 50.7235 38.028 50.7609C41.7942 50.7983 44.8633 47.7369 44.883 43.9195Z" fill="#106E39"/>
<path d="M34.7566 16.2408C27.2243 16.2408 19.692 16.2408 12.1597 16.2408C11.7859 16.2408 11.4065 16.2753 11.0383 16.2207C10.0799 16.0798 9.4784 15.5078 9.5037 14.5017C9.52618 13.5043 10.1305 12.9437 11.1029 12.8374C11.4261 12.8029 11.7578 12.8259 12.0838 12.8259C27.1962 12.8259 42.3058 12.8259 57.4182 12.8259C57.6993 12.8259 57.9803 12.8172 58.2614 12.8287C59.3013 12.8776 59.973 13.4295 60.0011 14.496C60.0292 15.5682 59.3716 16.1431 58.3373 16.2293C57.9663 16.2609 57.5897 16.2408 57.2159 16.2408C49.7313 16.2408 42.244 16.2408 34.7594 16.2408H34.7566Z" fill="#106E39"/>
<path d="M25.6419 23.1397C18.1096 23.1397 10.5773 23.1397 3.04494 23.1397C2.67113 23.1397 2.2917 23.1742 1.92352 23.1196C0.965117 22.9788 0.363656 22.4067 0.388951 21.4006C0.411436 20.4032 1.01571 19.8426 1.98816 19.7363C2.31138 19.7018 2.64303 19.7248 2.96905 19.7248C18.0815 19.7248 33.1911 19.7248 48.3035 19.7248C48.5845 19.7248 48.8656 19.7162 49.1466 19.7277C50.1866 19.7765 50.8583 20.3284 50.8864 21.3949C50.9145 22.4671 50.2568 23.042 49.2225 23.1282C48.8515 23.1598 48.4749 23.1397 48.1011 23.1397C40.6166 23.1397 33.1292 23.1397 25.6447 23.1397H25.6419Z" fill="#106E39"/>
<path d="M26.8729 30.0702C24.8746 30.0501 22.8791 30.0299 20.8808 30.0299C19.4755 30.0299 18.0702 30.0299 16.6621 30.0299C15.5435 30.0299 14.5205 29.8143 14.5683 28.3598C14.6104 27.0289 15.4705 26.6236 16.6649 26.6265C22.7723 26.6409 28.8825 26.6265 34.9898 26.6265C36.0157 26.6265 37.0415 26.6121 38.0674 26.6466C39.1129 26.684 39.7622 27.2733 39.7622 28.3397C39.7622 29.4119 39.1073 29.9926 38.059 30.0184C36.2433 30.0616 34.4249 30.0817 32.6093 30.0932C30.6953 30.1047 28.7841 30.0932 26.8701 30.0731L26.8729 30.0702Z" fill="#106E39"/>
<path d="M95.4424 43.8391C95.4536 46.6418 93.2333 48.9587 90.4873 49.0046C87.6852 49.0506 85.3749 46.7366 85.3665 43.865C85.358 41.0623 87.5784 38.7455 90.3215 38.6995C93.118 38.6506 95.4339 40.9761 95.4424 43.8391ZM92.1231 43.7615C91.946 42.8417 91.4767 42.1144 90.4002 42.1345C89.3575 42.1547 88.7335 42.7957 88.7307 43.8535C88.7307 44.92 89.3631 45.5523 90.4058 45.5552C91.4626 45.5581 91.9854 44.8855 92.1203 43.7586L92.1231 43.7615Z" fill="#106E39"/>
<path d="M38.1208 38.6967C40.9145 38.6881 43.1995 41.051 43.1658 43.914C43.1349 46.7195 40.8752 49.0048 38.1321 49.0048C35.3833 49.0048 33.1236 46.731 33.0871 43.9284C33.0506 41.0596 35.3187 38.7025 38.1208 38.6938V38.6967ZM39.8381 43.8479C39.7088 42.8159 39.1804 42.1375 38.1321 42.1404C37.0893 42.1404 36.4598 42.79 36.457 43.8507C36.4542 44.9114 37.0781 45.5611 38.1236 45.564C39.172 45.5668 39.7088 44.8971 39.8409 43.8479H39.8381Z" fill="#106E39"/>
</g>
<defs>
<clipPath id="clip0_313_1269">
<rect width="106.869" height="53.4345" fill="white" transform="translate(0.388916 0.74707)"/>
</clipPath>
</defs>
</svg>
