<svg width="64" height="78" viewBox="0 0 64 78" fill="none" xmlns="http://www.w3.org/2000/svg">
<g clip-path="url(#clip0_313_1261)">
<path d="M46.9136 66.7615C46.9136 68.2309 46.9055 69.6459 46.9136 71.061C46.9271 72.7123 46.9623 74.361 46.9785 76.0123C46.9866 76.7076 46.5838 77.2454 45.9323 77.4545C45.3078 77.6555 44.6698 77.4518 44.2832 76.8869C42.1341 73.739 39.993 70.5857 37.8519 67.4324C35.7406 64.3252 33.6347 61.2154 31.4936 58.0567C31.1828 58.5537 30.8908 59.0181 30.6015 59.4853C27.0439 65.2405 23.489 70.9958 19.9314 76.7511C19.5529 77.3622 18.9149 77.6392 18.2607 77.4871C17.5984 77.3296 17.1604 76.7836 17.1226 76.0259C17.0145 73.7661 16.9171 71.5037 16.8144 69.2412C16.7766 68.402 16.7333 67.5655 16.6873 66.6556C15.9791 67.2042 15.3249 67.7067 14.6733 68.2119C10.8373 71.1859 7.00122 74.1572 3.16515 77.1313C2.50823 77.6392 1.72426 77.6473 1.15655 77.1449C0.591553 76.6451 0.494232 75.8521 0.921362 75.1377C3.08135 71.5281 5.24403 67.924 7.40131 64.3144C11.4131 57.5977 15.4222 50.8755 19.4367 44.1615C19.5691 43.9388 19.6178 43.7514 19.4745 43.5259C19.4015 43.4119 19.3312 43.2869 19.2988 43.1593C19.0771 42.2385 18.4391 41.9479 17.5605 41.785C15.46 41.3911 13.3784 40.8914 11.2914 40.4242C10.3777 40.2205 9.93706 39.4845 10.1128 38.5611C10.5805 36.1302 11.0373 33.6967 11.4807 31.2631C11.505 31.1273 11.405 30.929 11.3023 30.815C9.72079 29.017 8.12581 27.2298 6.54164 25.4345C5.7793 24.5708 5.82796 23.775 6.6687 22.9792C8.40967 21.336 10.1506 19.6928 11.8808 18.0361C11.997 17.9247 12.0889 17.7074 12.0754 17.5499C11.9105 15.7736 11.724 14.0001 11.5429 12.2238C11.4807 11.6018 11.4374 10.9744 11.359 10.3524C11.2293 9.3122 11.6861 8.57616 12.981 8.42135C15.3086 8.1416 17.6308 7.82382 19.9584 7.54136C20.226 7.50877 20.3585 7.40556 20.4829 7.18828C21.6723 5.1241 22.8726 3.06807 24.0675 1.00661C24.6433 0.015259 25.4165 -0.204739 26.4248 0.34933C28.5064 1.49278 30.588 2.63622 32.6642 3.79053C32.8886 3.91547 33.0697 3.93448 33.3049 3.82855C35.4973 2.85079 37.6951 1.88931 39.8903 0.916979C40.8446 0.493279 41.6339 0.775745 42.0746 1.71821C43.1019 3.91004 44.1291 6.10458 45.1726 8.28826C45.251 8.45123 45.4565 8.6169 45.6322 8.65764C48.022 9.19542 50.4172 9.70874 52.8096 10.2357C53.6747 10.4258 54.1559 11.2053 53.9883 12.0853C53.5206 14.5297 53.0556 16.9741 52.6069 19.4212C52.5825 19.557 52.6853 19.7553 52.788 19.8721C54.3884 21.6918 55.9996 23.498 57.6 25.3177C58.2974 26.1081 58.2434 26.931 57.481 27.6535C55.7293 29.3076 53.9775 30.9562 52.2365 32.6238C52.104 32.7515 52.0013 32.9986 52.0175 33.1779C52.2068 35.2122 52.423 37.2438 52.6285 39.2754C52.6745 39.7371 52.7258 40.1988 52.742 40.6605C52.7718 41.5107 52.196 42.1218 51.3498 42.225C49.279 42.4776 47.211 42.7519 45.1402 43.018C44.9645 43.0398 44.7888 43.0805 44.6157 43.0697C43.948 43.0262 43.5695 43.3766 43.3371 43.9605C43.2614 44.1479 43.137 44.3136 43.0289 44.501C44.4049 46.595 45.7809 48.6891 47.1542 50.7804C49.471 54.3058 51.7905 57.834 54.1072 61.3593C57.0593 65.8516 60.0141 70.3412 62.958 74.839C63.1554 75.1377 63.3365 75.4799 63.4014 75.8276C63.523 76.4632 63.2581 76.9846 62.6985 77.3106C62.1281 77.6419 61.5523 77.6066 61.0197 77.2128C59.1814 75.8575 57.3486 74.4967 55.513 73.136C52.7177 71.0664 49.9224 68.9941 47.1272 66.9245C47.065 66.8783 46.9974 66.8348 46.8947 66.7642L46.9136 66.7615ZM38.0439 47.0812C38.1196 46.9536 38.1763 46.8612 38.2304 46.7689C39.3253 44.8867 40.4228 43.0072 41.5123 41.1195C41.7664 40.6796 42.1124 40.3591 42.6099 40.2884C43.9507 40.101 45.297 39.9435 46.6433 39.7724C47.6219 39.6475 48.6005 39.5225 49.617 39.3949C49.5926 39.088 49.5764 38.8055 49.5467 38.523C49.3439 36.4887 49.1358 34.4571 48.933 32.4228C48.8816 31.8986 49.0547 31.4641 49.4385 31.1029C50.3117 30.2853 51.1795 29.4597 52.05 28.6367C52.8583 27.8735 53.6666 27.1076 54.4857 26.3308C54.4154 26.2466 54.3668 26.1841 54.3127 26.1244C52.8475 24.4595 51.385 22.7918 49.9116 21.1351C49.5467 20.7249 49.4196 20.2632 49.5142 19.739C49.7332 18.5059 49.9657 17.2756 50.1955 16.0452C50.3901 15.005 50.5848 13.9648 50.7821 12.9109C50.6875 12.8756 50.628 12.843 50.5658 12.8295C48.4086 12.3596 46.2513 11.887 44.094 11.4226C43.5236 11.3003 43.1154 11.0043 42.8694 10.4611C42.4855 9.60553 42.0746 8.76085 41.6745 7.91074C41.096 6.68309 40.5175 5.45274 39.9362 4.21151C39.82 4.25497 39.7308 4.28213 39.647 4.32016C37.6492 5.20015 35.6487 6.07471 33.6563 6.97099C33.1157 7.21272 32.6182 7.20729 32.1046 6.91939C30.9665 6.28384 29.823 5.65644 28.6822 5.02904C27.8171 4.55373 26.952 4.07843 26.0734 3.59498C25.9788 3.74707 25.9058 3.86115 25.8382 3.97794C24.7569 5.8357 23.6728 7.69345 22.5942 9.55393C22.3482 9.97763 22.0265 10.2954 21.5345 10.366C20.272 10.5426 19.0068 10.6974 17.7444 10.8603C16.6711 10.9989 15.5979 11.1374 14.4895 11.2813C14.5328 11.7349 14.5706 12.1532 14.6112 12.5687C14.7842 14.3314 14.9248 16.0968 15.1437 17.8541C15.2438 18.6499 15.0545 19.2447 14.4598 19.7825C13.319 20.8118 12.216 21.8847 11.0995 22.9412C10.6102 23.4056 10.1209 23.8701 9.62347 24.3454C11.1671 26.0864 12.6783 27.8002 14.2003 29.5058C14.5706 29.9214 14.7247 30.3831 14.6166 30.9317C14.4895 31.5863 14.3706 32.2436 14.2462 32.8981C13.9407 34.5142 13.6353 36.1302 13.3271 37.7625C13.4839 37.806 13.6082 37.8495 13.738 37.8793C15.8547 38.3465 17.9741 38.8136 20.0909 39.2726C20.637 39.3922 21.0019 39.6964 21.2371 40.207C22.04 41.9479 22.8537 43.6862 23.6674 45.4217C23.8323 45.7748 24.0107 46.1225 24.1838 46.4701C24.2649 46.4457 24.3189 46.4375 24.3676 46.4158C26.3627 45.5304 28.3632 44.6558 30.3501 43.7487C30.9908 43.4553 31.5531 43.4906 32.1641 43.8329C34.1024 44.9247 36.0569 45.9867 38.0466 47.0812H38.0439ZM43.8939 70.9659C43.9048 70.7894 43.9156 70.7133 43.9129 70.64C43.8777 68.3748 43.8453 66.1124 43.802 63.8472C43.7912 63.1899 44.0183 62.663 44.6076 62.3561C45.2078 62.0438 45.7809 62.147 46.3216 62.549C48.5789 64.2302 50.8416 65.9033 53.1016 67.579C54.0234 68.2635 54.948 68.9452 55.8725 69.6269C55.8915 69.6106 55.9077 69.5943 55.9266 69.578C51.0768 62.1986 46.2297 54.8219 41.3528 47.399C40.8959 48.1785 40.4769 48.8928 40.0633 49.6098C39.4307 50.7017 38.7197 50.9027 37.6249 50.2997C35.5568 49.1563 33.486 48.021 31.4234 46.8666C31.1936 46.739 31.0206 46.7444 30.7881 46.8476C28.5956 47.8254 26.3978 48.7896 24.1973 49.7565C23.2133 50.1883 22.405 49.8488 21.9859 48.8575C21.7453 48.2898 21.4642 47.7412 21.1668 47.1138C16.6252 54.7214 12.1322 62.2475 7.63921 69.7736C7.7906 69.7437 7.88792 69.6595 7.98794 69.5835C11.0184 67.2341 14.0516 64.8902 17.082 62.5381C17.593 62.1416 18.1445 62.0601 18.7203 62.3317C19.3069 62.606 19.5556 63.1112 19.5799 63.7495C19.6637 65.8761 19.7584 68 19.8503 70.1267C19.8611 70.401 19.8962 70.6753 19.926 71.0121C20.0044 70.9062 20.0422 70.8654 20.0693 70.822C21.8021 68.019 23.5323 65.2161 25.2624 62.4132C26.8844 59.7841 28.5037 57.1522 30.1339 54.5286C30.7583 53.5236 32.0478 53.5019 32.7102 54.4769C35.7893 59.0154 38.8657 63.5593 41.9421 68.1005C42.572 69.0294 43.2046 69.9556 43.8939 70.9686V70.9659Z" fill="#106E39"/>
<path d="M31.9424 12.1367C39.5199 12.1693 45.6593 18.2912 45.5484 26.0373C45.4376 33.721 39.1604 39.7288 31.4747 39.4925C24.0297 39.2644 18.1553 33.0908 18.3175 25.524C18.4824 17.9544 24.6109 12.1422 31.9424 12.1367ZM31.9262 36.4723C37.9331 36.3962 42.3017 31.7573 42.5153 26.4013C42.791 19.4971 37.3275 15.2085 32.0911 15.1895C26.1464 15.1678 21.3642 19.8584 21.3453 25.7603C21.3263 31.6704 26.0356 36.4397 31.9262 36.4723Z" fill="#106E39"/>
</g>
<defs>
<clipPath id="clip0_313_1261">
<rect width="62.7855" height="77.48" fill="white" transform="translate(0.661865 0.0532227)"/>
</clipPath>
</defs>
</svg>
