<svg width="296" height="103" viewBox="0 0 296 103" fill="none" xmlns="http://www.w3.org/2000/svg">
<g filter="url(#filter0_d_395_19923)">
<path d="M155.189 27.2751C155.169 27.1105 155.143 26.9459 155.11 26.7845C155.077 26.6133 155.037 26.4421 154.951 26.2907C154.736 25.9186 154.172 25.889 153.785 25.833C152.335 25.6289 150.909 25.6453 149.452 25.6453C149.198 25.6552 148.94 25.6684 148.686 25.6848C148.081 25.7276 147.104 25.7672 146.681 26.2182C146.169 26.7648 146.361 27.9073 146.116 28.5855C138.2 23.4789 123.064 25.0296 118.414 33.8831C113.248 43.721 113.139 58.1815 122.879 64.9442C128.662 68.9577 136.73 68.161 143.094 66.0933C143.649 65.9122 144.3 65.5533 144.865 65.5039C146.054 72.889 140.211 78.5619 133.434 77.4885C130.594 77.0375 127.962 75.6415 125.759 73.801C124.656 72.8791 123.632 71.8288 122.317 71.1966C120.877 70.5052 119.097 70.3768 117.829 71.4864C116.822 72.3654 116.346 73.7417 116.346 75.0752C116.346 76.6457 116.878 78.5092 117.925 79.7175C125.303 88.2088 141.866 87.7084 149.776 80.2805C153.779 76.5205 155.143 71.4501 155.598 66.1954C156.147 59.91 155.767 52.93 155.631 46.6282C155.565 43.3884 155.519 39.961 155.446 36.7212C155.41 35.0585 155.433 33.4386 155.397 31.7759C155.364 30.2482 155.374 28.7864 155.185 27.2685L155.189 27.2751ZM143.653 54.3985C139.888 61.5859 129.131 61.5365 125.679 53.9704C122.796 47.6489 123.982 37.2612 131.268 34.4C138.19 31.6837 143.847 37.0504 145.007 43.5827C145.631 47.0958 145.353 51.1521 143.653 54.3952V54.3985Z" fill="white"/>
<path d="M248.905 35.4009V62.2082C248.905 64.0651 248.43 65.471 247.482 66.4225C246.534 67.374 245.325 67.8482 243.865 67.8482C242.406 67.8482 241.217 67.3609 240.305 66.3863C239.394 65.4117 238.934 64.019 238.934 62.2082V35.6742C238.934 33.8403 239.39 32.4574 240.305 31.5289C241.22 30.6005 242.406 30.1362 243.865 30.1362C245.325 30.1362 246.531 30.6005 247.482 31.5289C248.433 32.4574 248.905 33.7481 248.905 35.4009Z" fill="white"/>
<path d="M197.07 29.8432C196.852 28.9082 196.462 28.1312 195.897 27.5023C195.762 27.3508 195.626 27.2126 195.481 27.0842C194.636 26.3335 193.609 25.9581 192.403 25.9581C191.198 25.9581 190.184 26.3368 189.361 27.0842C189.219 27.2126 189.084 27.3508 188.955 27.5023C188.734 27.7558 188.539 28.0456 188.377 28.3682C188.308 28.5032 188.248 28.6349 188.189 28.7765C187.39 28.174 186.353 27.7953 185.451 27.443C183.585 26.6989 181.617 26.2182 179.622 26.0075C177.498 25.7836 175.358 25.8561 173.297 26.238C173.284 26.238 173.271 26.238 173.254 26.2413C168.687 27.094 164.502 29.4449 161.698 33.3629C160.516 35.0091 159.598 36.8233 158.934 38.7263C158.006 41.357 157.56 44.1589 157.56 46.9476C157.56 58.8367 164.816 66.7321 173.806 67.5782C175.744 67.9009 177.752 67.9503 179.741 67.7395C181.735 67.5288 183.704 67.0481 185.57 66.304C186.438 65.9649 187.429 65.5994 188.219 65.0331C188.238 65.0233 188.262 65.0101 188.278 64.9969C188.46 65.4118 188.684 65.7838 188.952 66.1164C189.054 66.2349 189.15 66.3468 189.256 66.4522C189.417 66.6168 189.589 66.765 189.764 66.9C190.507 67.4564 191.386 67.7363 192.4 67.7363C193.414 67.7363 194.236 67.4827 194.979 66.9757C195.306 66.7518 195.617 66.4752 195.894 66.1526C196.459 65.5073 196.848 64.671 197.066 63.6503C197.205 63.005 197.275 62.2839 197.275 61.4872V31.7858C197.275 31.0779 197.205 30.4293 197.066 29.8399L197.07 29.8432ZM187.561 58.2111C187.535 58.2836 187.499 58.3527 187.449 58.4153C187.287 58.6161 187.023 58.705 186.775 58.7775C184.206 59.5479 181.57 60.2064 178.885 60.2624C176.2 60.3183 173.439 59.7356 171.24 58.2013C169.403 56.9238 168.069 55.0471 167.2 53.009C166.229 50.7339 165.889 48.4161 166.058 45.9533C166.153 44.5309 166.414 43.1185 166.873 41.7719C167.739 39.2367 169.347 36.9188 171.583 35.4339C173.743 34.0016 176.392 33.4057 178.988 33.4386C181.584 33.4682 184.14 34.0938 186.594 34.9367C186.95 35.0585 187.333 35.21 187.512 35.5425C187.627 35.7598 187.631 36.0199 187.631 36.2668C187.631 43.372 187.634 50.4804 187.637 57.5856C187.637 57.793 187.634 58.0169 187.561 58.2079V58.2111Z" fill="white"/>
<path d="M100.91 31.644V61.6483C100.91 63.7258 100.46 65.2996 99.5588 66.3631C98.6605 67.4265 97.5178 67.9599 96.134 67.9599C94.7501 67.9599 93.6239 67.4134 92.7619 66.3236C91.8966 65.2338 91.464 63.6764 91.464 61.645V31.9469C91.464 29.8924 91.8966 28.3482 92.7619 27.3078C93.6272 26.2674 94.7501 25.7505 96.134 25.7505C97.5178 25.7505 98.6605 26.2707 99.5588 27.3078C100.457 28.3482 100.91 29.7936 100.91 31.644Z" fill="white"/>
<path d="M102.898 27.3176C103.023 27.2287 103.155 27.1464 103.288 27.0673C104.642 26.264 106.234 25.9018 107.792 25.7931C111.088 25.566 114.371 26.1487 117.657 25.589C119.646 25.2499 121.594 24.5585 123.236 23.3896C121.267 26.5866 119.735 29.7342 116.706 32.1015C114.054 34.1758 110.801 35.5454 107.422 35.7792C107.02 35.8055 106.617 35.8187 106.214 35.8121C103.499 35.7759 100.345 34.2153 98.0991 36.4904C98.3468 35.6837 98.4723 34.8343 98.4624 33.9881C98.4524 33.2144 98.3468 32.3682 98.8058 31.69C99.1031 31.2521 99.5886 31.0381 99.8924 30.6002C100.738 29.3951 101.676 28.1604 102.901 27.311L102.898 27.3176Z" fill="white"/>
<path d="M270.65 59.9629C272.351 59.4164 273.11 58.2969 274.319 56.9371C275.538 55.5642 276.941 54.2307 278.712 53.7336C279.97 53.3813 281.37 53.4965 282.516 54.1254C283.662 54.7542 284.524 55.9033 284.729 57.1874C285.386 61.3194 281.644 65.4547 277.922 66.6828C270.356 69.1752 260.666 67.8615 255.421 61.4939C245.289 49.1867 252.162 28.5824 267.935 25.8463C271.386 25.2471 275.611 26.169 279.039 26.5641C283.197 27.0415 288.019 25.9122 291.189 23.186C289.822 26.7452 286.955 30.469 284.092 33.0667C281.228 35.6645 277.242 37.0572 273.566 37.1691C270.782 37.2548 267.962 35.783 265.306 36.6226C254.209 40.1324 258.433 63.8809 270.65 59.9662V59.9629Z" fill="white"/>
<path d="M200.221 37.3662C200.171 45.3768 200.125 53.384 200.076 61.3946C200.062 63.5512 200.066 65.5431 201.819 66.8074C203.603 68.0948 207.18 68.1771 208.758 66.6296C209.726 65.6814 209.993 64.45 210.026 63.0968C210.129 58.9088 209.997 54.6944 210.017 50.4998C210.036 46.1209 210.073 41.7452 210.132 37.3662C210.135 37.0172 210.142 36.6649 210.145 36.3159C210.155 35.6014 210.178 34.8409 210.578 34.2482C211.255 33.2407 212.675 33.1321 213.891 33.1419C215.922 33.1584 217.973 33.2243 219.934 33.7511C221.896 34.2779 223.779 35.3117 224.978 36.948C226.14 38.5317 226.563 40.5302 226.801 42.4761C227.61 49.0643 226.632 55.7414 226.913 62.3758C226.972 63.7882 227.134 65.3094 228.079 66.3629C228.98 67.3704 230.411 67.7227 231.761 67.8018C232.699 67.8577 233.677 67.7985 234.506 67.3606C235.589 66.791 236.273 65.6485 236.57 64.4665C236.867 63.2845 236.824 62.0465 236.778 60.8283C236.61 56.2452 236.445 51.6621 236.276 47.079C236.151 43.6647 236.022 40.2109 235.1 36.9184C234.228 33.7971 232.59 30.745 229.882 28.8617C226.395 26.4385 222.527 25.9775 218.405 25.6911C215.803 25.51 213.194 25.4211 210.585 25.4244C209.28 25.4244 207.976 25.4475 206.671 25.4968C205.703 25.5331 204.415 25.4079 203.5 25.7701C202.117 26.05 201.027 27.5052 200.627 28.7794C200.267 29.9285 200.254 31.1533 200.247 32.3583C200.237 34.0276 200.227 35.7002 200.218 37.3695L200.221 37.3662Z" fill="white"/>
<path d="M243.541 27.9336C243.376 25.27 243.66 22.5471 244.648 20.0679C245.635 17.5886 247.366 15.3564 249.681 14.0196C251.332 13.0648 253.228 12.5841 255.127 12.4129C257.026 12.2417 258.942 12.3668 260.841 12.561C259.325 14.0855 258.605 16.1136 258.04 18.1418C257.475 20.1732 256.98 22.2837 255.755 24.0024C254.655 25.5432 253.02 26.6594 251.237 27.2948C249.453 27.9336 247.524 28.1081 245.635 27.9895C247.987 22.6129 251.943 17.9442 256.871 14.7374C254.526 15.5835 252.416 17.0059 250.599 18.7048C249.189 20.0251 247.944 21.51 246.808 23.0706C246.253 23.8345 245.751 24.6246 245.239 25.4148C244.687 26.2643 244.109 27.094 243.545 27.9336H243.541Z" fill="white"/>
<path d="M241.986 27.924C242.194 27.1569 242.838 24.4669 241.761 21.8692C241.566 21.3983 241.048 20.1801 239.892 19.2187C239.367 18.7808 238.918 18.5701 238.254 18.2573C237.973 18.1256 236.672 17.5297 234.756 17.2432C234.145 17.151 233.33 17.0687 232.355 17.0852L232.299 17.0786C232.299 17.0786 232.871 17.9347 233.075 19.1858C233.28 20.4369 233.746 23.894 235.044 25.5798C236.342 27.2655 238.138 27.8516 239.073 28.059C240.008 28.2664 241.989 27.9273 241.989 27.9273L241.986 27.924Z" fill="white"/>
<path d="M88.5114 41.6563V41.8176C88.5114 42.2753 88.5048 42.7231 88.4883 43.1807C88.3991 46.381 87.9169 49.5451 87.0879 52.6005C86.9591 53.0976 86.8138 53.5948 86.6619 54.0821C86.6619 54.0985 86.6619 54.1051 86.6553 54.1216C86.6487 54.1446 86.6388 54.1611 86.6321 54.1841C86.543 54.4903 86.4472 54.7867 86.3415 55.0896C86.2523 55.353 86.1632 55.6197 86.0773 55.8765C83.0455 64.3414 77.345 71.8153 69.8084 76.9384C69.4715 77.1787 69.1016 77.4125 68.6822 77.4355C67.9093 77.4849 67.2521 76.698 67.2917 75.9276C67.3082 75.6938 67.371 75.4798 67.4833 75.279C67.4899 75.2625 67.4998 75.2461 67.5163 75.2296C67.9985 74.3801 69.1974 73.7611 69.8579 73.1784C71.1591 72.0392 72.391 70.821 73.5073 69.4974C75.0431 67.6701 76.3939 65.7045 77.5597 63.6203C78.4613 62.0169 79.2408 60.3509 79.9079 58.6421C80.4694 57.2066 80.9218 55.7415 81.2752 54.25C81.7574 52.2778 82.0547 50.2661 82.1934 48.2281V48.1886C82.4279 44.5734 82.1372 40.9418 81.3413 37.4222C81.3347 37.3662 81.3182 37.3004 81.3016 37.2444C79.8848 31.1204 76.9421 25.3454 72.6487 20.6734C68.877 16.5776 64.1641 13.3938 58.9855 11.3886C58.4076 11.1648 57.8263 10.9639 57.2417 10.7631C56.9511 10.6676 56.6538 10.5787 56.3566 10.4898C56.066 10.4009 55.7687 10.312 55.4715 10.233C55.1742 10.1441 54.877 10.0651 54.5699 9.99922C54.2726 9.92679 53.9754 9.85436 53.6682 9.7918C53.371 9.72924 53.0638 9.66339 52.7666 9.60742C52.2448 9.50206 51.7296 9.41646 51.2077 9.34402C51.0558 9.32098 50.9006 9.29464 50.7487 9.28147C50.5571 9.25842 50.3722 9.23208 50.1773 9.20903C49.4771 9.13001 48.777 9.07404 48.0768 9.04112C47.7961 9.02465 47.5154 9.01807 47.2412 9.00819C46.9605 8.99173 46.6864 8.99173 46.4057 8.99173C46.0919 8.99173 45.7881 8.99831 45.4743 9.00819C45.1936 9.00819 44.9129 9.02465 44.6387 9.04112C43.9386 9.07404 43.2318 9.1366 42.5382 9.20903C42.3467 9.23208 42.1518 9.25842 41.9669 9.28147C41.805 9.30451 41.6531 9.32098 41.5078 9.34402C40.986 9.41646 40.4708 9.50535 39.9489 9.60742C39.6517 9.65681 39.3446 9.71936 39.0473 9.7918C38.7501 9.84777 38.4429 9.92021 38.1457 9.99922C37.8385 10.0717 37.5413 10.1507 37.2441 10.233C36.9468 10.312 36.6496 10.3943 36.3589 10.4898C36.0617 10.5688 35.7711 10.6676 35.4738 10.7631C34.886 10.954 34.2981 11.1549 33.73 11.3886C24.1589 15.0433 16.031 22.6752 12.7317 32.3617C12.7251 32.3847 12.7151 32.4111 12.7085 32.4341C12.1768 34.0046 11.7442 35.6179 11.4139 37.2444C11.4073 37.3069 11.3908 37.3662 11.3743 37.4222C10.2415 42.9865 10.2315 48.7746 11.437 54.25C13.1181 61.905 17.1638 68.9541 23.8055 73.9389C24.3108 74.3242 24.8525 74.7094 25.1959 75.2296C25.2124 75.2461 25.219 75.2625 25.229 75.279C25.3412 75.4798 25.4073 75.6971 25.4205 75.9276C25.4701 76.698 24.8029 77.4816 24.0301 77.4355C23.6106 77.4125 23.2408 77.1787 22.9039 76.9384C15.3672 71.8153 9.66679 64.3447 6.63494 55.8765C6.54577 55.6197 6.4566 55.3563 6.37073 55.0896C6.26504 54.7834 6.16926 54.487 6.08009 54.1841C6.06358 54.1512 6.04706 54.1117 6.04706 54.0788C5.89514 53.5882 5.74982 53.091 5.62102 52.5972C4.80196 49.5253 4.34289 46.3612 4.22069 43.1774C4.20418 42.7757 4.19757 42.3741 4.19757 41.9757V41.6563C4.19757 37.4222 4.83168 33.1914 6.12633 29.1416C6.73732 27.232 7.48703 25.3652 8.36884 23.5609C12.2924 15.5503 18.8251 8.84028 26.7515 4.70494C32.7623 1.57051 39.4932 0 46.2339 0H46.475C52.5321 0.0329247 58.5793 1.33016 64.1047 3.89499C78.7024 10.6544 88.3826 25.622 88.5114 41.6563Z" fill="white"/>
<path d="M14.6639 46.0057V45.8871C14.6639 45.5447 14.6705 45.2089 14.6837 44.8665C14.7531 42.4696 15.1163 40.099 15.7372 37.814C15.833 37.442 15.942 37.0699 16.0576 36.7044C16.0576 36.6913 16.0576 36.688 16.0642 36.6748C16.0708 36.6583 16.0774 36.6452 16.0807 36.6254C16.1468 36.3982 16.2194 36.1744 16.2987 35.9472C16.3648 35.7496 16.4308 35.5521 16.4969 35.3578C18.7724 29.0198 23.046 23.4292 28.6936 19.5968C28.9479 19.4157 29.2253 19.2445 29.5358 19.2247C30.1138 19.1885 30.6059 19.7779 30.5761 20.354C30.5629 20.5286 30.5167 20.6899 30.4308 20.8413C30.4242 20.8545 30.4176 20.8644 30.4077 20.8776C30.0444 21.513 29.1494 21.9739 28.654 22.4118C27.6764 23.2646 26.7549 24.1766 25.9161 25.1643C24.7634 26.5307 23.7528 28.0025 22.8776 29.5631C22.2006 30.7648 21.616 32.0127 21.1173 33.2902C20.6946 34.3635 20.3577 35.4632 20.0902 36.5793C19.7269 38.0544 19.5023 39.5623 19.3999 41.0867V41.1164C19.2216 43.8228 19.4362 46.5423 20.0307 49.1796C20.0373 49.2224 20.0472 49.2685 20.0604 49.3113C21.1173 53.8977 23.3169 58.224 26.5304 61.7272C29.3508 64.7958 32.8781 67.1828 36.7554 68.6875C37.1881 68.8554 37.624 69.0068 38.0633 69.1583C38.2813 69.2307 38.5025 69.2966 38.7271 69.3624C38.9451 69.4283 39.1664 69.4941 39.3909 69.5567C39.6122 69.6225 39.8368 69.6818 40.0647 69.7312C40.286 69.7839 40.5106 69.8398 40.7384 69.8892C40.9597 69.9386 41.1909 69.9847 41.4122 70.0275C41.8052 70.1065 42.1883 70.1724 42.5813 70.2251C42.6969 70.2448 42.8092 70.2613 42.9248 70.2744C43.0701 70.2942 43.2088 70.3107 43.3508 70.3304C43.876 70.3897 44.3978 70.4325 44.9229 70.4588C45.1343 70.472 45.3457 70.4786 45.5504 70.4819C45.7618 70.495 45.9666 70.495 46.1779 70.495C46.4124 70.495 46.6403 70.4885 46.8781 70.4852C47.0895 70.4852 47.3008 70.472 47.5056 70.4621C48.0307 70.4391 48.5592 70.3897 49.0777 70.337C49.223 70.3205 49.3683 70.3008 49.5037 70.2843C49.6226 70.2679 49.7382 70.2547 49.8472 70.2349C50.2402 70.1823 50.6233 70.1164 51.0163 70.0374C51.2376 70.0012 51.4688 69.9551 51.6901 69.8991C51.9114 69.8563 52.1425 69.8036 52.3638 69.7444C52.5917 69.6917 52.8163 69.6291 53.0376 69.5699C53.2589 69.5106 53.4834 69.4513 53.7014 69.3789C53.9227 69.3196 54.1407 69.2472 54.3652 69.1748C54.8045 69.0299 55.2438 68.8817 55.6731 68.7072C62.8432 65.9745 68.9366 60.2653 71.4103 53.0153C71.4169 52.9989 71.4235 52.9791 71.4268 52.9627C71.8264 51.7872 72.1501 50.5789 72.3978 49.3607C72.4044 49.3113 72.4143 49.2718 72.4275 49.229C73.2796 45.064 73.2895 40.7278 72.3912 36.6287C71.1362 30.8932 68.1109 25.6154 63.1404 21.8752C62.7606 21.5854 62.3577 21.299 62.1001 20.9072C62.0869 20.894 62.0836 20.8841 62.077 20.871C61.9944 20.7195 61.9449 20.5582 61.9317 20.3837C61.8953 19.8075 62.3973 19.2181 62.9753 19.2544C63.2891 19.2741 63.5665 19.4453 63.8175 19.6264C69.4584 23.4687 73.7222 29.0659 75.9878 35.4072C76.0539 35.5982 76.1199 35.799 76.186 35.9966C76.2652 36.2237 76.3346 36.4476 76.4006 36.6748C76.4138 36.6979 76.4238 36.7275 76.4238 36.7538C76.5394 37.1193 76.645 37.4913 76.7408 37.8634C77.3518 40.1648 77.6953 42.5354 77.7845 44.9191C77.7977 45.2188 77.801 45.5184 77.801 45.8213V46.0616C77.801 49.2323 77.3188 52.3996 76.3478 55.432C75.8887 56.8609 75.3273 58.2602 74.6634 59.6101C71.7208 65.6057 66.8262 70.6267 60.8847 73.7184C56.3832 76.0626 51.3433 77.2347 46.2968 77.2314H46.1152C41.5806 77.2051 37.0527 76.2272 32.9177 74.3011C21.9925 69.2307 14.7497 58.0166 14.6639 46.009V46.0057Z" fill="white"/>
<path d="M45.9994 84.6624C40.6458 84.613 35.9362 83.1479 31.7253 80.1484C31.3389 79.8718 30.9591 79.5788 30.5991 79.266C30.1103 78.8446 29.7899 78.3409 30.249 77.7219C30.6651 77.1589 31.1969 77.1391 31.831 77.4288C41.6828 81.9692 51.6635 81.1987 61.6937 78.117C62.0372 78.0116 62.3873 77.9326 62.7208 77.8108C63.2922 77.6099 63.7876 77.656 64.1179 78.2157C64.5208 78.8973 64.1179 79.3352 63.6059 79.7138C61.2743 81.4391 58.6387 82.5585 55.881 83.3652C52.6015 84.3266 49.236 84.7875 45.9928 84.6624H45.9994Z" fill="white"/>
<path d="M45.8408 90.0553C41.5408 90.0158 37.7625 88.8404 34.3806 86.4303C34.0701 86.2097 33.7663 85.9726 33.4789 85.7224C33.0859 85.3833 32.8283 84.9816 33.1982 84.4845C33.5351 84.0301 33.9611 84.0169 34.4697 84.2507C42.3796 87.8955 50.3919 87.2765 58.4438 84.8038C58.7179 84.7182 58.9987 84.6557 59.2695 84.5602C59.7285 84.3988 60.1282 84.4351 60.3924 84.8828C60.716 85.4294 60.3924 85.7817 59.9828 86.0846C58.1102 87.4707 55.9965 88.3663 53.7837 89.0182C51.1482 89.7919 48.4499 90.1574 45.8474 90.0586L45.8408 90.0553Z" fill="white"/>
<path d="M45.8376 94.6712C42.6803 94.6416 39.906 93.779 37.4257 92.0109C37.1979 91.8496 36.9766 91.6751 36.7619 91.4907C36.4746 91.2405 36.2863 90.9475 36.5538 90.582C36.8015 90.2494 37.112 90.2396 37.4852 90.4108C43.2913 93.0876 49.1733 92.6332 55.0851 90.8157C55.2866 90.7532 55.4946 90.7071 55.6928 90.6347C56.0297 90.5161 56.3236 90.5425 56.5185 90.8717C56.7562 91.2734 56.5185 91.5302 56.2179 91.7541C54.844 92.7715 53.2917 93.43 51.6668 93.9074C49.7315 94.4737 47.7499 94.7437 45.8376 94.6712Z" fill="white"/>
</g>
<defs>
<filter id="filter0_d_395_19923" x="0.197571" y="0" width="294.992" height="102.683" filterUnits="userSpaceOnUse" color-interpolation-filters="sRGB">
<feFlood flood-opacity="0" result="BackgroundImageFix"/>
<feColorMatrix in="SourceAlpha" type="matrix" values="0 0 0 0 0 0 0 0 0 0 0 0 0 0 0 0 0 0 127 0" result="hardAlpha"/>
<feOffset dy="4"/>
<feGaussianBlur stdDeviation="2"/>
<feComposite in2="hardAlpha" operator="out"/>
<feColorMatrix type="matrix" values="0 0 0 0 0 0 0 0 0 0 0 0 0 0 0 0 0 0 0.25 0"/>
<feBlend mode="normal" in2="BackgroundImageFix" result="effect1_dropShadow_395_19923"/>
<feBlend mode="normal" in="SourceGraphic" in2="effect1_dropShadow_395_19923" result="shape"/>
</filter>
</defs>
</svg>
