<svg xmlns="http://www.w3.org/2000/svg" xmlns:xlink="http://www.w3.org/1999/xlink" width="1920" zoomAndPan="magnify" viewBox="0 0 1440 809.999993" height="1080" preserveAspectRatio="xMidYMid meet" version="1.0"><defs><clipPath id="bb724b1f6c"><path d="M 353.621094 25.65625 L 1086.207031 25.65625 L 1086.207031 784.339844 L 353.621094 784.339844 Z M 353.621094 25.65625 " clip-rule="nonzero"/></clipPath></defs><g clip-path="url(#bb724b1f6c)"><path fill="#1b9949" d="M 1039.527344 465.363281 C 1040.519531 461.226562 1041.445312 457.070312 1042.285156 452.898438 C 1044.023438 450.222656 1045.589844 444.828125 1047.136719 440.84375 C 1047.746094 436.707031 1045.300781 436.324219 1046.851562 432.582031 C 1046.808594 428.441406 1048.90625 426.5625 1048.300781 430.160156 C 1048.929688 429.257812 1049.328125 426.636719 1049.957031 425.90625 C 1050.527344 421.386719 1050.929688 417.082031 1050.644531 415.171875 C 1049.78125 418.75 1049.167969 425.171875 1047.558594 423.730469 C 1047.878906 420.714844 1048.179688 417.699219 1048.417969 414.679688 C 1049.710938 409.109375 1050.597656 417.507812 1051.171875 407.863281 C 1051.703125 403.035156 1050.644531 405.804688 1050.207031 404.902344 C 1049.800781 404.082031 1049.699219 402.433594 1049.21875 401.964844 C 1049.378906 399.8125 1049.25 398.785156 1048.972656 398.578125 C 1048.824219 389.03125 1050.222656 387.09375 1049.78125 378.105469 C 1051.414062 376.230469 1050.957031 387.226562 1052.167969 387.503906 C 1053.617188 389.605469 1053.148438 382.308594 1053 377.445312 C 1052.882812 377.226562 1052.761719 376.996094 1052.636719 376.746094 C 1049.667969 363.53125 1048.332031 356.796875 1044.476562 346.847656 C 1044.742188 346.144531 1043.75 343.320312 1043.144531 341.179688 C 1044.433594 341.394531 1042.128906 335.65625 1043.398438 335.875 C 1044.621094 337.546875 1046.519531 345.070312 1047.679688 347.277344 C 1047.738281 346 1047.875 344.976562 1047.722656 343.179688 C 1047.082031 337.839844 1046.199219 338.34375 1045.449219 333.027344 C 1045.65625 333.019531 1045.648438 332.480469 1045.550781 331.722656 C 1044.996094 330.144531 1044.917969 329.339844 1045.03125 328.839844 C 1044.761719 327.488281 1044.5 326.183594 1044.507812 325.59375 C 1044.523438 324.636719 1044.507812 324.121094 1044.40625 323.582031 C 1043.824219 321.542969 1043.195312 319.449219 1042.949219 317.960938 C 1042.953125 317.957031 1042.953125 317.953125 1042.960938 317.941406 L 1041.96875 313.726562 C 1042.117188 315.511719 1042.230469 317.410156 1041.492188 317.347656 C 1041.457031 320.117188 1043.6875 321.484375 1043.890625 324.746094 C 1042.425781 323.183594 1040.347656 318.722656 1038.59375 316.136719 C 1036.28125 310.875 1036.148438 308.832031 1034.746094 305.027344 C 1032.324219 300.347656 1035.117188 308.214844 1033.523438 306.960938 C 1032.5 304.792969 1031.894531 305.046875 1030.792969 302.648438 C 1029.273438 299.421875 1028.988281 301.289062 1027.519531 299.152344 C 1026.191406 297.222656 1024.339844 291.789062 1023.851562 293.296875 C 1021.679688 286.753906 1016.441406 280.941406 1016.757812 277.4375 C 1014.972656 274.957031 1013.609375 273.734375 1011.550781 270.695312 C 1008.164062 264.757812 1005.144531 259.519531 1003.261719 255.4375 C 1000.855469 251.597656 1000.734375 252.894531 997.894531 248.292969 C 997.871094 245.984375 994.734375 241.0625 996.046875 239.96875 C 991.558594 233.6875 988.683594 230.941406 985.515625 227.691406 C 984.046875 225.984375 983.375 225.703125 982.8125 225.621094 C 987.105469 231.867188 991.234375 238.222656 995.074219 244.753906 C 1032.476562 308.109375 1047.058594 382.957031 1038.03125 453.484375 C 1035.941406 459.71875 1037.09375 453.757812 1034.996094 455.25 C 1033.894531 462.746094 1036.804688 457.5625 1036.105469 463.542969 C 1034.394531 474.871094 1031.9375 486.597656 1028.757812 498.484375 C 1028.878906 498.140625 1029.019531 497.796875 1029.140625 497.457031 C 1032.445312 488.351562 1035.238281 479.539062 1037.746094 472.445312 C 1038.78125 470.242188 1039.769531 469.90625 1040.765625 469.765625 C 1042.078125 464.460938 1039.328125 468.207031 1039.527344 465.363281 Z M 1039.875 544.273438 L 1038.503906 544.523438 C 1037.113281 546.652344 1035.5625 549.386719 1033.589844 553.421875 C 1034.261719 553.242188 1034.167969 554.09375 1034.054688 554.960938 C 1036.054688 552.167969 1039.070312 547.851562 1039.875 544.273438 Z M 596.957031 731.636719 C 594.703125 730.796875 593.296875 730.070312 591.9375 729.304688 C 591.421875 730.386719 596.714844 732.664062 596.957031 731.636719 Z M 564.667969 716.203125 C 564.667969 716.195312 564.667969 716.191406 564.667969 716.183594 C 556.929688 713.476562 556.429688 711.902344 552.554688 709.34375 C 551.640625 708.734375 552.046875 707.515625 549.210938 706.015625 C 547.578125 706.054688 544.4375 704.957031 544.167969 706.457031 C 543.863281 707.992188 549.207031 712.546875 547.148438 713.636719 C 551.988281 716.679688 549.324219 714.109375 554.1875 717.082031 C 550.023438 712.015625 548.722656 709.519531 552.125 709.035156 C 558.605469 713.605469 560.800781 713.8125 564.667969 716.203125 Z M 433.078125 637.363281 C 431.394531 637.628906 436 643.164062 438.460938 646.6875 C 439.027344 645.503906 435.800781 641.339844 433.078125 637.363281 Z M 368.476562 318.5 C 368.550781 323.097656 369.316406 325.625 370.40625 327.058594 C 371.546875 323 372.796875 318.667969 374.109375 314.402344 C 373.761719 313.894531 373.476562 313.226562 373.175781 312.59375 C 372.796875 309.683594 371.328125 316.671875 370.953125 317.226562 C 370.121094 318.351562 369.996094 313.519531 368.476562 318.5 Z M 568.230469 96.257812 C 567.089844 96.816406 565.867188 97.488281 564.640625 98.171875 C 565.917969 97.570312 567.207031 96.972656 568.492188 96.394531 C 568.410156 96.3125 568.335938 96.210938 568.230469 96.257812 Z M 571.660156 94.753906 C 571.34375 94.894531 570.691406 95.285156 570.070312 95.664062 C 570.671875 95.398438 571.269531 95.117188 571.878906 94.851562 C 571.824219 94.773438 571.777344 94.707031 571.660156 94.753906 Z M 574.875 93.582031 C 576.613281 92.839844 578.34375 92.085938 580.105469 91.371094 C 580.605469 91.023438 581.167969 90.652344 582.0625 90.21875 C 583.738281 89.402344 585.613281 88.582031 587.566406 87.78125 L 582.820312 89.238281 C 581.371094 89.632812 577.695312 91.996094 574.875 93.582031 Z M 592.777344 81.507812 C 594.960938 80.507812 596.472656 80.023438 597.960938 79.597656 C 597.566406 78.472656 592.222656 80.613281 592.777344 81.507812 Z M 622.859375 75.875 C 621.023438 76.363281 619.152344 76.984375 617.265625 77.667969 C 618.371094 77.328125 619.476562 76.984375 620.511719 76.667969 C 622.390625 76.859375 622.996094 76.921875 623.003906 77.1875 C 628.199219 75.851562 633.441406 74.675781 638.714844 73.585938 C 642.898438 72.230469 641.710938 71.257812 648.363281 69.835938 C 651.726562 70.253906 658.632812 68.164062 668.984375 66.714844 C 675.84375 65.761719 683.109375 65.078125 691.113281 63.867188 C 691.785156 64.886719 694.265625 66.035156 691.632812 66.835938 C 691.609375 66.894531 691.664062 66.953125 691.664062 67.015625 C 696.523438 66.804688 701.375 66.695312 706.199219 66.695312 C 706.777344 66.339844 707.4375 65.953125 707.6875 65.613281 C 711.199219 64.8125 710.292969 65.492188 715.734375 65.261719 C 720.886719 65.0625 717.890625 63.800781 720.347656 63.261719 C 726.605469 62.828125 725.285156 64.164062 729.292969 64.3125 C 736.503906 64.660156 737.519531 64.015625 740.882812 63.773438 C 748.355469 64.675781 751.402344 63.945312 757.609375 65.476562 C 764.144531 65.171875 769.9375 66.882812 777.546875 67.234375 C 777.824219 67.628906 780.179688 67.878906 781.800781 68.207031 C 785.480469 69.679688 787.25 71.292969 791.542969 72.816406 C 797.277344 73.660156 801.703125 74.964844 805.402344 75.523438 C 809.261719 76.132812 807.558594 74.707031 812.722656 76.015625 L 813.28125 77.308594 C 817.71875 78.125 817.9375 77.140625 822.382812 78.046875 C 832.078125 80.371094 837.65625 82.734375 845.875 85.488281 C 847.800781 87 851.328125 88.734375 850.699219 89.960938 C 852.316406 90.894531 853.222656 91.050781 856.519531 92.484375 C 858.492188 93.355469 860.753906 94.660156 864.15625 95.851562 C 865.652344 96.375 865.898438 96.144531 867.78125 96.925781 C 870.019531 97.671875 871.441406 97.9375 871.15625 97.113281 C 872.417969 97.277344 874.382812 97.863281 876.519531 98.621094 C 885.582031 102.726562 882.355469 102.957031 884.476562 104.742188 C 889.746094 107.265625 896.285156 110.332031 899.003906 112.449219 C 903.5625 114.839844 901.265625 111.984375 905.847656 114.445312 C 920.386719 122.550781 932.484375 131.136719 940.265625 138.371094 C 940.53125 138.515625 940.800781 138.707031 941.070312 138.859375 C 925.242188 124.460938 909.3125 112.707031 892.226562 102.398438 C 874.695312 91.875 855.882812 82.824219 833.984375 75.328125 C 832.152344 74.273438 832.429688 73.242188 828.488281 71.882812 C 826.523438 71.230469 825.449219 70.886719 824.976562 70.363281 C 821.953125 69.972656 816.3125 68.339844 815.277344 69.046875 C 806.96875 66.308594 805.382812 63.699219 793.695312 61.476562 C 790.117188 60.839844 793.933594 63.210938 791.039062 62.851562 C 787.585938 62.09375 785.726562 61.605469 783.726562 60.71875 C 782.332031 60.117188 782.882812 59.472656 781.265625 58.78125 C 778.035156 57.40625 775.429688 56.058594 769.738281 55.1875 C 768.332031 55.011719 768.210938 55.441406 768.359375 55.757812 C 768.804688 56.679688 771.253906 57.425781 774.609375 58.503906 L 775.722656 60.949219 C 771.859375 60.472656 767.992188 60.875 764.085938 60.558594 C 759.527344 60.203125 755.347656 59.039062 748.15625 58.773438 C 745.605469 58.710938 745.183594 58.953125 743.117188 58.878906 C 743.027344 58.871094 739.585938 58.4375 735.886719 58.171875 C 732.1875 57.882812 728.222656 57.792969 727.136719 58.140625 C 725.375 58.710938 723.914062 58.089844 718.382812 58.28125 C 715.558594 58.394531 715.640625 58.714844 713.394531 58.839844 C 709.058594 59.101562 702.699219 59.351562 697.71875 59.9375 C 695.042969 60.253906 691.472656 60.984375 689.339844 61.222656 C 689.554688 61.203125 688.425781 60.972656 687.328125 61.089844 C 686.765625 61.15625 684.300781 61.582031 683.871094 61.554688 C 681.128906 61.441406 682.234375 61.644531 676.992188 62.585938 C 667.589844 64.304688 657.414062 66.050781 648.082031 68.628906 C 645.5625 68.0625 644.484375 67.832031 644.105469 66.957031 C 643.46875 65.550781 648.757812 63.789062 647.621094 62.148438 C 646.746094 60.851562 639.5 61.667969 640.175781 59.449219 C 634.605469 60.726562 637.792969 61.175781 632.257812 62.515625 C 638.78125 63.144531 640.4375 65.015625 638.390625 67.773438 C 630.570312 69.132812 628.082031 71.335938 622.414062 73.640625 C 623.492188 74.246094 624.328125 74.886719 622.859375 75.875 Z M 764.835938 29.226562 C 765.269531 30.464844 770.496094 31.125 775.242188 32 C 776.234375 30.625 769.054688 29.976562 764.835938 29.226562 Z M 991.433594 152.746094 C 991.601562 154.253906 995.097656 158.292969 995.984375 160.433594 C 999.503906 164.78125 997.609375 164.90625 1001.53125 169.71875 C 1007.113281 175.382812 1007.742188 171.769531 1009.585938 170.332031 C 1009.507812 169.511719 1008.488281 167.914062 1007.476562 166.339844 C 1005.679688 165.289062 1004.925781 166.113281 1000.761719 160.910156 C 998.3125 157.902344 999.527344 157.757812 996.003906 154.019531 C 995.929688 155.996094 991.792969 151.222656 991.433594 152.746094 Z M 1011.503906 174.800781 C 1015.027344 179.597656 1018.84375 185.554688 1018.761719 183.054688 C 1018.140625 180.835938 1014.210938 174.816406 1012.070312 173.035156 Z M 1016.335938 267.703125 C 1019.910156 273.8125 1021.730469 275.601562 1022.925781 275.378906 C 1022.023438 272.578125 1017.910156 265.539062 1016.308594 264.011719 C 1015.546875 264.457031 1015.746094 265.875 1016.335938 267.703125 Z M 980.453125 210.824219 C 976.480469 206.359375 975.8125 207.210938 974.863281 207.515625 C 979.496094 212.910156 978.378906 209.398438 980.453125 210.824219 Z M 977.585938 218.238281 C 977.289062 216.878906 976.230469 214.589844 975.214844 212.894531 C 972.925781 210.410156 971.46875 209.25 970.433594 208.753906 C 972.882812 211.867188 975.253906 215.035156 977.585938 218.238281 Z M 994.898438 474.773438 C 992.863281 486.941406 988.519531 500.734375 983.394531 513.980469 C 978.308594 527.265625 972.4375 540 968.238281 551.0625 C 974.113281 538.199219 971.503906 549.269531 975.335938 542.734375 C 975.539062 536.480469 981.769531 523.027344 986.765625 509.027344 C 991.882812 495.085938 995.703125 480.664062 994.898438 474.773438 Z M 998.570312 499.351562 C 996.378906 502.882812 994.238281 511.039062 991.980469 517.527344 C 991.441406 519.109375 990.898438 520.585938 990.371094 521.878906 C 990.191406 522.621094 989.773438 523.765625 988.941406 525.585938 C 988.585938 525.890625 988.339844 526.042969 988.128906 526.109375 C 987.390625 526.925781 986.753906 526.9375 986.246094 525.738281 C 983.496094 534.238281 981.660156 536.902344 981.542969 539.210938 C 983.921875 536.796875 982.394531 540.738281 980.277344 545.582031 C 978.183594 550.421875 975.433594 556.101562 976.074219 557.496094 C 981.179688 548.929688 979.214844 551.441406 983.707031 541.308594 C 985.96875 540.632812 988.398438 539.011719 991.042969 534.78125 C 992.964844 527.105469 984.808594 541.382812 987.160156 533.089844 C 992.6875 521.804688 996.867188 509.332031 998.570312 499.351562 Z M 891.855469 136.90625 C 891.078125 135.878906 890.078125 134.804688 889.128906 134.039062 C 886.15625 132.683594 883.390625 131.339844 880.707031 129.984375 C 884.46875 132.21875 888.183594 134.523438 891.855469 136.90625 Z M 973.390625 207.039062 C 974.152344 206.519531 971.242188 203.589844 972.574219 203.449219 C 968.480469 198.75 968.371094 199.996094 965.816406 197.644531 C 962.875 194.761719 961.015625 191.886719 959.273438 189.796875 C 957.339844 187.457031 955.511719 185.496094 953.910156 183.375 C 948.644531 178.925781 948.652344 180.859375 940.894531 173.800781 C 939.566406 173.128906 939.285156 173.660156 939.222656 174.445312 C 941.917969 177.023438 944.585938 179.632812 947.195312 182.304688 C 947.40625 182.382812 947.628906 182.480469 947.792969 182.515625 C 950.285156 184.921875 953.5625 187.859375 954.632812 189.605469 C 955.460938 190.074219 956.433594 190.976562 957.4375 191.683594 C 959.5 193.121094 959.480469 193.296875 961.496094 195.53125 C 965.566406 200.179688 966.769531 200.132812 973.390625 207.039062 Z M 967.972656 559.40625 C 967.042969 560.730469 966.269531 562.027344 965.761719 563.28125 C 965.976562 563.265625 966.136719 563.402344 966.234375 563.75 C 967.1875 561.613281 967.699219 560.292969 967.972656 559.40625 Z M 974.347656 550.707031 C 971.289062 556.015625 967.753906 561.335938 965.222656 565.394531 C 965.207031 565.601562 965.132812 565.8125 965.132812 566.015625 C 968.515625 561.246094 975.449219 553.386719 974.347656 550.707031 Z M 964.8125 585.851562 C 967.730469 582.789062 971.46875 576.652344 974.964844 570.136719 C 974.628906 568.394531 971.9375 572.417969 969.320312 576.773438 C 966.726562 581.136719 964.167969 585.84375 964.8125 585.851562 Z M 963.5 578.050781 C 966.949219 573.980469 970.199219 568.664062 971.066406 565.5 C 968.007812 570.917969 965.753906 572.472656 963.496094 574.195312 C 961.222656 575.910156 958.929688 577.78125 955.332031 583.632812 C 956.492188 584.972656 960.0625 582.140625 963.5 578.050781 Z M 690.882812 720.792969 C 696.847656 721.140625 696.714844 720.0625 697.167969 719.175781 C 690.078125 718.648438 693.34375 720.335938 690.882812 720.792969 Z M 860.808594 658.433594 C 858.960938 659.722656 856.71875 661.179688 854.269531 662.722656 C 855.625 662.871094 857.890625 661.972656 860.34375 660.800781 C 859.773438 660.308594 860.273438 659.382812 860.808594 658.433594 Z M 871.59375 649.867188 C 873.179688 648.472656 876.015625 646.449219 875.3125 646.128906 C 868.742188 650.972656 867.050781 652.894531 867.082031 654.035156 C 867.101562 655.160156 868.777344 655.378906 868.609375 656.425781 C 874.089844 652.445312 874.078125 650.964844 881.503906 645.722656 C 880.921875 643.339844 873.023438 651.171875 871.59375 649.867188 Z M 904.542969 614.96875 C 905.359375 613.578125 904.441406 611.566406 900.511719 613.46875 C 900.320312 613.675781 900.148438 613.855469 899.953125 614.070312 C 898.882812 615.207031 897.710938 616.429688 896.5 617.691406 C 896.671875 618.425781 897.859375 618.503906 893.480469 622.050781 C 892.15625 622.8125 891.550781 623.046875 891.285156 622.996094 C 885.222656 629.058594 878.152344 635.769531 870.976562 641.824219 C 868.109375 644.28125 865.230469 646.625 862.460938 648.824219 C 863.84375 649.386719 870.59375 645.039062 878.730469 638.453125 C 887.164062 631.699219 896.859375 622.492188 904.542969 614.96875 Z M 902.40625 629.136719 C 900.414062 629.214844 902.914062 626.472656 901.183594 626.386719 C 894.179688 632.214844 892.855469 637.71875 896.148438 635.019531 C 895.625 633.859375 899.050781 632.578125 902.40625 629.136719 Z M 929.195312 578.203125 L 931.671875 578.34375 C 933.867188 575.003906 937.566406 569.957031 936.882812 569.222656 C 934.203125 572.816406 933.078125 571.113281 929.195312 578.203125 Z M 960.445312 583.523438 C 957.996094 583.226562 953.425781 590.011719 948.714844 595.859375 C 946.261719 596.554688 952.695312 588.835938 951.242188 588.519531 C 944.34375 596.683594 934.792969 605.753906 929.097656 614.117188 C 928.480469 609.992188 938.496094 599.730469 946.101562 586.03125 C 949.398438 581.957031 951.304688 582.101562 954.273438 578.734375 C 956.777344 572.9375 958.925781 567.664062 965.621094 556.210938 C 959.859375 562.820312 952.96875 574.644531 943.878906 587.355469 C 934.859375 600.066406 923.519531 613.578125 910.964844 623.578125 C 907.695312 628.929688 902.09375 634.097656 895.597656 639.058594 C 889.089844 644.019531 881.71875 648.761719 874.820312 653.625 C 873.441406 654.601562 871.988281 655.625 870.515625 656.671875 C 870.722656 656.699219 870.917969 656.726562 871.082031 656.816406 C 852.15625 670.570312 834.191406 681.398438 815.308594 690.488281 C 796.414062 699.488281 776.527344 706.773438 753.328125 711.421875 C 749.949219 712.089844 746.542969 712.667969 743.132812 713.226562 C 743.101562 713.824219 744.460938 714.355469 743.644531 714.902344 C 742.625 715.59375 735.546875 716.597656 733.992188 717.65625 C 730.519531 717.722656 726.125 717.964844 724.136719 717.496094 C 723.21875 717.757812 721.894531 717.796875 720.675781 718.011719 C 718.210938 718.453125 718.097656 718.320312 715.101562 718.160156 C 708.929688 717.769531 708.113281 718.660156 698.554688 718.472656 C 698.378906 719.371094 702.507812 719.378906 701.664062 720.421875 C 707.882812 720.84375 707.078125 719.882812 710.542969 719.734375 C 714.667969 719.691406 718.019531 720.410156 720.722656 720.644531 C 723.753906 720.929688 726.429688 721.015625 729.054688 721.375 C 735.933594 720.785156 734.558594 719.433594 745.035156 718.910156 C 747.230469 718.195312 745.589844 717.207031 744.828125 716.289062 C 752.5 715.214844 754.203125 716.183594 757.433594 716.597656 C 765.101562 714.496094 758.769531 713.15625 756.800781 711.367188 C 760.410156 710.015625 766.46875 708.910156 772.480469 707.964844 C 779.269531 706.882812 782.226562 707.554688 786.671875 706.832031 C 788.097656 706.5625 788.914062 706.335938 789.410156 706.125 C 787.875 706.34375 786.425781 706.484375 785.203125 706.464844 C 794.324219 703.769531 802.269531 700.65625 803.515625 698.621094 C 806.792969 697.503906 805.761719 698.511719 804.210938 699.121094 C 805.691406 700.589844 808.9375 699.28125 812.328125 697.824219 C 815.714844 696.339844 819.246094 694.71875 821.554688 695.699219 C 820.449219 696.175781 819.339844 696.632812 818.226562 697.097656 C 820.144531 696.589844 821.972656 696.148438 823.628906 695.78125 C 823.992188 696.699219 822.476562 697.945312 820.277344 699.28125 C 825.507812 697.078125 831.300781 695.140625 832.175781 696.183594 C 834.578125 694.933594 837.011719 693.621094 839.457031 692.289062 C 839.46875 692.191406 839.46875 692.101562 839.578125 691.96875 C 839.84375 691.65625 841.203125 691.339844 840.894531 691.011719 C 840.65625 690.78125 842.414062 689.964844 841.8125 689.796875 C 843.355469 689.335938 844.972656 688.878906 847.257812 687.816406 C 849.988281 686.550781 851.726562 684.617188 854.40625 683.246094 C 855.867188 682.503906 857.855469 681.457031 859.96875 680.386719 C 874.9375 671.121094 890.003906 660.445312 904 648.386719 C 926.855469 628.890625 946.652344 605.871094 960.445312 583.523438 Z M 836.460938 695.558594 C 830.363281 698.503906 823.632812 701.632812 816.539062 704.214844 C 816.140625 704.492188 815.757812 704.75 815.453125 704.972656 C 810.9375 706.515625 809.496094 706.207031 805.6875 707.222656 C 805.246094 707.8125 804.234375 708.445312 802.921875 709.042969 C 803.058594 709.519531 803.886719 709.886719 804.996094 710.109375 C 809.207031 708.664062 813.066406 707.175781 816.703125 705.785156 C 823.683594 703.109375 829.90625 700.789062 836.5625 699.304688 C 835.191406 698.820312 834.085938 699.398438 834.773438 697.992188 C 833.035156 697.851562 836.433594 696.46875 837.085938 695.847656 C 837.269531 695.683594 836.769531 695.632812 836.460938 695.558594 Z M 789.589844 711.546875 L 790.945312 712.761719 C 793.164062 712.230469 794.488281 711.660156 794.949219 711.246094 C 793.414062 711.433594 792.089844 711.421875 791.289062 711.125 C 790.753906 711.238281 790.230469 711.363281 789.589844 711.546875 Z M 836.777344 699.402344 C 831.082031 702.113281 825.277344 704.628906 819.5 706.914062 C 822.976562 705.785156 826.375 704.789062 829.773438 703.941406 C 833.636719 702.222656 833.253906 701.296875 837.042969 699.515625 C 836.960938 699.464844 836.863281 699.441406 836.777344 699.402344 Z M 912.800781 646.550781 C 902.835938 654.121094 889.703125 663.261719 877.664062 670.882812 C 875.164062 672.492188 872.734375 674.019531 870.394531 675.496094 C 872.5625 674.472656 874.804688 673.375 876.257812 672.589844 C 878.953125 671.148438 881.492188 669.433594 884.132812 667.914062 C 889.136719 665.035156 894.667969 661.71875 900.257812 658.101562 C 905.246094 654.320312 909.824219 650.355469 912.800781 646.550781 Z M 370.449219 378.347656 C 370.316406 379.957031 370.285156 381.847656 370.195312 383.5 C 370.449219 382.632812 370.675781 381.527344 370.847656 379.867188 C 370.910156 373.5 368.992188 373.585938 367.035156 373.71875 C 366.535156 377.753906 366.890625 383.390625 367.515625 388.511719 C 368.394531 387.597656 367.734375 380.917969 368.183594 378.097656 C 369.089844 377.160156 369.957031 376.484375 370.449219 378.347656 Z M 994.949219 537.246094 C 983.003906 564.667969 966.726562 591.445312 946.292969 615.761719 C 937.242188 626.558594 927.328125 636.824219 916.722656 646.488281 C 918.1875 645.386719 919.679688 644.234375 921.210938 643.039062 C 924.15625 640.804688 932.972656 633.875 937.28125 630.097656 C 941.675781 626.277344 944.59375 623.550781 946.914062 621.339844 C 954.28125 612.765625 961.316406 603.777344 967.875 594.359375 C 980.566406 576.128906 991.523438 556.398438 1000.074219 535.820312 C 1008.636719 515.253906 1014.804688 493.871094 1018.261719 472.632812 L 1019.820312 471.894531 C 1019.648438 479.382812 1017.28125 493.292969 1012.941406 507.292969 C 1008.6875 521.324219 1002.457031 535.316406 997.292969 543.703125 C 990.457031 562.375 977.015625 587.566406 957.046875 612.464844 C 957.109375 612.417969 957.148438 612.386719 957.21875 612.328125 C 958.011719 611.667969 958.726562 610.695312 958.917969 611.050781 C 962.746094 609.609375 957.144531 615.355469 958.699219 615.644531 C 960.753906 613.117188 962.757812 610.601562 964.679688 608.089844 C 965.070312 606.433594 968.109375 602.652344 967.863281 601.457031 C 970.445312 598.4375 973.359375 595.066406 974.386719 592.902344 C 974.261719 593.175781 975.714844 590.5625 975.082031 591.4375 C 976.773438 589.054688 977.503906 589 978.882812 587.117188 C 979.773438 585.898438 979.53125 585.65625 980.636719 584.160156 C 981.984375 582.308594 982.859375 581.394531 984.039062 579.957031 C 988.511719 572.679688 992.328125 565.8125 995.5 559.636719 C 1002.085938 545.738281 1004.308594 535.230469 1010.535156 527.183594 L 1017.714844 499.011719 C 1020.445312 488.28125 1022.765625 479.128906 1024.640625 480.871094 C 1026.414062 471.753906 1025.988281 471.507812 1025.734375 471.058594 C 1025.40625 470.605469 1025.261719 469.945312 1026.613281 459.914062 C 1027.351562 465.242188 1026.511719 465.726562 1028.90625 458.671875 C 1028.640625 449.570312 1027.050781 459.15625 1027.683594 450.554688 C 1028.757812 444.679688 1029.09375 449.320312 1029.9375 449.246094 C 1029.675781 447.03125 1029.503906 441.359375 1030.695312 439.828125 C 1030.710938 435.585938 1029.4375 440.363281 1028.988281 443.878906 C 1027.535156 438.015625 1030.972656 426.636719 1029.273438 419.328125 C 1030.425781 417.628906 1030.480469 421.414062 1031.382812 420.960938 C 1031.800781 415.4375 1031.65625 412.789062 1031.578125 410.035156 C 1031.449219 407.277344 1031.382812 404.410156 1031.484375 398.425781 C 1030.140625 407.921875 1031.207031 413.878906 1028.378906 407.371094 C 1027.164062 414.339844 1027.453125 427.46875 1026.589844 440.03125 C 1025.820312 452.574219 1023.949219 464.464844 1021.101562 468.472656 C 1023.230469 463.972656 1022.433594 457.992188 1020.796875 465.789062 C 1020.574219 461.753906 1021.960938 449.664062 1022.917969 437.945312 C 1023.945312 426.230469 1024.566406 414.890625 1025.691406 412.523438 C 1024.109375 412.351562 1024.0625 403.675781 1023.484375 395.050781 C 1022.964844 386.417969 1021.933594 377.878906 1020.328125 378.023438 C 1022.539062 401.757812 1022.355469 427.730469 1018.425781 454.757812 C 1014.535156 481.769531 1006.910156 509.816406 994.949219 537.246094 Z M 1018.234375 425.234375 C 1019.15625 423.414062 1020.226562 422.019531 1020.085938 416.527344 C 1017.949219 415.777344 1018.691406 425.761719 1016.492188 424.96875 C 1016.550781 429.390625 1015.8125 436.199219 1016.75 436.542969 C 1016.527344 429.300781 1017.292969 427.058594 1018.234375 425.234375 Z M 1086.175781 435.355469 C 1085.988281 437.621094 1085.726562 443.945312 1085.496094 447.984375 C 1085.273438 451.660156 1085.28125 454.140625 1084.53125 456.554688 C 1085.195312 464.621094 1083.308594 475.605469 1081.199219 489.101562 C 1079.855469 497.835938 1078.304688 508.320312 1076.617188 515.140625 C 1076.515625 515.539062 1076.179688 515.558594 1075.800781 517.304688 C 1075.683594 517.8125 1075.53125 518.765625 1075.386719 519.265625 C 1074.851562 521.210938 1073.667969 525.128906 1072.316406 529.457031 C 1071.128906 533.234375 1071.355469 534.988281 1070.257812 539.027344 C 1070.363281 538.652344 1069.609375 539.992188 1069.289062 541.121094 C 1068.613281 543.507812 1067.878906 546.527344 1067.050781 548.855469 C 1066.875 549.355469 1066.585938 549.183594 1066.03125 550.9375 C 1065.023438 554.054688 1064.679688 554.316406 1063.765625 556.832031 C 1062.289062 560.90625 1061.496094 563.878906 1059.828125 568.242188 C 1058.175781 572.46875 1055.941406 576.859375 1053.847656 581.613281 C 1051.292969 587.464844 1048.042969 595.839844 1045.199219 598.445312 C 1043.15625 602.703125 1043.457031 603.625 1040.347656 609.167969 C 1038.703125 610.925781 1036.269531 615.539062 1034.261719 618.226562 C 1028.875 628.34375 1023.757812 636.039062 1018.234375 643.984375 C 1017.039062 645.070312 1015.433594 647.277344 1013.933594 649.007812 C 1013.199219 649.851562 1011.324219 651.578125 1010.714844 652.3125 C 1009.179688 654.140625 1007.585938 656.90625 1006.011719 658.792969 C 1005.433594 659.507812 1003.042969 661.539062 1002.683594 661.980469 C 1000.515625 664.613281 997.652344 668.664062 995.273438 671.394531 C 994.667969 670.925781 991.199219 675.945312 989.226562 677.484375 C 987.4375 678.902344 986.246094 680.542969 983.511719 683.457031 C 980.667969 686.476562 979.890625 686.539062 976.3125 690.742188 C 974.398438 692.96875 974.828125 692.867188 972.167969 695.070312 C 969.71875 697.054688 968.25 699.109375 963.203125 703.429688 C 962.671875 703.878906 962.746094 703.375 961.300781 704.710938 C 959.351562 706.535156 958.152344 706.671875 956.023438 708.609375 C 955.621094 708.960938 954.9375 709.632812 954.527344 709.957031 L 946.160156 716.308594 C 941.039062 720.222656 934.644531 724.570312 930.023438 726.929688 C 926.660156 729.660156 923.644531 731.492188 920.023438 733.855469 C 917.902344 735.226562 913.320312 738.292969 911.457031 739.328125 C 910.339844 739.96875 908.996094 740.265625 907.269531 741.195312 C 905.617188 742.101562 904.070312 743.375 903.527344 743.164062 C 899.417969 745.753906 894.765625 748.871094 891.285156 750.191406 C 889.582031 750.867188 888.164062 751.707031 885.71875 752.945312 C 884.410156 753.601562 883.855469 753.574219 883.589844 753.703125 C 878.929688 756.023438 876.691406 757.566406 872.707031 759.054688 C 871.984375 759.335938 867.671875 761.304688 867.011719 761.464844 C 865.796875 761.804688 858.808594 764.367188 853.6875 766.820312 C 852.523438 766.777344 849.878906 767.832031 848.878906 767.660156 C 839.097656 771.921875 835.3125 771.859375 825.734375 775.320312 C 822.925781 775.070312 815.730469 777.363281 812.320312 777.289062 C 793 783.089844 774.230469 786.035156 768.824219 783.324219 C 770.722656 782.996094 772.640625 782.65625 774.535156 782.296875 C 770.429688 781.34375 780.234375 779.308594 773.765625 779.371094 C 768.59375 780.511719 773.261719 781.359375 765.9375 782.664062 C 761.691406 783.46875 758.695312 783.675781 757.675781 783.15625 C 751.875 784.140625 756.367188 782.824219 755.152344 782.742188 C 754.03125 782.679688 749.546875 783.074219 746.90625 782.972656 C 743.617188 782.878906 742.765625 782.476562 740.277344 782.511719 C 739.183594 782.511719 737.605469 782.792969 736.46875 782.832031 C 735.863281 782.855469 733.476562 782.6875 734.265625 782.613281 C 733.222656 782.71875 730.675781 783.617188 731.039062 783.601562 C 725.023438 783.761719 724.160156 782.164062 718.71875 783.042969 C 716.9375 782.59375 719.859375 782.496094 722.964844 782.511719 C 726.066406 782.503906 729.347656 782.570312 728.257812 782.625 C 730.5 782.53125 738.402344 780.980469 741.300781 781.277344 C 741.507812 781.304688 741.347656 781.628906 741.597656 781.625 C 742.339844 781.621094 744.855469 781.207031 745.394531 781.25 C 748.5 781.5625 754.078125 780.027344 757.074219 780.199219 C 759.417969 780.347656 761.085938 779.84375 764.933594 779.390625 C 767.617188 779.089844 773.210938 778.363281 780.28125 776.9375 C 781.84375 776.613281 782.445312 776.878906 784.355469 776.449219 C 784.128906 776.496094 784.730469 775.988281 785.875 775.71875 C 787.101562 775.429688 789.472656 775.253906 791.792969 774.714844 C 795.242188 773.910156 799.722656 773.414062 803.589844 772.390625 C 808.488281 771.097656 810.917969 769.488281 817.84375 767.660156 C 819.394531 767.230469 821.316406 767.050781 823.632812 766.097656 C 823.984375 765.953125 826.203125 764.859375 825.0625 765.203125 C 829.429688 763.875 831.910156 763.621094 835.144531 762.675781 C 840.824219 759.238281 849.164062 757.136719 856.625 753.921875 C 863.75 750.863281 870.46875 747.015625 878.695312 742.648438 C 879.699219 742.894531 881.1875 742.710938 883.6875 741.550781 C 883.890625 743.15625 884.339844 743.386719 887.453125 743.285156 C 894.117188 739.570312 894.816406 738.136719 901.808594 733.984375 C 904.632812 731.113281 904.296875 729.558594 905.933594 727.175781 C 910.402344 723.96875 911.730469 724.207031 916.136719 720.878906 C 916.648438 721.597656 916.082031 722.847656 915.652344 724.019531 C 913.863281 726.335938 919.847656 722.449219 920.503906 722.324219 C 921.882812 722.117188 918.554688 725.617188 923.148438 723.175781 C 926.988281 719.226562 928.042969 716.640625 927.910156 714.753906 C 933.285156 711.160156 935.761719 707.136719 938.277344 706.214844 C 940.007812 703.925781 943.800781 700.328125 945.09375 698.195312 C 951.019531 693.765625 952.378906 691.25 958.855469 685.003906 C 961.960938 683.425781 962.527344 683.976562 960.679688 686.910156 C 964.292969 685.183594 969.320312 679.640625 973.410156 674.433594 C 972.144531 674.457031 967.886719 679.636719 965.566406 681.304688 C 964.261719 681.324219 963.171875 681.191406 964.144531 679.523438 C 967.109375 677.011719 970.898438 672.859375 971.589844 674.207031 C 974.339844 669.59375 978.027344 666.609375 981.851562 661.070312 C 984.757812 657.074219 985.105469 658.265625 986.8125 656.683594 C 989.558594 653.171875 992.246094 649.625 994.859375 646.011719 C 996.828125 644.660156 999.597656 641.289062 1000.933594 641.339844 C 1003.34375 637.644531 1004.84375 634.796875 1006.429688 631.800781 C 1007.835938 628.984375 1006.460938 629.222656 1008.691406 625.441406 C 1015.015625 616.953125 1018.511719 609.226562 1023.730469 603.625 C 1029.890625 593.160156 1033.234375 584.691406 1033.839844 579.722656 C 1034.4375 578.109375 1035.519531 576.039062 1036.046875 574.449219 C 1036.25 573.859375 1036.53125 572.265625 1036.316406 572.800781 C 1037.335938 570.175781 1038.214844 569.304688 1038.863281 567.375 C 1039.828125 564.476562 1039.328125 563.042969 1041.761719 557.265625 C 1041.164062 558.40625 1040.558594 559.539062 1040.007812 560.589844 C 1037.578125 562.589844 1037.84375 562.355469 1037.691406 560.933594 C 1037.644531 560.492188 1040.21875 555.007812 1037.726562 557.664062 C 1040.121094 553.226562 1039.875 552.273438 1041.386719 548.886719 C 1038.867188 551.929688 1036.117188 555.628906 1033.082031 559.960938 C 1030.71875 562.5 1033.796875 555.691406 1031.230469 560.203125 C 1030.066406 561.210938 1028.628906 562.917969 1027.445312 563.902344 C 1024.609375 571.4375 1032.199219 563.058594 1033.882812 564.730469 C 1032.808594 566.773438 1033.90625 566.097656 1034.296875 566.304688 C 1033.539062 568.289062 1032.25 570.957031 1029.707031 574.96875 C 1027.15625 579.628906 1029.074219 579.105469 1025.183594 585.140625 C 1022.511719 587.226562 1019.125 593.59375 1012.835938 601.949219 C 1008.671875 607.480469 1004.019531 613.105469 999.234375 619.632812 C 998.027344 619.390625 995.472656 620.335938 996.761719 617.894531 C 995.992188 616.476562 991.410156 620.027344 992.566406 617.671875 C 997.902344 610.285156 997.679688 613.9375 1002.667969 606.796875 C 1007.648438 600.875 1003.457031 603.648438 1005.59375 600.390625 C 1004.199219 600.4375 999.375 607.902344 996.957031 609.867188 C 993.308594 614.007812 995.535156 612.902344 994.625 614.570312 C 991.554688 618.40625 989.976562 619.28125 987.296875 622.144531 C 986.457031 623.378906 985.238281 625.019531 985.621094 625.226562 C 986.527344 625.726562 988.410156 622.898438 987.476562 625.382812 C 987.273438 625.941406 986.164062 626.785156 986.632812 626.917969 C 987.097656 627.070312 986.15625 629.277344 986.289062 630.132812 C 984.382812 633.1875 984.542969 632.0625 980.863281 636.082031 C 977.363281 639.867188 980.363281 638.644531 979.027344 640.757812 C 974.910156 645.496094 974.902344 643.621094 971.964844 646.351562 C 966.628906 651.21875 966.363281 652.390625 964.160156 654.945312 C 958.242188 659.597656 956.609375 662.269531 951.144531 665.589844 C 946.746094 670.425781 941.449219 673.320312 935.820312 678.46875 C 935.347656 678.390625 933.507812 679.878906 932.136719 680.792969 C 928.492188 682.367188 926.097656 682.476562 921.984375 684.4375 C 917.34375 687.898438 913.296875 690.121094 910.285156 692.34375 C 907.125 694.648438 909.347656 694.453125 904.777344 697.179688 L 903.46875 696.660156 C 899.753906 699.226562 900.292969 700.078125 896.519531 702.585938 C 888.023438 707.8125 882.40625 710.089844 874.65625 713.960938 C 872.226562 714.265625 868.507812 715.539062 868.085938 714.238281 C 866.273438 714.710938 865.53125 715.253906 862.1875 716.566406 C 860.183594 717.359375 857.652344 718.035156 854.410156 719.601562 C 852.984375 720.296875 852.972656 720.628906 851.089844 721.40625 C 848.984375 722.46875 847.785156 723.28125 848.574219 723.667969 C 847.570312 724.441406 845.765625 725.429688 843.722656 726.40625 C 834.414062 729.921875 836.539062 727.476562 833.773438 727.71875 C 828.265625 729.660156 821.472656 732.128906 818.054688 732.566406 C 813.136719 734.109375 816.785156 734.5 811.816406 736.003906 C 795.804688 740.578125 781.183594 743.082031 770.566406 743.484375 C 761.988281 746.03125 749.488281 746.230469 737.820312 746.789062 C 735.875 746.898438 732.75 747.636719 732.050781 747.578125 C 729.574219 747.316406 728.449219 747.675781 721.636719 747.714844 C 717.152344 747.71875 713.25 747.835938 705.152344 747.566406 C 701.503906 747.425781 697.546875 747.21875 693.273438 746.898438 C 692.878906 746.890625 692.480469 746.882812 692.078125 746.867188 C 681.328125 746.589844 670.953125 745.539062 664.632812 743.59375 C 660.347656 742.878906 656.027344 742.089844 651.488281 741.289062 C 647.214844 740.539062 645.019531 740.230469 641.300781 739.171875 C 640.1875 738.859375 641.296875 738.855469 639.105469 738.386719 C 635.699219 737.636719 634.957031 737.953125 631.382812 737.203125 C 628.027344 736.492188 626.804688 735.921875 623.277344 735 C 619.457031 734.003906 613.769531 732.757812 611.496094 732.003906 C 606.992188 730.558594 603.71875 729.007812 599.355469 727.296875 C 598.820312 727.117188 598.269531 726.945312 597.734375 726.773438 C 598.816406 727.382812 599.863281 728.121094 600.832031 728.648438 L 609.460938 733.222656 C 611.296875 734.28125 619.039062 735.703125 621.121094 736.816406 C 621.292969 736.902344 621.027344 737.152344 621.242188 737.234375 C 621.875 737.488281 624.160156 737.953125 624.605469 738.171875 C 624.730469 738.246094 624.570312 738.550781 624.726562 738.601562 C 627.886719 739.699219 631.898438 740.644531 635.011719 741.617188 C 635.613281 741.792969 638.023438 742.210938 638.414062 742.40625 C 638.59375 742.488281 638.335938 742.75 638.558594 742.828125 C 639.214844 743.035156 641.523438 743.359375 641.972656 743.570312 C 644.367188 744.660156 648.507812 745.128906 652.59375 746.40625 C 654.363281 746.976562 655.421875 747.125 657.9375 747.6875 C 659.5 748.003906 661.019531 748.441406 663.316406 748.871094 C 664.242188 749.058594 665.425781 749.554688 665.234375 749.527344 C 666.613281 749.738281 669.101562 749.679688 668.519531 749.566406 C 671.195312 750.078125 673.152344 750.589844 675.878906 751.15625 C 676.824219 751.359375 675.851562 751.519531 677.824219 751.726562 C 678.292969 751.777344 679.125 751.8125 679.574219 751.886719 C 682.148438 752.355469 690.660156 753.679688 697.535156 753.75 C 703.554688 755.222656 712.089844 755.871094 717.351562 757.183594 C 719.722656 758.878906 716.1875 759.621094 716.335938 760.96875 C 714.945312 761.304688 712.550781 761.453125 709.410156 761.445312 C 711.308594 763.800781 699.691406 763.601562 697.390625 765.027344 C 686.90625 764.585938 682.414062 765.296875 674.644531 765.027344 C 671.648438 765.074219 668.707031 765.074219 670.226562 766.445312 C 661.851562 766.195312 651.644531 765.109375 639.832031 762.722656 C 637.242188 760.507812 642.773438 761.574219 644.023438 760.871094 C 642.855469 759.714844 637.046875 759.421875 638.976562 760.628906 C 635.226562 758.949219 637.734375 759.128906 641.105469 759.460938 C 644.46875 759.800781 648.6875 760.234375 648.351562 759.394531 C 652.402344 760.96875 655.414062 760.515625 658.9375 760.785156 C 663.433594 760.582031 664.960938 759.359375 667.929688 758.59375 C 673.5 758.910156 671.050781 760.21875 675.714844 760.597656 C 679.246094 760.605469 676.132812 758.019531 674.046875 757.402344 C 668.226562 756.507812 665.210938 756.367188 662.554688 756.339844 C 659.90625 756.304688 657.617188 756.394531 653.3125 755.691406 C 652.105469 756.433594 646.65625 755.507812 649.242188 757.652344 C 644.511719 757.050781 645.308594 756.160156 641.777344 755.441406 C 638.433594 754.632812 642.050781 756.769531 640.679688 756.75 C 639.988281 756.75 637.496094 756.90625 636.007812 757.277344 C 633.167969 756.761719 632.789062 756.183594 630.507812 755.628906 C 627.894531 755.644531 625.6875 755.84375 626.246094 757.285156 C 622.910156 756.964844 618.050781 755.882812 614.226562 755.183594 C 615.113281 756.957031 615.34375 758.390625 613.859375 758.988281 C 610.867188 758.128906 607.882812 757.21875 604.910156 756.273438 C 603.074219 756.414062 599.796875 755 596.277344 754.179688 C 595.128906 753.902344 593.949219 754.03125 592.980469 753.808594 C 592.347656 753.675781 589.851562 752.542969 589.445312 752.515625 C 587.09375 752.382812 577.027344 748.59375 570.507812 746.058594 C 567.925781 745.085938 564.679688 744.179688 562.066406 743.035156 C 558.976562 741.71875 554.648438 739.425781 551.84375 738.019531 C 548.761719 736.472656 547.371094 736.207031 545.121094 734.484375 C 545.144531 732.488281 545.175781 732.082031 546.367188 731.742188 C 545.09375 729.90625 549.699219 732.707031 551.199219 733.03125 C 549.097656 729.210938 556.363281 732.625 553.738281 728.414062 C 550.488281 726.347656 550.148438 727.265625 548.941406 726.714844 C 547.03125 725.855469 544.308594 723.96875 542.464844 723.113281 C 540.460938 722.171875 539.914062 722.382812 537.714844 721.226562 C 538.148438 723.601562 535.84375 723.621094 534.871094 724.792969 C 535.503906 726.644531 539.746094 729.554688 538.472656 730.804688 C 535.261719 730.308594 525.019531 723.765625 517.453125 718.734375 C 516.472656 716.652344 520.390625 719.285156 517.394531 716.4375 C 512.910156 712.230469 507.878906 712.832031 503.410156 707.042969 C 501.082031 705.785156 500.644531 706.234375 498.785156 705.429688 C 498.328125 705.226562 496.171875 703.261719 495.757812 703.097656 C 494.71875 702.667969 495.386719 703.910156 494.175781 703.28125 C 490.570312 700.210938 483.34375 695.070312 482.359375 693.085938 C 479.558594 690.824219 481.015625 693.894531 476.4375 689.382812 C 474.941406 686.300781 469.523438 680.855469 469.953125 678.757812 C 467.105469 675.71875 466.207031 673.851562 461.976562 669.78125 C 461.019531 668.324219 460.742188 667.304688 461.003906 666.621094 C 457 661.785156 457.519531 663.09375 454.625 659.21875 C 449.410156 654.347656 449.0625 657.335938 443.589844 651.730469 C 444.140625 654.167969 441.113281 650.503906 441.65625 652.929688 C 440.457031 651.96875 438.726562 650.0625 436.625 647.410156 C 436.226562 648.71875 433.042969 644.980469 432.238281 645.515625 C 427.136719 638.199219 422.914062 632.632812 418.828125 627.085938 C 414.757812 621.542969 410.851562 615.992188 406.824219 608.5625 C 406.777344 604.324219 412.316406 614.191406 411.84375 608.878906 C 411.171875 605.550781 408.199219 603.652344 405.96875 598.882812 C 404.847656 594.007812 410.066406 599.695312 411.363281 598.464844 C 415.316406 603.347656 419.691406 608.632812 422.027344 608.882812 C 421.964844 606.175781 418.9375 604.257812 417.484375 600.011719 C 415.300781 596.375 414.921875 597.59375 413.871094 596.792969 C 413.378906 596.410156 412 594.613281 411.601562 594.324219 C 411.34375 594.136719 411.539062 595.558594 411.203125 595.152344 C 409.523438 593.136719 405.71875 589.132812 404.789062 590.503906 C 400.886719 581.6875 399.335938 580.585938 395.730469 574.140625 C 393.53125 573.921875 392.644531 578.515625 389.039062 573.117188 C 386.449219 566.617188 385.621094 566.839844 383.339844 560.9375 C 381.835938 558.695312 379.601562 552.96875 378.285156 551.144531 C 376.246094 545.125 375.511719 541.511719 372.734375 534.023438 C 372.191406 532.550781 371.863281 532.542969 371.28125 530.632812 C 369.722656 525.640625 368.550781 518.347656 365.984375 511.621094 C 366.085938 507.980469 366.839844 507.542969 367.628906 507.234375 C 368.3125 506.96875 368.898438 509.082031 369.753906 509.628906 C 370.988281 510.410156 371.839844 508.730469 372.929688 508.351562 C 375.222656 513.703125 378.167969 523.046875 380.570312 526.285156 C 383.089844 534.949219 385.441406 540.367188 387.808594 545.476562 L 389.386719 543.21875 C 387.792969 537.769531 386.238281 535.664062 385.117188 533.195312 C 383.738281 530.109375 382.621094 527.050781 381.414062 525.203125 C 380.835938 523.464844 380.503906 522.148438 380.246094 520.980469 C 379.015625 517.800781 377.816406 514.480469 376.464844 511.003906 C 375.445312 508.417969 374.1875 505.394531 373.101562 502.496094 C 372.917969 502.367188 372.734375 502.152344 372.535156 501.679688 C 372.308594 500.769531 372.101562 499.921875 371.898438 499.09375 C 371.292969 497.230469 370.875 495.5625 370.730469 494.195312 C 370.546875 493.382812 370.371094 492.585938 370.207031 491.800781 C 369.417969 489.773438 368.789062 488.597656 368.082031 486.820312 C 367.867188 488.289062 367.398438 487.523438 367.585938 490.769531 C 366.59375 490.148438 365.546875 486.003906 364.597656 482.492188 C 364.023438 488.492188 362.148438 484.039062 360.691406 481.910156 C 359.441406 475.183594 361.109375 475.964844 360.015625 469.230469 C 358.75 461.28125 357.359375 457.613281 356.53125 448.84375 C 356.871094 448.488281 356.652344 446.183594 356.648438 444.585938 C 356.921875 443.769531 357.234375 443.0625 357.566406 442.417969 C 357.519531 442.195312 357.472656 441.972656 357.4375 441.753906 C 357.511719 440.136719 357.074219 437.433594 356.910156 435.160156 C 356.839844 434.03125 356.941406 431.492188 356.847656 430.542969 C 356.632812 428.164062 355.800781 425.078125 355.574219 422.636719 C 355.480469 421.71875 355.726562 418.589844 355.671875 418.027344 C 355.335938 414.632812 354.484375 409.746094 354.230469 406.132812 C 354.988281 406.039062 353.886719 400.039062 354.1875 397.546875 C 354.445312 395.289062 354.128906 393.28125 353.988281 389.289062 C 353.863281 385.140625 354.367188 384.546875 353.914062 379.042969 C 353.6875 376.117188 353.460938 376.496094 353.78125 373.054688 C 354.101562 369.929688 353.6875 367.429688 354.179688 360.8125 C 354.242188 360.117188 354.546875 360.523438 354.621094 358.554688 C 354.707031 355.886719 355.457031 354.941406 355.589844 352.0625 C 355.617188 351.535156 355.625 350.566406 355.683594 350.054688 L 357.097656 339.644531 C 357.9375 333.25 359.367188 325.652344 360.960938 320.71875 C 361.40625 316.40625 362.242188 312.980469 363.125 308.75 C 363.648438 306.273438 364.710938 300.875 365.296875 298.8125 C 365.632812 297.574219 366.363281 296.410156 366.921875 294.527344 C 367.445312 292.71875 367.636719 290.722656 368.171875 290.492188 C 369.242188 285.75 370.316406 280.253906 371.839844 276.855469 C 372.566406 275.171875 372.972656 273.582031 373.816406 270.972656 C 374.285156 269.578125 374.695312 269.210938 374.789062 268.929688 C 376.4375 263.988281 376.917969 261.316406 378.683594 257.449219 C 378.992188 256.730469 380.640625 252.28125 380.988281 251.707031 C 381.613281 250.605469 384.726562 243.851562 386.605469 238.488281 C 387.457031 237.699219 388.570312 235.078125 389.410156 234.496094 C 393.289062 224.558594 396.003906 221.917969 400.316406 212.695312 C 402.484375 210.878906 405.9375 204.171875 408.390625 201.804688 C 417.929688 184.027344 429.09375 168.652344 434.824219 166.742188 C 433.71875 168.320312 432.609375 169.910156 431.527344 171.507812 C 435.101562 169.277344 429.617188 177.648438 434.136719 173.023438 C 436.988281 168.5625 433.09375 171.269531 437.335938 165.164062 C 439.761719 161.585938 441.730469 159.3125 442.820312 158.957031 C 446.21875 154.164062 443.988281 158.269531 444.890625 157.464844 C 445.734375 156.71875 448.617188 153.257812 450.546875 151.460938 C 452.941406 149.199219 453.824219 148.882812 455.5625 147.089844 C 456.339844 146.316406 457.25 145.003906 458.019531 144.171875 C 458.433594 143.726562 460.238281 142.152344 459.734375 142.753906 C 460.398438 141.949219 461.550781 139.515625 461.3125 139.78125 C 465.441406 135.402344 467.183594 135.921875 470.402344 131.449219 C 471.980469 130.5 469.980469 132.648438 467.785156 134.835938 C 465.605469 137.03125 463.230469 139.304688 463.957031 138.496094 C 462.445312 140.15625 457.96875 146.84375 455.707031 148.691406 C 455.550781 148.816406 455.429688 148.476562 455.253906 148.648438 C 454.734375 149.179688 453.25 151.253906 452.839844 151.609375 C 450.421875 153.585938 447.582031 158.628906 445.34375 160.621094 C 443.574219 162.175781 442.757812 163.714844 440.363281 166.753906 C 438.683594 168.871094 435.246094 173.347656 431.265625 179.359375 C 430.390625 180.695312 429.773438 180.933594 428.742188 182.589844 C 428.863281 182.390625 428.792969 183.175781 428.179688 184.1875 C 427.515625 185.246094 425.964844 187.058594 424.710938 189.085938 C 422.847656 192.09375 420.035156 195.617188 418.023438 199.074219 C 415.488281 203.472656 414.917969 206.320312 411.316406 212.507812 C 410.53125 213.914062 409.300781 215.40625 408.34375 217.71875 C 408.191406 218.066406 407.402344 220.40625 407.964844 219.363281 C 405.820312 223.386719 404.25 225.324219 402.632812 228.285156 C 401.0625 234.730469 396.667969 242.121094 393.667969 249.679688 C 390.804688 256.886719 388.785156 264.355469 386.066406 273.269531 C 385.183594 273.800781 384.273438 274.984375 383.320312 277.570312 C 382.046875 276.597656 381.566406 276.75 379.4375 279.019531 C 377.363281 286.363281 377.886719 287.871094 375.894531 295.75 C 375.929688 299.683594 377.199219 300.613281 377.761719 303.300781 C 379.863281 297.367188 381.867188 292.449219 383.238281 289.964844 C 384.453125 287.742188 386.023438 286.589844 386.863281 284.082031 C 391.152344 280.398438 388.113281 290.734375 392.894531 284.328125 C 395.902344 274.941406 400.199219 264.769531 397.804688 263.84375 C 401.257812 257.078125 404.710938 251.226562 408.0625 246.191406 L 410.4375 245.933594 C 411.695312 243.503906 412.929688 241.0625 414.246094 238.667969 C 413.058594 239.496094 411.875 240.210938 411.601562 239.390625 C 413.066406 235.515625 413.445312 234.894531 416.820312 230.917969 C 417.300781 229.257812 416.160156 229.390625 416.652344 227.71875 C 419.019531 223.894531 421.609375 221.929688 423.324219 217.746094 C 423.964844 216.246094 423.628906 217.074219 427.953125 211.222656 C 431.898438 205.949219 436.503906 199.242188 441.902344 193.820312 C 442.59375 194.113281 443.046875 194.25 443.328125 194.480469 C 452.433594 182.769531 462.285156 171.714844 472.800781 161.402344 C 473.933594 159.945312 475.152344 158.441406 475.859375 157.3125 C 480.074219 153.84375 482.714844 151.324219 488.046875 146.964844 C 488.089844 146.316406 488.125 145.671875 487.722656 145.34375 C 488.464844 144.128906 490.046875 142.324219 492.269531 140.101562 C 489.257812 139.785156 497.605469 131.707031 498.21875 129.0625 C 505.933594 121.949219 508.605469 118.265625 514.28125 112.957031 C 516.363281 110.796875 518.4375 108.707031 516.394531 108.828125 C 522.480469 103.070312 530.457031 96.601562 540.488281 89.929688 C 543.890625 89.65625 539.222656 92.816406 538.835938 94.195312 C 540.476562 94.191406 544.789062 90.285156 542.582031 90.804688 C 546.417969 89.332031 544.507812 90.980469 541.902344 93.128906 C 539.289062 95.269531 535.996094 97.957031 536.824219 98.304688 C 532.859375 100.070312 531.050781 102.523438 528.371094 104.828125 C 525.339844 108.148438 525.132812 110.105469 523.578125 112.738281 C 519.414062 116.453125 520.226562 113.796875 516.664062 116.84375 C 514.164062 119.335938 518.195312 118.957031 520.101562 117.917969 C 524.847656 114.421875 527.070312 112.386719 528.964844 110.53125 C 530.859375 108.679688 532.414062 106.992188 535.949219 104.441406 C 536.28125 103.0625 540.78125 99.847656 537.4375 100.175781 C 541.199219 97.246094 541.269531 98.441406 544.269531 96.445312 C 547.207031 94.652344 543.140625 95.699219 544.121094 94.746094 C 544.605469 94.261719 546.257812 92.375 547.042969 91.058594 C 549.417969 89.421875 550.089844 89.558594 552.101562 88.332031 C 553.925781 86.46875 555.34375 84.761719 553.929688 84.136719 C 556.519531 82.015625 560.710938 79.328125 563.902344 77.113281 C 562.019531 76.5 560.84375 75.636719 561.46875 74.167969 C 564.191406 72.652344 566.9375 71.1875 569.710938 69.75 C 570.90625 68.355469 574.21875 67.023438 577.277344 65.109375 C 578.289062 64.492188 579.039062 63.570312 579.878906 63.035156 C 580.421875 62.679688 582.984375 61.710938 583.285156 61.445312 C 585.042969 59.878906 594.839844 55.421875 601.234375 52.597656 C 603.746094 51.449219 606.679688 49.792969 609.335938 48.746094 C 612.445312 47.496094 617.125 46.039062 620.101562 45.050781 C 623.367188 43.960938 624.542969 43.164062 627.351562 42.785156 C 628.757812 44.207031 629.015625 44.523438 628.417969 45.605469 C 630.609375 46 625.378906 47.285156 624.097656 48.113281 C 628.28125 49.320312 620.734375 52.0625 625.566406 53.171875 C 629.324219 52.332031 628.910156 51.445312 630.160156 50.976562 C 632.117188 50.230469 635.375 49.640625 637.28125 48.929688 C 639.359375 48.179688 639.597656 47.644531 641.96875 46.898438 C 639.980469 45.527344 641.589844 43.886719 641.453125 42.367188 C 639.699219 41.503906 634.640625 42.460938 634.652344 40.675781 C 637.265625 38.75 649.144531 36.117188 658.042969 34.308594 C 660.203125 35.082031 655.574219 35.996094 659.707031 35.882812 C 665.855469 35.683594 668.980469 31.695312 676.230469 32.625 C 678.773438 31.863281 678.757812 31.234375 680.636719 30.480469 C 681.109375 30.304688 684.023438 30.160156 684.429688 29.988281 C 685.46875 29.550781 684.113281 29.144531 685.414062 28.734375 C 690.136719 28.347656 698.886719 26.859375 700.988281 27.566406 C 704.554688 27.171875 701.359375 26.042969 707.785156 25.984375 C 711.019531 27.101562 718.707031 27.105469 719.890625 28.894531 C 724.046875 29.019531 726.003906 29.707031 731.867188 29.574219 C 733.582031 29.929688 734.496094 30.460938 734.796875 31.125 C 741.050781 31.699219 739.753906 31.140625 744.546875 31.832031 C 751.675781 31.582031 749.804688 29.21875 757.640625 29.308594 C 755.523438 27.972656 760.257812 28.414062 758.144531 27.078125 C 759.6875 26.910156 762.253906 27.039062 765.617188 27.421875 C 764.972656 26.222656 769.871094 26.597656 770.054688 25.652344 C 778.839844 27.214844 785.761719 28.148438 792.570312 29.164062 C 799.378906 30.195312 806.058594 31.351562 814.171875 33.734375 C 817.199219 36.699219 806.304688 33.65625 810.398438 37.070312 C 813.226562 38.941406 816.675781 38.179688 821.628906 39.96875 C 825.878906 42.609375 818.160156 42.292969 818.117188 44.085938 C 811.867188 43.4375 805.035156 42.808594 803.210938 44.28125 C 805.167969 46.152344 808.664062 45.363281 812.695312 47.328125 C 816.816406 48.347656 816.222656 47.222656 817.535156 47.046875 C 818.144531 46.964844 820.402344 47.253906 820.875 47.175781 C 821.195312 47.121094 820.046875 46.257812 820.578125 46.3125 C 823.191406 46.542969 828.707031 46.671875 828.394531 45.050781 C 837.398438 48.511719 839.265625 48.191406 846.390625 50.183594 C 848.089844 48.78125 845.449219 44.910156 851.824219 46.160156 C 858.269531 48.921875 858.6875 48.175781 864.472656 50.734375 C 867.121094 51.242188 872.757812 53.710938 874.980469 54.0625 C 880.679688 56.867188 883.75 58.902344 891.027344 62.21875 C 892.449219 62.882812 892.691406 62.648438 894.457031 63.582031 C 899.09375 66.003906 905.082031 70.328125 911.65625 73.261719 C 914.164062 75.898438 913.941406 76.746094 913.601562 77.519531 C 913.3125 78.191406 911.398438 77.117188 910.40625 77.332031 C 908.972656 77.660156 909.570312 79.441406 909.070312 80.488281 C 903.667969 78.332031 894.964844 73.8125 890.976562 73.230469 C 883.0625 68.902344 877.558594 66.742188 872.269531 64.808594 L 872.753906 67.519531 C 877.742188 70.238281 880.332031 70.625 882.867188 71.574219 C 886.03125 72.78125 888.984375 74.144531 891.148438 74.597656 C 895.320312 76.679688 896.492188 77.960938 899.554688 79.6875 C 903.515625 81.9375 906.128906 82.144531 911 86.09375 C 913.675781 87.175781 911.410156 83.828125 914.078125 84.910156 C 921.742188 89.53125 926.3125 92.261719 933.242188 97.921875 C 935.539062 98.367188 929.242188 93.886719 928.523438 93.171875 C 926.316406 90.847656 928.230469 91.707031 925.296875 89.113281 C 926.433594 88.847656 930.109375 91.03125 933.265625 92.832031 C 929.417969 88.191406 933.894531 90.015625 936.4375 90.480469 C 942.085938 94.351562 940.351562 94.972656 945.898438 98.957031 C 952.410156 103.679688 955.992188 105.277344 962.785156 110.882812 C 962.804688 111.371094 964.585938 112.847656 965.71875 113.96875 C 966.855469 116.222656 967.382812 118.191406 966.75 119.453125 C 959.738281 114.074219 957.230469 114.597656 955.925781 116.390625 C 956.488281 117.9375 963.074219 122.859375 965.949219 125.882812 C 969.941406 129.160156 970.871094 128.46875 972.03125 128.011719 C 973.75 129.492188 975.957031 132.058594 977.582031 133.480469 C 979.953125 135.523438 980.5 134.332031 984.726562 138.664062 C 984.53125 137.324219 981.277344 133.96875 979.503906 131.667969 C 981.488281 132.410156 980.585938 129.082031 982.949219 130.328125 C 986.359375 133.316406 988.898438 136.9375 991.074219 139.394531 C 992.882812 141.402344 995.355469 143.347656 996.402344 145.289062 C 995.75 147.84375 995.21875 150.3125 1001.488281 158.214844 C 1004.652344 162.058594 1004.355469 159.746094 1004.691406 158.582031 C 1005.691406 159.757812 1006.089844 159.621094 1007.277344 161.207031 C 1007.671875 161.734375 1009.066406 163.972656 1008.382812 163.21875 C 1012.140625 167.484375 1011.554688 164.90625 1016.101562 170.886719 C 1017.625 173.382812 1015.746094 172.832031 1017.847656 175.871094 C 1021.414062 181.472656 1019.945312 176.699219 1021.878906 178.96875 C 1023.761719 181.441406 1023.667969 182.265625 1025.082031 184.332031 C 1026.746094 186.796875 1027.773438 187.082031 1029.761719 190.117188 C 1031.03125 192.023438 1032.863281 194.839844 1033.984375 196.878906 C 1034.808594 198.390625 1034.84375 198.9375 1035.863281 200.722656 C 1039.601562 207.285156 1044.40625 215.726562 1048.355469 223.527344 C 1052.304688 231.324219 1055.433594 238.441406 1056.457031 241.960938 C 1057.179688 244.386719 1056.878906 246.3125 1058.066406 248.679688 C 1057.652344 254.320312 1052.472656 244.871094 1053.632812 252.777344 C 1058.15625 261.535156 1062.332031 271.757812 1064.671875 270.71875 C 1067.027344 277.945312 1068.730469 284.519531 1069.929688 290.445312 L 1068.175781 292.632812 C 1068.144531 293.789062 1068.121094 294.945312 1068.605469 297.160156 C 1069.050781 299.316406 1068.359375 299.160156 1068.964844 301.6875 C 1071.179688 306.453125 1070.324219 296.789062 1072.25 297.753906 C 1073.949219 301.53125 1074.136719 302.234375 1074.558594 307.425781 C 1075.402344 308.945312 1076.113281 308.042969 1076.949219 309.566406 C 1077.984375 313.953125 1077.550781 317.175781 1079.300781 321.335938 C 1079.914062 322.855469 1079.570312 322.027344 1080.65625 329.21875 C 1081.609375 335.734375 1083.109375 343.734375 1083.136719 351.382812 C 1081.40625 352.09375 1081.402344 352.5 1079.609375 350.230469 C 1078.730469 349.277344 1079.199219 355.386719 1079.113281 356.996094 C 1079.292969 357.734375 1080.003906 360.433594 1080.003906 360.824219 C 1080.011719 361.046875 1079.664062 360.90625 1079.707031 361.171875 C 1079.820312 361.945312 1080.574219 364.542969 1080.582031 365.128906 C 1080.613281 367.351562 1081.039062 366.859375 1081.8125 371.050781 C 1081.773438 370.859375 1081.652344 372.09375 1081.878906 373.382812 C 1082.609375 377.507812 1082.988281 380.273438 1083.945312 387.640625 C 1084.695312 393.449219 1085.007812 399.714844 1085.542969 406.324219 C 1085.910156 411.0625 1086.03125 412.25 1086.050781 416.660156 C 1086.109375 419.851562 1086.660156 430.640625 1086.175781 435.355469 Z M 898.925781 645.804688 C 891.539062 648.832031 890.359375 651.726562 891.800781 646.382812 C 882.871094 653.136719 883.472656 654.835938 874.164062 661.128906 C 876.238281 661.355469 881.449219 658.890625 886.589844 655.585938 C 891.742188 652.304688 896.800781 648.214844 898.925781 645.804688 Z M 941.625 605.40625 C 931.21875 618.484375 918.378906 632.070312 904.425781 643.804688 C 890.503906 655.570312 875.511719 665.429688 861.90625 672.105469 C 863.753906 668.070312 877.1875 657.507812 890.5625 645.597656 C 897.292969 639.667969 904.050781 633.460938 909.878906 628.089844 C 915.699219 622.71875 920.601562 618.203125 923.832031 615.886719 C 927.472656 613.230469 925.339844 620.613281 931.628906 614.414062 C 922.867188 624.46875 916.496094 628.121094 910.660156 630.941406 C 905.363281 636.21875 910.933594 634.59375 905.507812 639.84375 C 909.597656 638.554688 916.859375 631.785156 923.765625 624.296875 C 930.730469 616.832031 937.292969 608.660156 941.625 605.40625 Z M 856.085938 676.164062 C 858.382812 675.648438 860.996094 674.839844 865.976562 671.121094 C 866.664062 673.679688 859.960938 675.308594 851.5625 680.988281 C 850.617188 678.941406 844.335938 682.636719 847.722656 679.128906 C 851.769531 676.890625 853.78125 676.671875 856.085938 676.164062 " fill-opacity="1" fill-rule="evenodd"/></g></svg>