<svg width="140" height="81" viewBox="0 0 140 81" fill="none" xmlns="http://www.w3.org/2000/svg">
<g clip-path="url(#clip0_316_1834)">
<path d="M139.448 43.3354C134.027 30.9532 128.574 18.5914 123.086 6.2399C121.615 2.91746 118.202 1.63052 114.846 3.06615C109.285 5.44006 103.751 7.86524 98.216 10.2955C96.2179 11.1723 95.0046 12.7053 94.6277 14.8639C94.5709 15.2074 94.4935 15.551 94.4109 15.9458C90.5954 14.8793 86.878 13.8026 83.1452 12.7976C77.1406 11.1774 71.0844 9.99817 64.8165 10.7262C56.7674 11.6594 48.708 11.9414 40.5349 11.4594C40.3284 7.38328 38.9344 5.64515 35.0415 4.59919C29.7649 3.18407 24.4831 1.79459 19.2066 0.389733C14.6425 -0.82542 11.7305 0.815293 10.5172 5.31188C7.10447 17.9608 3.69689 30.6148 0.284145 43.2636C-0.73813 47.0578 1.0586 50.2367 4.84824 51.257C10.605 52.8003 16.3514 54.3744 22.1391 55.7843C23.337 56.0766 24.8446 56.0458 25.9443 55.5587C27.3486 54.9435 28.4793 53.7181 29.8733 52.6413C29.9301 52.6824 30.2864 52.9439 30.6271 53.2207C40.2716 61.1372 49.9316 69.0331 59.5503 76.9803C62.0285 79.0312 64.8527 79.6208 67.9143 79.2004C70.0053 78.9133 72.0551 78.3083 74.1409 77.9391C74.6675 77.8468 75.4523 77.9237 75.7931 78.2519C77.3575 79.7849 79.2988 80.4258 81.3536 80.8309C84.8748 81.523 87.4718 80.0772 88.778 76.7547C88.9432 76.3445 89.0981 75.9292 89.284 75.437C91.5919 75.7498 93.8481 75.8113 95.8513 74.4731C97.8959 73.1093 98.6187 71.0532 98.6239 68.6998C99.0008 68.6998 99.1763 68.6793 99.3519 68.6998C106.41 69.5612 110.137 65.4082 108.527 58.4915C108.465 58.2198 108.583 57.7583 108.785 57.6045C109.621 56.9534 110.525 56.3842 111.392 55.7946C114.01 58.9889 116.514 59.9271 119.446 58.6812C125.1 56.2919 130.727 53.8462 136.329 51.3493C139.51 49.9239 140.847 46.5194 139.448 43.3354ZM26.0269 49.3907C25.3402 51.9389 24.7465 52.2824 22.1495 51.5954C16.8316 50.1854 11.5085 48.7703 6.19578 47.3449C4.23384 46.8219 3.80015 46.0323 4.32678 44.0789C7.65691 31.7428 10.9871 19.4015 14.3224 7.06026C14.4359 6.62957 14.5495 6.19376 14.6838 5.76307C15.1175 4.33257 15.9745 3.79934 17.4563 4.18388C23.2182 5.69129 28.9698 7.22946 34.7214 8.7625C35.7643 9.03937 36.3116 9.72642 36.3994 10.8698C36.0276 12.2747 35.6456 13.7513 35.2532 15.2228C32.1812 26.6104 29.104 37.998 26.0269 49.3907ZM104.463 63.1983C103.632 64.5417 102.274 64.8852 100.808 64.7416C98.9853 64.5622 97.3538 64.0546 95.9753 62.6497C91.406 57.9891 86.7283 53.4309 82.0971 48.8267C81.968 48.7036 81.8441 48.5703 81.715 48.4473C80.5534 47.3295 79.2936 47.2065 78.3849 48.114C77.5278 48.9651 77.6414 50.2162 78.7411 51.3134C81.2142 53.8052 83.7131 56.2714 86.2069 58.7428C88.5715 61.091 90.9155 63.4598 93.3163 65.7671C94.5554 66.9515 94.7206 68.423 94.3024 69.8483C94.1011 70.52 93.1408 71.2481 92.3973 71.4275C90.8536 71.8018 89.3821 71.3865 88.1481 70.2483C83.7802 66.2131 79.3917 62.2036 75.0083 58.189C74.5798 57.7942 74.1564 57.384 73.7072 57.0098C72.6849 56.1586 71.4613 56.1484 70.661 56.9687C69.8195 57.8352 69.9124 59.0812 70.9605 60.0553C74.3991 63.2393 77.8583 66.3977 81.3072 69.5663C82.2365 70.4175 83.1865 71.2532 84.0952 72.1248C84.7148 72.7145 85.6441 73.1554 85.1433 74.3244C84.6321 75.5139 83.9042 76.4573 82.5308 76.5753C81.1368 76.6983 79.8564 76.3753 78.8031 75.355C75.9583 72.5914 73.0928 69.8535 70.2377 67.1053C69.9124 66.7925 69.5975 66.4695 69.267 66.1721C68.2654 65.2748 67.0624 65.2236 66.2415 66.0286C65.3999 66.8592 65.3948 68.0692 66.3344 69.028C67.6252 70.3457 68.9676 71.6121 70.31 72.8785C70.7333 73.2733 71.2341 73.5861 71.7763 73.9963C68.57 75.8011 64.3364 75.5703 61.853 73.5348C51.7851 65.28 41.7482 56.9892 31.6649 48.7498C30.9369 48.1601 30.9834 47.6423 31.1796 46.8937C33.6991 37.3519 36.1928 27.7999 38.6917 18.253C39.1461 16.5303 40.1529 15.6996 42.0425 15.674C45.4295 15.633 48.8164 15.6638 52.4356 15.6638C51.4237 17.8121 50.4531 19.6835 49.658 21.6216C48.2846 24.9594 47.1487 28.3844 47.665 32.0709C48.4498 37.6955 53.8606 40.6846 59.0959 38.3671C60.5622 37.716 61.9149 36.7777 63.2728 35.8958C64.9353 34.8242 66.5048 33.5937 68.1983 32.5734C71.7763 30.4199 75.4678 30.4251 78.9632 32.6451C80.9612 33.9116 82.8819 35.419 84.5082 37.1264C89.7229 42.5971 94.8136 48.1858 99.894 53.7847C101.402 55.4459 102.739 57.2661 104.102 59.0555C105.083 60.3373 105.351 61.7627 104.463 63.1983ZM108.475 52.7952C107.608 53.2617 106.838 53.8975 106.038 54.4513C102.192 50.2418 98.5 46.1246 94.7206 42.0895C91.184 38.3159 87.6938 34.4858 83.93 30.948C81.1058 28.2921 77.6827 26.5232 73.5936 26.5284C70.7746 26.5284 68.2861 27.5641 65.9782 29.0304C64.1144 30.2148 62.3589 31.5633 60.5312 32.7938C59.6329 33.3937 58.719 33.9885 57.7381 34.4346C54.4595 35.9163 51.656 34.1474 51.5424 30.5789C51.4444 27.7127 52.4356 25.0979 53.6128 22.5753C54.5938 20.4628 55.7606 18.4273 56.9636 16.4277C57.2424 15.9611 57.9652 15.5561 58.5332 15.4792C61.0372 15.1613 63.5619 14.9665 66.0815 14.7357C71.5336 14.2384 76.7895 15.3356 81.9938 16.7507C86.305 17.9197 90.5799 19.2169 94.8807 20.4167C95.7791 20.6731 96.3109 21.1345 96.6826 22.0113C100.772 31.6402 104.892 41.2538 109.038 50.8571C109.43 51.7595 109.409 52.2978 108.475 52.7952ZM134.13 47.832C128.843 50.1546 123.551 52.4516 118.254 54.7486C117.887 54.9076 117.489 54.9999 117.262 55.0717C115.904 55.0306 115.378 54.2564 114.954 53.2925C112.11 46.8014 109.239 40.3155 106.379 33.8295C103.973 28.369 101.572 22.9085 99.1608 17.448C98.278 15.4484 98.5877 14.6024 100.565 13.741C105.692 11.5056 110.814 9.2701 115.946 7.05001C117.903 6.20401 118.718 6.51165 119.57 8.43436C124.862 20.4218 130.144 32.4144 135.421 44.4121C136.211 46.2067 135.896 47.0578 134.13 47.832Z" fill="#037A47"/>
<path d="M125.069 37.5723C121.909 37.557 119.374 40.0488 119.364 43.1713C119.353 46.3296 121.821 48.8317 124.981 48.8625C128.084 48.8933 130.686 46.3553 130.727 43.2584C130.763 40.177 128.192 37.5928 125.069 37.5723ZM126.767 43.5353C126.184 43.9352 125.637 44.5761 125.007 44.6736C124.108 44.812 123.494 44.1403 123.494 43.202C123.494 42.2638 124.139 41.6075 125.012 41.7305C125.642 41.8177 126.184 42.4842 126.767 42.8944V43.5353Z" fill="#037A47"/>
<path d="M14.3634 35.7469C11.2243 35.7828 8.71511 38.3259 8.74092 41.4535C8.76674 44.5811 11.3173 47.0678 14.477 47.037C17.6213 47.0114 20.1202 44.4785 20.0995 41.3458C20.084 38.2387 17.4922 35.7161 14.3634 35.7469ZM14.4306 42.9045C13.5115 42.9045 12.7887 42.3302 12.9281 41.4278C13.0314 40.7921 13.6768 40.2434 14.0795 39.6538C14.2963 39.6538 14.508 39.6487 14.7197 39.6487C15.1327 40.2281 15.7936 40.7664 15.902 41.3971C16.0517 42.2892 15.3651 42.8993 14.4306 42.9045Z" fill="#037A47"/>
</g>
<defs>
<clipPath id="clip0_316_1834">
<rect width="140" height="81" fill="white"/>
</clipPath>
</defs>
</svg>
