<svg width="83" height="83" viewBox="0 0 83 83" fill="none" xmlns="http://www.w3.org/2000/svg">
<g clip-path="url(#clip0_320_1894)">
<path d="M41.4299 -0.000175522C64.3572 -0.0883575 82.9533 18.4817 82.9948 41.5076C83.0363 64.383 64.5336 82.9168 41.5648 82.9998C18.6893 83.0828 0.134811 64.6217 -5.60376e-05 41.6477C-0.129735 18.7203 18.404 0.0880065 41.4299 -0.000175522ZM41.4714 77.8438C61.3902 77.8645 77.8231 61.4679 77.8387 41.5491C77.8543 21.5837 61.5613 5.22331 41.5803 5.15069C21.6149 5.08326 5.17156 21.5007 5.15081 41.5232C5.13006 61.4419 21.5008 77.8178 41.4714 77.8386V77.8438Z" fill="#037A47"/>
<path d="M23.6069 62.2514C21.6669 62.2618 20.4323 60.6589 20.868 58.9472C21.0029 58.4233 21.2675 57.9253 21.5061 57.4325C25.1682 49.9319 28.8044 42.4104 32.5547 34.9513C33.0527 33.9657 33.9968 32.9853 34.9772 32.4926C42.5245 28.6955 50.1289 25.0075 57.7333 21.3246C58.4647 20.9718 59.3724 20.6658 60.1453 20.7592C61.9401 20.9718 62.7285 22.8807 61.8519 24.7325C60.3788 27.85 58.833 30.9364 57.3183 34.0332C55.036 38.7016 52.8003 43.4012 50.4246 48.023C49.937 48.967 49.0344 49.9007 48.0903 50.3728C40.4029 54.2268 32.6637 57.9772 24.9348 61.743C24.4472 61.9817 23.9181 62.1269 23.6069 62.2462V62.2514ZM53.8222 29.318C53.7495 29.2454 53.6769 29.1676 53.6095 29.095C48.2978 31.7093 42.9758 34.3029 37.6797 36.9587C37.2543 37.1714 36.9535 37.7472 36.72 38.214C34.3703 42.9499 32.0412 47.6962 29.7122 52.4476C29.5306 52.8211 29.3906 53.2101 29.1105 53.8949C34.7282 51.1249 40.045 48.5157 45.3515 45.8807C45.6316 45.7406 45.8806 45.4294 46.0258 45.1389C48.635 39.8739 51.2286 34.5986 53.8222 29.3232V29.318Z" fill="#037A47"/>
<path d="M41.4973 43.8315C42.7865 43.8315 43.8315 42.7865 43.8315 41.4973C43.8315 40.2082 42.7865 39.1631 41.4973 39.1631C40.2082 39.1631 39.1631 40.2082 39.1631 41.4973C39.1631 42.7865 40.2082 43.8315 41.4973 43.8315Z" fill="#037A47"/>
</g>
<defs>
<clipPath id="clip0_320_1894">
<rect width="83" height="83" fill="white"/>
</clipPath>
</defs>
</svg>
