<svg width="106" height="81" viewBox="0 0 106 81" fill="none" xmlns="http://www.w3.org/2000/svg">
<g clip-path="url(#clip0_320_1876)">
<path d="M21.6259 13.5142C24.2774 11.9713 26.8426 10.852 29.5761 10.1129C29.7916 10.0524 30.0417 9.64618 30.0589 9.39119C30.115 8.44471 30.0676 7.49391 30.0848 6.5431C30.1236 3.96296 31.9042 2.13482 34.4738 2.08728C36.4527 2.04838 38.436 2.04838 40.4149 2.08728C42.9457 2.13482 44.7091 3.93703 44.7608 6.47827C44.7781 7.45501 44.7306 8.43607 44.791 9.4128C44.8082 9.66347 45.0755 10.0222 45.3127 10.1129C47.9124 11.1459 50.5338 12.1356 53.5 13.2765C54.0303 12.6888 54.7805 11.7769 55.6169 10.9514C57.4191 9.16646 59.9714 9.16214 61.7779 10.9168C63.2007 12.2955 64.6062 13.6958 65.9944 15.1133C67.7406 16.8982 67.7535 19.4136 66.0332 21.2287C65.3434 21.9591 64.5932 22.6333 63.912 23.3724C63.7482 23.5539 63.6189 23.9515 63.7051 24.1503C64.8433 26.7477 66.0203 29.3235 67.2663 32.0766C68.1415 32.0766 69.3142 32.0679 70.4869 32.0766C72.9832 32.0938 74.8285 33.9349 74.8457 36.4416C74.8587 38.4253 74.863 40.4134 74.8457 42.3971C74.8242 44.8044 73.0134 46.6412 70.5947 46.7103C69.5901 46.7406 68.5856 46.7449 67.581 46.7103C67.0982 46.693 66.9171 46.8702 66.736 47.324C65.7961 49.6924 64.8217 52.0521 63.7999 54.3859C63.593 54.857 63.5628 55.1293 63.9552 55.488C64.6579 56.1233 65.3132 56.8061 65.9772 57.4847C67.7233 59.2653 67.7707 61.7979 66.0462 63.5958C64.6148 65.0868 63.1403 66.5433 61.6486 67.9738C60.0016 69.5556 57.4665 69.5772 55.8023 67.9997C54.8883 67.1354 54.0907 66.15 53.4957 65.5017C50.4907 66.647 47.8478 67.6497 45.2178 68.6869C45.0109 68.769 44.7996 69.1234 44.7867 69.3611C44.7393 70.3076 44.7781 71.2584 44.7651 72.2092C44.7306 74.8628 42.9759 76.6348 40.3287 76.6607C38.4058 76.678 36.4829 76.678 34.56 76.6607C31.8784 76.6348 30.1064 74.8282 30.0891 72.1357C30.0848 71.2454 30.0546 70.3508 30.1021 69.4605C30.1279 68.9246 29.8994 68.7647 29.4295 68.5788C27.0367 67.628 24.6611 66.634 22.2984 65.6097C21.8845 65.4282 21.656 65.4326 21.3456 65.761C20.6773 66.4698 19.9746 67.1483 19.2675 67.8269C17.4007 69.6204 14.8958 69.6204 13.0289 67.8052C11.6277 66.4439 10.2481 65.0609 8.88137 63.6649C7.11801 61.8627 7.12663 59.3128 8.88999 57.489C9.56688 56.7889 10.2567 56.093 10.9681 55.4275C11.3044 55.1163 11.3389 54.8656 11.106 54.468C9.78245 52.2293 8.78652 49.848 8.12256 47.3327C7.99322 46.8486 7.77334 46.6974 7.29478 46.7146C6.35058 46.7492 5.40207 46.7363 4.45356 46.7146C1.87966 46.6628 0.1163 44.9686 0.0473175 42.3971C-0.00873062 40.3831 -0.013042 38.3692 0.0386947 36.3552C0.103366 33.7967 1.89691 32.0938 4.4665 32.0722C5.41501 32.0636 6.36351 32.042 7.30771 32.0809C7.81214 32.1025 7.95873 31.8821 8.13119 31.4456C9.07107 29.0772 10.0368 26.7131 11.0672 24.3794C11.2828 23.891 11.2828 23.6273 10.9077 23.273C10.2136 22.629 9.54532 21.9591 8.88999 21.2763C7.11801 19.4179 7.10507 16.9544 8.88999 15.1004C10.3041 13.6309 11.7484 12.1874 13.2229 10.7785C14.8311 9.23561 17.3662 9.19671 19.0131 10.718C19.9401 11.5737 20.7463 12.5548 21.6302 13.5056L21.6259 13.5142ZM3.31536 39.3329C3.31536 40.2535 3.30673 41.174 3.31536 42.0946C3.32829 43.1059 3.64733 43.4257 4.66913 43.4387C6.10483 43.4517 7.54052 43.4387 8.97191 43.4473C10.1791 43.456 10.6835 43.8622 10.9379 45.0551C11.6277 48.2964 12.9039 51.2958 14.6931 54.0791C15.3485 55.099 15.2709 55.7559 14.4215 56.6117C13.4126 57.6316 12.3822 58.6343 11.3734 59.6542C10.7008 60.3328 10.6922 60.8428 11.3432 61.504C12.615 62.7876 13.8998 64.0668 15.1889 65.3331C15.9477 66.0765 16.3703 66.0679 17.1506 65.3072C18.194 64.2829 19.2201 63.2327 20.2721 62.2128C21.0136 61.491 21.6776 61.4003 22.5226 61.9448C25.4199 63.8248 28.55 65.1214 31.9258 65.8474C32.9691 66.0722 33.3485 66.5994 33.3572 67.6842C33.3701 69.1537 33.3572 70.6188 33.3658 72.0882C33.3744 73.039 33.715 73.3977 34.6592 73.402C36.4959 73.415 38.3325 73.4107 40.1692 73.3977C41.1479 73.3891 41.4497 73.0822 41.4583 72.1012C41.4712 70.662 41.4583 69.2228 41.4712 67.7836C41.4798 66.6167 41.8722 66.0679 42.9975 65.8302C46.3215 65.1257 49.3913 63.8378 52.2454 62.001C53.1896 61.396 53.8234 61.4781 54.6339 62.269C55.6816 63.2932 56.7077 64.3391 57.7554 65.3634C58.484 66.0765 58.9151 66.0765 59.6524 65.3504C60.9415 64.0798 62.222 62.8049 63.4981 61.517C64.1837 60.8255 64.1837 60.376 63.4981 59.6759C62.4893 58.6559 61.4632 57.6532 60.45 56.6333C59.5791 55.7559 59.4885 55.1206 60.1482 54.1093C61.9503 51.3304 63.205 48.3267 63.925 45.0939C64.2138 43.7888 64.6622 43.4516 66.0246 43.4473C67.4603 43.443 68.896 43.4603 70.3274 43.4387C71.1854 43.4257 71.5475 43.0627 71.5561 42.2286C71.5734 40.3572 71.5734 38.4859 71.5561 36.6188C71.5475 35.7199 71.194 35.3784 70.2929 35.3698C68.8874 35.3568 67.4819 35.3698 66.072 35.3698C64.6838 35.3698 64.2181 35.0111 63.9163 33.6713C63.1963 30.4688 61.9504 27.4911 60.1784 24.7294C59.4842 23.6533 59.5575 23.0698 60.4759 22.1406C61.489 21.1207 62.5195 20.118 63.5197 19.0937C64.1707 18.4282 64.1707 17.9571 63.5369 17.3175C62.2435 16.0123 60.9415 14.7114 59.6265 13.4235C58.9022 12.7147 58.4624 12.7363 57.7252 13.4624C56.7465 14.4305 55.7721 15.4072 54.7934 16.3796C53.8147 17.352 53.2758 17.4385 52.1419 16.721C49.3481 14.9577 46.356 13.6958 43.1268 12.9913C41.842 12.7104 41.4841 12.235 41.4712 10.8779C41.4583 9.46899 41.4755 8.06007 41.4626 6.64682C41.454 5.74356 41.1047 5.38485 40.2123 5.3762C38.4058 5.36324 36.595 5.35891 34.7886 5.3762C33.6978 5.38485 33.3744 5.73059 33.3658 6.84995C33.3572 8.20269 33.3658 9.55542 33.3615 10.9082C33.3529 12.2652 33.0123 12.7147 31.7016 12.9999C28.5025 13.7044 25.5234 14.9275 22.7641 16.6994C21.6388 17.4255 21.0309 17.3477 20.091 16.4185C19.0908 15.4288 18.1078 14.4218 17.1032 13.4321C16.3832 12.7233 15.9262 12.7233 15.1976 13.4408C13.9085 14.7114 12.6237 15.9863 11.3518 17.2742C10.6878 17.9441 10.6878 18.4455 11.3518 19.1197C12.3995 20.1828 13.473 21.2244 14.5207 22.2919C15.2407 23.0266 15.3097 23.7613 14.7492 24.6171C12.9125 27.4435 11.6105 30.4861 10.9163 33.7923C10.6835 34.903 10.1187 35.3525 8.98915 35.3612C7.52759 35.3698 6.06172 35.3568 4.60015 35.3698C3.62578 35.3784 3.32398 35.681 3.30673 36.662C3.28949 37.5523 3.30673 38.447 3.30242 39.3373L3.31536 39.3329Z" fill="#037A47"/>
<path d="M37.4271 56.3739C28.0757 56.3739 20.4661 48.7458 20.4661 39.3718C20.4661 29.9977 28.0757 22.3696 37.4271 22.3696C46.7785 22.3696 54.3881 29.9977 54.3881 39.3718C54.3881 48.7458 46.7785 56.3739 37.4271 56.3739ZM37.4271 25.8228C29.9727 25.8228 23.9109 31.8993 23.9109 39.3718C23.9109 46.8442 29.9727 52.9207 37.4271 52.9207C44.8815 52.9207 50.9433 46.8442 50.9433 39.3718C50.9433 31.8993 44.8815 25.8228 37.4271 25.8228Z" fill="#037A47"/>
<path d="M81.395 5.6357C82.5978 4.93556 83.7662 4.42559 85.0036 4.0928C85.1028 4.06687 85.2149 3.88103 85.2235 3.76434C85.2494 3.33648 85.2235 2.9043 85.2364 2.47211C85.2537 1.30089 86.0642 0.471098 87.2283 0.449489C88.1294 0.432202 89.0261 0.432202 89.9272 0.449489C91.0784 0.471098 91.8803 1.28793 91.9018 2.44186C91.9105 2.88701 91.8889 3.33216 91.9148 3.77299C91.9234 3.88535 92.0441 4.04959 92.1519 4.0928C93.3332 4.56388 94.5232 5.01336 95.8726 5.52766C96.1141 5.2597 96.4547 4.8448 96.8341 4.47313C97.6532 3.66494 98.813 3.66062 99.6322 4.46016C100.279 5.08683 100.917 5.72214 101.546 6.36609C102.34 7.17428 102.344 8.31957 101.564 9.14504C101.249 9.47782 100.908 9.78467 100.602 10.1175C100.529 10.1996 100.469 10.3811 100.507 10.4718C101.025 11.6517 101.559 12.8229 102.124 14.0719C102.521 14.0719 103.055 14.0719 103.586 14.0719C104.72 14.0806 105.556 14.9147 105.565 16.0557C105.573 16.9589 105.573 17.8579 105.565 18.7611C105.556 19.8546 104.733 20.6887 103.633 20.7233C103.176 20.7362 102.719 20.7405 102.266 20.7233C102.047 20.7146 101.965 20.7967 101.883 20.9999C101.456 22.076 101.012 23.1478 100.551 24.2067C100.456 24.4228 100.443 24.5438 100.624 24.708C100.943 24.9976 101.24 25.3087 101.542 25.6156C102.335 26.4238 102.357 27.5734 101.572 28.3902C100.921 29.0687 100.253 29.73 99.5761 30.3783C98.8259 31.0957 97.6791 31.1087 96.9203 30.3912C96.5064 29.9979 96.1443 29.5528 95.8726 29.2546C94.5102 29.7775 93.3074 30.2313 92.1131 30.7024C92.0182 30.7413 91.9234 30.9012 91.9191 31.0092C91.8975 31.4414 91.9148 31.8693 91.9105 32.3015C91.8932 33.5073 91.0956 34.3111 89.897 34.3241C89.0218 34.3327 88.1509 34.3327 87.2757 34.3241C86.0599 34.3111 85.2537 33.49 85.245 32.2669C85.245 31.8607 85.2321 31.4544 85.2494 31.0525C85.2623 30.8104 85.1588 30.737 84.9433 30.6549C83.8568 30.2227 82.7789 29.7732 81.7054 29.3064C81.5157 29.2243 81.4122 29.2286 81.2742 29.3756C80.9681 29.6997 80.6491 30.0066 80.3301 30.3134C79.4807 31.1259 78.3425 31.1259 77.4975 30.3048C76.8594 29.6868 76.2342 29.0601 75.6134 28.4248C74.8115 27.6036 74.8158 26.4454 75.6134 25.6199C75.9195 25.3001 76.2342 24.9846 76.5576 24.6821C76.7085 24.5394 76.7257 24.4271 76.6179 24.2456C76.0143 23.2299 75.566 22.1451 75.2642 21.0042C75.2081 20.7838 75.1046 20.7146 74.8891 20.7233C74.4579 20.7362 74.0268 20.7319 73.6 20.7233C72.4316 20.7017 71.6297 19.9324 71.5995 18.7611C71.5736 17.8449 71.5736 16.933 71.5995 16.0168C71.6297 14.8542 72.4445 14.0806 73.6129 14.0719C74.044 14.0719 74.4752 14.059 74.902 14.0719C75.1305 14.0806 75.1995 13.9812 75.2771 13.7824C75.7039 12.7062 76.1437 11.6344 76.6093 10.5712C76.7085 10.3508 76.7085 10.2298 76.536 10.0699C76.2213 9.77603 75.9152 9.4735 75.6177 9.16233C74.8115 8.31957 74.8072 7.20021 75.6177 6.35745C76.2601 5.69189 76.9154 5.03497 77.5837 4.39533C78.3123 3.69519 79.4678 3.67791 80.2136 4.3694C80.6362 4.75837 80.9983 5.20352 81.4036 5.6357H81.395ZM73.0783 17.3609C73.0783 17.7801 73.074 18.1993 73.0783 18.6142C73.0826 19.0723 73.2292 19.2193 73.6905 19.2236C74.3415 19.2279 74.9925 19.2236 75.6479 19.2236C76.1954 19.2236 76.4239 19.4137 76.5403 19.954C76.8551 21.4277 77.4328 22.7891 78.2477 24.0511C78.5451 24.5135 78.5106 24.8117 78.1226 25.2007C77.6656 25.6631 77.1957 26.1212 76.7387 26.5837C76.4326 26.8905 76.4282 27.1239 76.7257 27.4221C77.3035 28.0056 77.8855 28.5847 78.4718 29.1638C78.8168 29.5009 79.0108 29.4966 79.3643 29.1509C79.8386 28.6841 80.3042 28.2087 80.7827 27.7463C81.119 27.4178 81.4208 27.3746 81.8046 27.6252C83.1195 28.481 84.5423 29.0687 86.0771 29.3972C86.5514 29.5009 86.7239 29.7386 86.7282 30.2313C86.7325 30.8969 86.7282 31.5624 86.7282 32.2323C86.7282 32.6645 86.8877 32.8244 87.3145 32.8287C88.1509 32.8331 88.983 32.8287 89.8194 32.8287C90.2635 32.8287 90.4015 32.6861 90.4058 32.241C90.4101 31.5884 90.4058 30.9358 90.4101 30.2789C90.4101 29.7473 90.5912 29.5009 91.1042 29.3929C92.6132 29.0731 94.0101 28.4853 95.3078 27.6555C95.7347 27.3789 96.0235 27.4178 96.39 27.7765C96.8643 28.2433 97.3342 28.7187 97.8085 29.1811C98.1404 29.5052 98.3344 29.5052 98.6707 29.1768C99.2571 28.602 99.8391 28.0185 100.417 27.4351C100.727 27.1196 100.727 26.9165 100.417 26.601C99.9598 26.1385 99.4942 25.6804 99.0329 25.218C98.6362 24.8204 98.5974 24.5308 98.8949 24.0727C99.7141 22.8107 100.283 21.445 100.611 19.9756C100.745 19.3835 100.947 19.2322 101.564 19.2279C102.215 19.2279 102.866 19.2365 103.521 19.2279C103.909 19.2236 104.077 19.0594 104.077 18.679C104.086 17.8276 104.086 16.9805 104.077 16.1291C104.077 15.7229 103.913 15.5673 103.504 15.563C102.866 15.5587 102.228 15.563 101.59 15.563C100.96 15.563 100.749 15.3987 100.611 14.7937C100.283 13.3372 99.7184 11.9845 98.9122 10.7312C98.5974 10.2428 98.6276 9.97483 99.0458 9.55562C99.5071 9.09318 99.9728 8.63938 100.43 8.17262C100.723 7.8701 100.723 7.654 100.438 7.36444C99.8521 6.77235 99.2614 6.18025 98.6621 5.59681C98.3344 5.27267 98.1318 5.28563 97.7998 5.61409C97.3558 6.05492 96.9117 6.49575 96.4676 6.9409C96.0235 7.38173 95.7778 7.42062 95.2604 7.09649C93.9929 6.29694 92.6305 5.72214 91.1646 5.40232C90.5782 5.27267 90.4187 5.05657 90.4144 4.44287C90.4101 3.80324 90.4144 3.16361 90.4144 2.51965C90.4101 2.10908 90.2506 1.94485 89.8453 1.94485C89.0261 1.9362 88.2027 1.9362 87.3835 1.94485C86.8877 1.94485 86.7411 2.10476 86.7368 2.61473C86.7368 3.22844 86.7368 3.84214 86.7368 4.45584C86.7368 5.07386 86.5773 5.27699 85.9823 5.40664C84.5294 5.72646 83.1756 6.27966 81.9253 7.08784C81.4122 7.4163 81.1363 7.38173 80.7138 6.96251C80.2611 6.51304 79.8127 6.05492 79.3557 5.60545C79.028 5.28131 78.8211 5.28563 78.4891 5.60545C77.9027 6.18458 77.3207 6.7637 76.743 7.34715C76.4412 7.654 76.4412 7.87874 76.743 8.18559C77.2172 8.66964 77.7044 9.14072 78.183 9.62476C78.5106 9.95755 78.5408 10.2903 78.2865 10.6836C77.4544 11.9672 76.8594 13.3502 76.5446 14.8499C76.4369 15.3555 76.1825 15.5587 75.6694 15.563C75.0055 15.5673 74.3415 15.563 73.6733 15.563C73.2335 15.563 73.0955 15.7056 73.0869 16.1507C73.0783 16.557 73.0869 16.9589 73.0869 17.3652L73.0783 17.3609Z" fill="#037A47"/>
<path d="M88.5907 34.7564C88.1466 34.7564 87.7025 34.7564 87.2585 34.7477C85.8012 34.7305 84.8096 33.7364 84.801 32.2627V32.0034C84.7966 31.6965 84.7923 31.3767 84.8053 31.0569C84.7966 31.0569 84.7837 31.0483 84.7751 31.0439C83.736 30.6334 82.6798 30.1925 81.5415 29.6955C81.2354 30.0153 80.9293 30.3092 80.6189 30.6117C79.6057 31.5842 78.1959 31.5798 77.187 30.5988C76.5791 30.0067 75.941 29.3714 75.2943 28.7101C74.3329 27.7291 74.3329 26.2942 75.2943 25.3002C75.5573 25.0279 75.8677 24.7081 76.204 24.3926C75.6004 23.3554 75.1521 22.2706 74.8503 21.1383C74.3803 21.1512 73.9492 21.1426 73.5784 21.1383C72.1686 21.108 71.1942 20.1529 71.1554 18.7569C71.1295 17.8277 71.1295 16.8985 71.1554 15.9909C71.1899 14.6123 72.1944 13.6355 73.5956 13.6226H73.8155C74.1561 13.6139 74.5053 13.6096 74.8589 13.6226C74.8589 13.6183 74.8589 13.6139 74.8632 13.6096C75.3633 12.3476 75.7901 11.3234 76.204 10.3855C76.204 10.3769 76.2127 10.3682 76.2127 10.3596C75.8979 10.0614 75.5961 9.76317 75.2943 9.44767C74.3329 8.44069 74.3329 7.04041 75.2943 6.04206C75.9583 5.35489 76.6222 4.68933 77.2733 4.06698C78.17 3.20693 79.5842 3.19397 80.4939 4.0324C80.8 4.31332 81.0759 4.6245 81.3432 4.92271C81.3863 4.97457 81.4338 5.02211 81.4769 5.06965C82.5935 4.4473 83.6757 3.98919 84.7837 3.68234C84.8096 3.43599 84.8053 3.18532 84.801 2.93466C84.801 2.77043 84.801 2.6062 84.801 2.44197C84.8225 1.0244 85.8184 0.0217341 87.2153 -0.00851884C88.125 -0.0258062 89.0391 -0.0258062 89.9315 -0.00851884C91.3155 0.0174122 92.3028 1.01144 92.3287 2.40739C92.3287 2.58027 92.3287 2.75314 92.3287 2.92601C92.3287 3.18532 92.3287 3.43167 92.3373 3.67801C93.2599 4.04537 94.1869 4.39976 95.1914 4.78008L95.7433 4.99185C95.7433 4.99185 95.7605 4.97024 95.7692 4.9616C95.9804 4.71958 96.2434 4.42137 96.5236 4.14045C97.5066 3.16804 98.9337 3.16371 99.9253 4.12316C100.581 4.75847 101.227 5.40243 101.848 6.03774C102.797 7.00583 102.805 8.42772 101.87 9.41742C101.723 9.57301 101.572 9.71995 101.421 9.86689C101.258 10.0311 101.089 10.191 100.934 10.3596C101.331 11.2672 101.745 12.1748 102.172 13.1126L102.396 13.6096H102.508C102.836 13.6096 103.211 13.6096 103.586 13.6096C104.948 13.6183 105.983 14.6555 105.996 16.0212C106.004 16.9245 106.004 17.8277 105.996 18.7353C105.983 20.0578 104.974 21.0821 103.646 21.1253C103.159 21.1383 102.715 21.1383 102.284 21.1253C102.284 21.1253 102.284 21.1253 102.284 21.1296C101.831 22.2749 101.391 23.3251 100.943 24.3537C100.943 24.3624 100.934 24.371 100.93 24.3796C101.223 24.6476 101.482 24.9156 101.732 25.1705L101.844 25.2829C102.805 26.2596 102.818 27.6815 101.878 28.6626C101.288 29.2806 100.645 29.9159 99.8693 30.6636C98.9467 31.5496 97.5455 31.5582 96.6185 30.6766C96.3081 30.3827 96.0235 30.0585 95.795 29.7992C95.7778 29.7776 95.7605 29.756 95.7433 29.7387L95.2518 29.9246C94.2257 30.3135 93.2815 30.6766 92.3459 31.0439C92.333 31.2816 92.333 31.5409 92.333 31.8003C92.333 31.9602 92.333 32.1201 92.333 32.28C92.3157 33.7321 91.3327 34.7132 89.8884 34.7261C89.4573 34.7261 89.0218 34.7305 88.5907 34.7305V34.7564ZM81.4898 28.8139C81.6321 28.8139 81.7614 28.8571 81.8649 28.9046C83.0031 29.3973 84.0594 29.8381 85.0898 30.2487C85.2709 30.3222 85.6977 30.4907 85.6675 31.0699C85.6503 31.3724 85.6546 31.6792 85.6589 31.9991V32.2627C85.6675 33.2567 86.2841 33.8791 87.2671 33.8877C88.138 33.8963 89.0089 33.8963 89.8798 33.8877C90.8455 33.8791 91.4578 33.2697 91.4664 32.2929C91.4664 32.1374 91.4664 31.9861 91.4664 31.8305C91.4664 31.5453 91.4664 31.2643 91.4793 30.9834C91.4922 30.7328 91.669 30.4086 91.9449 30.2962C92.9107 29.9159 93.8808 29.5443 94.9414 29.1423L95.9847 28.7447L96.183 28.9608C96.2607 29.0472 96.3469 29.1466 96.4417 29.2547C96.6702 29.514 96.9246 29.8079 97.2092 30.0758C97.7998 30.6334 98.6837 30.629 99.27 30.0672C100.042 29.3282 100.671 28.7015 101.253 28.0921C101.874 27.4438 101.865 26.5708 101.227 25.9182L101.115 25.8059C100.861 25.5465 100.598 25.2743 100.326 25.0322C99.8908 24.6346 100.072 24.2154 100.15 24.0382C100.594 23.0226 101.029 21.9767 101.477 20.8444C101.577 20.598 101.762 20.2609 102.275 20.2955C102.698 20.3085 103.137 20.3085 103.616 20.2955C104.482 20.2696 105.121 19.6256 105.129 18.7656C105.138 17.8666 105.138 16.9677 105.129 16.0687C105.121 15.1741 104.47 14.5215 103.577 14.5129C103.206 14.5129 102.836 14.5129 102.508 14.5129H101.84L101.383 13.5102C100.939 12.5335 100.516 11.5956 100.102 10.6578C99.9728 10.3596 100.124 10.0009 100.275 9.83664C100.447 9.64648 100.632 9.46928 100.813 9.28777C100.956 9.14515 101.102 9.00685 101.24 8.8599C101.865 8.20298 101.857 7.32997 101.227 6.6817C100.611 6.05071 99.9685 5.41539 99.3217 4.78441C98.6621 4.14477 97.7783 4.1491 97.1229 4.79737C96.8642 5.05668 96.6228 5.32896 96.4115 5.57098C96.3253 5.66606 96.2477 5.75682 96.1787 5.83461L95.9804 6.05503L94.8767 5.63149C93.8549 5.24252 92.915 4.87949 91.9794 4.51213C91.7164 4.40841 91.4879 4.09723 91.4707 3.82063C91.4534 3.53107 91.4534 3.24151 91.4578 2.96491C91.4578 2.80068 91.4578 2.63213 91.4578 2.4679C91.4405 1.54734 90.8154 0.916356 89.9057 0.899068C89.0218 0.881781 88.1207 0.881781 87.224 0.899068C86.3013 0.916356 85.6675 1.56031 85.6546 2.49815C85.6546 2.65374 85.6546 2.81365 85.6546 2.96923C85.6546 3.24151 85.6589 3.52675 85.6417 3.80767C85.6287 4.05401 85.4304 4.43866 85.1028 4.52942C83.9171 4.84923 82.8048 5.32464 81.5976 6.0291L81.3001 6.20197L81.0673 5.9513C80.9423 5.813 80.8172 5.67471 80.6922 5.53641C80.4249 5.2382 80.1748 4.95728 79.9032 4.70661C79.3255 4.17503 78.4287 4.18367 77.8639 4.72822C77.2215 5.34192 76.5619 5.99884 75.9065 6.67737C75.2642 7.34294 75.2642 8.2073 75.9065 8.88151C76.2083 9.19701 76.5101 9.49954 76.8033 9.77181C77.1913 10.1348 77.0879 10.5108 76.9758 10.7658C76.5662 11.695 76.1437 12.7107 75.6479 13.9597C75.5789 14.1326 75.4107 14.5518 74.8546 14.5215C74.5097 14.5086 74.1561 14.5129 73.8112 14.5172H73.587C72.6471 14.5302 72.0263 15.1266 72.0004 16.0428C71.9789 16.9374 71.9789 17.8493 72.0004 18.7656C72.0263 19.6948 72.6299 20.2869 73.5784 20.3041C73.9578 20.3128 74.4019 20.3171 74.8459 20.3041C75.2685 20.2825 75.5444 20.4986 75.6522 20.9049C75.941 22.007 76.3808 23.0615 76.9628 24.0382C77.1741 24.3926 77.1267 24.7297 76.8249 25.0106C76.4843 25.3261 76.1652 25.6546 75.8979 25.9312C75.2555 26.5968 75.2555 27.4784 75.8936 28.1353C76.536 28.7879 77.1655 29.4189 77.7691 30.0067C78.446 30.6636 79.3212 30.6679 80.0024 30.0153C80.3257 29.7085 80.6362 29.4016 80.9293 29.0948C81.1147 28.9003 81.3001 28.8355 81.4683 28.8355L81.4898 28.8139ZM88.3924 33.2697C88.0345 33.2697 87.6724 33.2697 87.3145 33.2697C86.6549 33.2697 86.3056 32.911 86.3013 32.2454C86.3013 31.904 86.3013 31.5626 86.3013 31.2254C86.3013 30.9013 86.3013 30.5728 86.3013 30.2487C86.3013 29.9289 86.2453 29.89 85.9909 29.8338C84.4129 29.4967 82.9255 28.8787 81.576 28.0014C81.3777 27.876 81.2958 27.8674 81.0888 28.0705C80.8215 28.3298 80.5542 28.5934 80.2912 28.8614C80.0843 29.0688 79.8817 29.272 79.6747 29.4751C79.153 29.9894 78.6917 29.9894 78.1787 29.4881C77.5923 28.9089 77.006 28.3298 76.4282 27.742C76.1049 27.4136 75.8419 26.8993 76.4412 26.2942C76.674 26.0565 76.9111 25.8231 77.1439 25.5898C77.3724 25.365 77.6009 25.1403 77.8251 24.9112C78.0709 24.6649 78.0795 24.5871 77.8898 24.2975C77.0361 22.9664 76.4412 21.5402 76.1264 20.0535C76.0531 19.7121 76.0014 19.6688 75.6522 19.6645C75.3461 19.6645 75.0443 19.6645 74.7382 19.6645C74.3889 19.6645 74.0397 19.6645 73.6948 19.6645C72.9964 19.6559 72.6644 19.3274 72.6514 18.6273C72.6514 18.3334 72.6514 18.0395 72.6514 17.7456V17.3653V16.9634C72.6514 16.6911 72.6514 16.4188 72.6514 16.1422C72.6644 15.455 72.9877 15.1352 73.6646 15.1309C74.0052 15.1309 74.3458 15.1309 74.6821 15.1309C75.0055 15.1309 75.3331 15.1309 75.6565 15.1309C75.9669 15.1309 76.0488 15.0618 76.1135 14.7592C76.4282 13.2509 77.0361 11.7988 77.9157 10.446C78.0622 10.2213 78.0493 10.1176 77.8639 9.9274C77.6182 9.67673 77.3681 9.43039 77.1224 9.18404C76.8895 8.95066 76.6567 8.7216 76.4282 8.48822C75.9626 8.01282 75.9626 7.51149 76.4282 7.04041C77.006 6.45696 77.5923 5.87351 78.1787 5.29438C78.6745 4.80602 79.1573 4.80602 79.6488 5.29438C79.8946 5.53641 80.1403 5.78275 80.3861 6.0291C80.593 6.23655 80.8 6.44399 81.0069 6.65144C81.2915 6.93236 81.3475 6.94101 81.6838 6.72059C82.96 5.89944 84.3741 5.31167 85.8831 4.98321C86.2668 4.89677 86.297 4.88381 86.297 4.45162C86.297 4.15774 86.297 3.86818 86.297 3.57429C86.297 3.25015 86.297 2.93034 86.297 2.6062C86.3013 1.86284 86.6419 1.51277 87.3706 1.50845C88.194 1.4998 89.0175 1.50413 89.841 1.50845C90.4748 1.51277 90.8283 1.87148 90.8369 2.51112C90.8369 2.84822 90.8369 3.18532 90.8369 3.51811C90.8369 3.82496 90.8369 4.12749 90.8369 4.43434C90.8369 4.87084 90.88 4.89245 91.2508 4.97457C92.7296 5.29871 94.1567 5.88648 95.4846 6.72491C95.808 6.92804 95.8338 6.94533 96.1572 6.62983L96.6013 6.189C96.8987 5.89512 97.1919 5.59691 97.4894 5.30303C97.9938 4.80602 98.4595 4.79737 98.9553 5.28574C99.5546 5.87351 100.145 6.4656 100.736 7.0577C101.051 7.37751 101.309 7.87885 100.732 8.47094C100.46 8.74754 100.184 9.02413 99.9081 9.29641C99.7227 9.48225 99.533 9.66809 99.3476 9.85825C99.0587 10.1478 99.0717 10.191 99.27 10.4936C100.098 11.7815 100.688 13.1947 101.029 14.6944C101.12 15.1006 101.158 15.1266 101.59 15.1266H102.258C102.676 15.1266 103.09 15.1266 103.508 15.1266C104.159 15.1309 104.504 15.4766 104.508 16.1206C104.517 16.972 104.517 17.8234 104.508 18.6791C104.504 19.2885 104.146 19.6472 103.525 19.6559C103.103 19.6645 102.68 19.6602 102.258 19.6602H101.564C101.133 19.6602 101.115 19.6904 101.029 20.0708C100.693 21.5877 100.093 23.0096 99.2528 24.3062C99.076 24.5785 99.0674 24.6433 99.3347 24.9112C99.5416 25.1187 99.7443 25.3218 99.9512 25.5249C100.21 25.7799 100.464 26.0349 100.719 26.2942C101.202 26.7826 101.202 27.2537 100.719 27.7377C100.137 28.3212 99.5546 28.9046 98.9682 29.4837C98.4681 29.9764 98.0025 29.9808 97.5023 29.4924C97.2738 29.2677 97.0496 29.0429 96.8211 28.8182C96.5754 28.5718 96.3339 28.3298 96.0839 28.0878C95.8468 27.8544 95.7778 27.8631 95.532 28.023C94.1782 28.8916 92.7167 29.4967 91.1861 29.8208C90.9016 29.8814 90.8369 29.9289 90.8369 30.2876C90.8369 30.5988 90.8369 30.91 90.8369 31.2211C90.8369 31.5625 90.8369 31.9083 90.8369 32.2497C90.8326 32.9283 90.5006 33.261 89.8237 33.2697C89.3452 33.2697 88.8709 33.274 88.3924 33.274V33.2697ZM87.1852 32.3923C87.1852 32.3923 87.2455 32.401 87.3188 32.401C88.1509 32.4053 88.983 32.401 89.8151 32.401C89.8884 32.401 89.9358 32.3967 89.9617 32.3923C89.966 32.3664 89.9703 32.3189 89.9746 32.2411C89.9746 31.8997 89.9746 31.5582 89.9746 31.2211C89.9746 30.91 89.9746 30.5945 89.9746 30.2833C89.9789 29.5399 90.3109 29.125 91.0094 28.9738C92.4364 28.6712 93.8032 28.1051 95.0664 27.2926C95.6571 26.9122 96.1701 26.9684 96.6832 27.4698C96.9332 27.7118 97.179 27.9581 97.4247 28.2045C97.6489 28.4292 97.8731 28.6539 98.1016 28.8744C98.162 28.9349 98.2051 28.9651 98.2266 28.9824C98.2525 28.9651 98.2913 28.9349 98.356 28.87C98.9423 28.2952 99.5244 27.7161 100.098 27.1327C100.15 27.0808 100.18 27.0419 100.193 27.0203C100.175 26.9987 100.15 26.9598 100.093 26.9036C99.8434 26.6486 99.5847 26.3936 99.3304 26.143C99.1234 25.9355 98.9165 25.7324 98.7095 25.5249C98.1706 24.9847 98.1102 24.4618 98.5155 23.8394C99.3002 22.6293 99.8564 21.2982 100.171 19.8849C100.348 19.0984 100.719 18.8045 101.542 18.8001H102.241C102.654 18.8001 103.073 18.8001 103.491 18.8001C103.564 18.8001 103.603 18.7915 103.62 18.7829C103.62 18.7742 103.625 18.7396 103.625 18.6748C103.633 17.8277 103.633 16.9806 103.625 16.1336C103.625 16.0601 103.616 16.0212 103.612 15.9996C103.603 15.9996 103.56 15.9953 103.478 15.9953C103.064 15.9953 102.65 15.9953 102.236 15.9953H101.564C100.723 15.9953 100.344 15.6927 100.162 14.8889C99.8477 13.4886 99.2959 12.1704 98.5198 10.969C98.0973 10.312 98.1534 9.81503 98.7138 9.25319C98.9035 9.06303 99.0889 8.87719 99.2786 8.68703C99.5502 8.41475 99.8262 8.14248 100.093 7.8702C100.145 7.81834 100.171 7.78376 100.184 7.76216C100.171 7.74487 100.15 7.71462 100.106 7.6714C99.5201 7.0793 98.9294 6.49153 98.3344 5.90809C98.2741 5.8519 98.2353 5.82165 98.2137 5.80436C98.1878 5.82165 98.1447 5.85622 98.0757 5.92537C97.7783 6.21926 97.4851 6.51314 97.1876 6.80703L96.7435 7.24786C96.1572 7.83131 95.6872 7.89181 95.006 7.45963C93.76 6.67305 92.4321 6.12418 91.0482 5.82165C90.2678 5.6531 89.9617 5.26413 89.9574 4.44298C89.9574 4.13613 89.9574 3.82928 89.9574 3.51811C89.9574 3.18532 89.9574 2.85254 89.9574 2.51976C89.9574 2.43764 89.9488 2.39443 89.9401 2.37714C89.9315 2.37714 89.8884 2.37282 89.8151 2.37282C88.996 2.36417 88.1768 2.36417 87.3576 2.37282C87.2283 2.37282 87.1679 2.3901 87.1507 2.39443C87.155 2.40307 87.142 2.46358 87.142 2.61484C87.142 2.93466 87.142 3.25447 87.142 3.57429C87.142 3.86818 87.142 4.16206 87.142 4.45595C87.142 5.28142 86.8402 5.6531 86.0513 5.82597C84.6414 6.13714 83.3222 6.68169 82.1322 7.44666C81.4596 7.87885 80.9509 7.82698 80.3818 7.26082C80.1705 7.05337 79.9636 6.8416 79.7566 6.63416C79.5152 6.39213 79.2738 6.14579 79.028 5.90809C78.9633 5.84326 78.9245 5.813 78.8987 5.80004C78.8771 5.813 78.834 5.84758 78.765 5.91241C78.1787 6.48721 77.6009 7.06634 77.0232 7.64979C76.9585 7.71462 76.9327 7.75351 76.924 7.7708C76.9327 7.77512 76.9585 7.81402 77.0232 7.87885C77.2517 8.11222 77.4802 8.34128 77.713 8.57034C77.9631 8.82101 78.2175 9.06735 78.4632 9.32234C78.9332 9.80207 78.9892 10.3553 78.6227 10.9171C77.8036 12.1791 77.2388 13.5318 76.9413 14.9364C76.7947 15.6409 76.3722 15.9866 75.6479 15.9909C75.3202 15.9909 74.9925 15.9909 74.6649 15.9909C74.3286 15.9909 73.988 15.9909 73.6517 15.9909C73.5784 15.9909 73.531 15.9953 73.5051 15.9996C73.5008 16.0255 73.4922 16.0731 73.4922 16.1509C73.4879 16.4188 73.4922 16.6868 73.4922 16.9504V17.3566V17.737C73.4922 18.0265 73.4922 18.3161 73.4922 18.6057C73.4922 18.6964 73.5008 18.7483 73.5094 18.7742C73.5353 18.7785 73.587 18.7872 73.6819 18.7915C74.0268 18.7915 74.3717 18.7915 74.7166 18.7915C75.0227 18.7915 75.3288 18.7915 75.6349 18.7915C76.3851 18.7958 76.7904 19.1286 76.9456 19.8633C77.2388 21.2463 77.7949 22.5774 78.5925 23.8178C78.9978 24.4488 78.9461 24.9717 78.4115 25.5076C78.183 25.7367 77.9545 25.9658 77.726 26.1948C77.4931 26.4282 77.2603 26.6573 77.0275 26.8906C76.9585 26.9598 76.9327 27.003 76.924 27.0203C76.9327 27.0246 76.9542 27.0635 77.0146 27.1197C77.5923 27.7031 78.1743 28.2823 78.7564 28.8571C78.8254 28.9219 78.8685 28.9565 78.8943 28.9738C78.9202 28.9565 78.9676 28.9219 79.0452 28.8441C79.2522 28.641 79.4548 28.4379 79.6575 28.2347C79.9248 27.9668 80.1921 27.6988 80.4637 27.4352C80.9509 26.9641 81.4726 26.9079 82.0201 27.2623C83.2834 28.0835 84.6716 28.6583 86.1461 28.9738C86.8101 29.1164 87.1334 29.527 87.1377 30.2271C87.1377 30.5556 87.1377 30.884 87.1377 31.2125C87.1377 31.5496 87.1377 31.8867 87.1377 32.2281C87.1377 32.3232 87.1464 32.3707 87.155 32.388C87.155 32.388 87.155 32.388 87.1636 32.388L87.1852 32.3923Z" fill="#037A47"/>
<path d="M88.5692 25.1015C84.3225 25.1015 80.8647 21.6354 80.8647 17.3784C80.8647 13.1214 84.3225 9.65527 88.5692 9.65527C92.8159 9.65527 96.2737 13.1214 96.2737 17.3784C96.2737 21.6354 92.8159 25.1015 88.5692 25.1015ZM88.5692 11.2241C85.1848 11.2241 82.4298 13.9858 82.4298 17.3784C82.4298 20.7711 85.1848 23.5327 88.5692 23.5327C91.9537 23.5327 94.7086 20.7711 94.7086 17.3784C94.7086 13.9858 91.9537 11.2241 88.5692 11.2241Z" fill="#037A47"/>
<path d="M88.5692 25.5338C84.0853 25.5338 80.4336 21.8775 80.4336 17.3785C80.4336 12.8794 84.081 9.22314 88.5692 9.22314C93.0574 9.22314 96.7048 12.8794 96.7048 17.3785C96.7048 21.8775 93.0574 25.5338 88.5692 25.5338ZM88.5692 10.0875C84.5596 10.0875 81.2959 13.3591 81.2959 17.3785C81.2959 21.3978 84.5596 24.6694 88.5692 24.6694C92.5788 24.6694 95.8425 21.3978 95.8425 17.3785C95.8425 13.3591 92.5788 10.0875 88.5692 10.0875ZM88.5692 23.965C84.9476 23.965 81.9986 21.0088 81.9986 17.3785C81.9986 13.7481 84.9476 10.792 88.5692 10.792C92.1908 10.792 95.1398 13.7481 95.1398 17.3785C95.1398 21.0088 92.1908 23.965 88.5692 23.965ZM88.5692 11.6563C85.4219 11.6563 82.8609 14.2235 82.8609 17.3785C82.8609 20.5334 85.4219 23.1006 88.5692 23.1006C91.7165 23.1006 94.2775 20.5334 94.2775 17.3785C94.2775 14.2235 91.7165 11.6563 88.5692 11.6563Z" fill="#037A47"/>
<path d="M80.5327 51.8794C81.7355 51.1792 82.9039 50.6692 84.1413 50.3365C84.2405 50.3105 84.3526 50.1247 84.3612 50.008C84.3871 49.5801 84.3612 49.1479 84.3741 48.7158C84.3914 47.5445 85.2019 46.7148 86.366 46.6931C87.2671 46.6759 88.1638 46.6759 89.0649 46.6931C90.2161 46.7148 91.018 47.5316 91.0395 48.6855C91.0482 49.1307 91.0266 49.5758 91.0525 50.0166C91.0611 50.129 91.1818 50.2932 91.2896 50.3365C92.4709 50.8075 93.6609 51.257 95.0103 51.7713C95.2518 51.5034 95.5924 51.0885 95.9718 50.7168C96.7909 49.9086 97.9507 49.9043 98.7699 50.7038C99.4166 51.3305 100.055 51.9658 100.684 52.6097C101.477 53.4179 101.482 54.5632 100.701 55.3887C100.387 55.7215 100.046 56.0283 99.7399 56.3611C99.6666 56.4432 99.6063 56.6247 99.6451 56.7155C100.162 57.8954 100.697 59.0666 101.262 60.3156C101.659 60.3156 102.193 60.3156 102.723 60.3156C103.857 60.3242 104.694 61.1584 104.702 62.2993C104.711 63.2026 104.711 64.1015 104.702 65.0048C104.694 66.0982 103.87 66.9323 102.771 66.9669C102.314 66.9799 101.857 66.9842 101.404 66.9669C101.184 66.9583 101.102 67.0404 101.02 67.2435C100.594 68.3196 100.15 69.3915 99.6882 70.4503C99.5933 70.6664 99.5804 70.7874 99.7615 70.9517C100.081 71.2412 100.378 71.5524 100.68 71.8592C101.473 72.6674 101.495 73.817 100.71 74.6339C100.059 75.3124 99.3907 75.9736 98.7138 76.6219C97.9636 77.3393 96.8168 77.3523 96.058 76.6349C95.6441 76.2416 95.2819 75.7964 95.0103 75.4982C93.6479 76.0212 92.4451 76.475 91.2508 76.946C91.1559 76.9849 91.0611 77.1449 91.0568 77.2529C91.0352 77.6851 91.0525 78.113 91.0482 78.5451C91.0309 79.7509 90.2333 80.5548 89.0347 80.5678C88.1595 80.5764 87.2886 80.5764 86.4134 80.5678C85.1976 80.5548 84.3914 79.7336 84.3827 78.5106C84.3827 78.1043 84.3698 77.6981 84.3871 77.2961C84.4 77.0541 84.2965 76.9806 84.0809 76.8985C82.9945 76.4663 81.9166 76.0169 80.8431 75.5501C80.6534 75.468 80.5499 75.4723 80.4119 75.6192C80.1058 75.9434 79.7868 76.2502 79.4678 76.5571C78.6184 77.3696 77.4802 77.3696 76.6352 76.5484C75.9971 75.9304 75.3719 75.3038 74.7511 74.6684C73.9492 73.8473 73.9535 72.689 74.7511 71.8636C75.0572 71.5437 75.3719 71.2283 75.6953 70.9257C75.8462 70.7831 75.8634 70.6707 75.7556 70.4892C75.152 69.4736 74.7037 68.3888 74.4019 67.2478C74.3458 67.0274 74.2423 66.9583 74.0268 66.9669C73.5956 66.9799 73.1645 66.9756 72.7377 66.9669C71.5693 66.9453 70.7674 66.176 70.7372 65.0048C70.7113 64.0886 70.7113 63.1767 70.7372 62.2604C70.7674 61.0978 71.5822 60.3242 72.7506 60.3156C73.1817 60.3156 73.6129 60.3026 74.0397 60.3156C74.2682 60.3242 74.3372 60.2248 74.4148 60.026C74.8416 58.9499 75.2814 57.8781 75.747 56.8149C75.8462 56.5945 75.8462 56.4735 75.6737 56.3136C75.359 56.0197 75.0529 55.7172 74.7554 55.406C73.9492 54.5632 73.9449 53.4439 74.7554 52.6011C75.3978 51.9355 76.0531 51.2786 76.7214 50.639C77.45 49.9388 78.6055 49.9216 79.3513 50.6131C79.7739 51.002 80.136 51.4472 80.5413 51.8794H80.5327ZM72.216 63.6045C72.216 64.0237 72.2117 64.443 72.216 64.8579C72.2203 65.316 72.3669 65.4629 72.8282 65.4672C73.4792 65.4716 74.1302 65.4672 74.7856 65.4672C75.3331 65.4672 75.5616 65.6574 75.678 66.1976C75.9928 67.6714 76.5705 69.0328 77.3853 70.2947C77.6828 70.7572 77.6483 71.0554 77.2603 71.4443C76.8033 71.9068 76.3334 72.3649 75.8764 72.8273C75.5702 73.1342 75.5659 73.3676 75.8634 73.6658C76.4412 74.2492 77.0232 74.8283 77.6095 75.4075C77.9544 75.7446 78.1485 75.7403 78.502 75.3945C78.9763 74.9277 79.4419 74.4523 79.9204 73.9899C80.2567 73.6614 80.5585 73.6182 80.9423 73.8689C82.2572 74.7246 83.68 75.3124 85.2148 75.6409C85.6891 75.7446 85.8616 75.9823 85.8659 76.475C85.8702 77.1405 85.8659 77.8061 85.8659 78.476C85.8659 78.9082 86.0254 79.0681 86.4522 79.0724C87.2886 79.0767 88.1207 79.0724 88.9571 79.0724C89.4012 79.0724 89.5392 78.9298 89.5435 78.4846C89.5478 77.832 89.5435 77.1794 89.5478 76.5225C89.5478 75.9909 89.7289 75.7446 90.2419 75.6365C91.7509 75.3167 93.1478 74.7289 94.4455 73.8992C94.8724 73.6226 95.1612 73.6615 95.5277 74.0202C96.002 74.4869 96.4719 74.9623 96.9462 75.4248C97.2781 75.7489 97.4721 75.7489 97.8084 75.4204C98.3948 74.8456 98.9768 74.2622 99.5545 73.6787C99.865 73.3632 99.865 73.1601 99.5545 72.8446C99.0975 72.3822 98.6319 71.9241 98.1706 71.4616C97.7739 71.064 97.7351 70.7745 98.0326 70.3163C98.8518 69.0544 99.4209 67.6887 99.7486 66.2192C99.8822 65.6271 100.085 65.4759 100.701 65.4716C101.352 65.4716 102.003 65.4802 102.659 65.4716C103.047 65.4672 103.215 65.303 103.215 64.9227C103.224 64.0713 103.224 63.2242 103.215 62.3728C103.215 61.9665 103.051 61.8109 102.642 61.8066C102.003 61.8023 101.365 61.8066 100.727 61.8066C100.098 61.8066 99.8865 61.6424 99.7486 61.0373C99.4209 59.5809 98.8561 58.2281 98.0499 56.9748C97.7351 56.4864 97.7653 56.2185 98.1835 55.7993C98.6448 55.3368 99.1105 54.883 99.5675 54.4163C99.8607 54.1137 99.8607 53.8977 99.5761 53.6081C98.9898 53.016 98.3991 52.4239 97.7998 51.8405C97.4721 51.5163 97.2695 51.5293 96.9375 51.8577C96.4935 52.2986 96.0494 52.7394 95.6053 53.1845C95.1612 53.6254 94.9155 53.6643 94.3981 53.3401C93.1306 52.5406 91.7682 51.9658 90.3023 51.646C89.7159 51.5163 89.5564 51.3002 89.5521 50.6865C89.5478 50.0469 89.5521 49.4073 89.5521 48.7633C89.5478 48.3527 89.3883 48.1885 88.983 48.1885C88.1638 48.1799 87.3404 48.1799 86.5212 48.1885C86.0254 48.1885 85.8788 48.3484 85.8745 48.8584C85.8745 49.4721 85.8745 50.0858 85.8745 50.6995C85.8745 51.3175 85.715 51.5206 85.12 51.6503C83.667 51.9701 82.3133 52.5233 81.063 53.3315C80.5499 53.66 80.274 53.6254 79.8515 53.2062C79.3988 52.7567 78.9504 52.2986 78.4934 51.8491C78.1657 51.525 77.9588 51.5293 77.6268 51.8491C77.0404 52.4282 76.4584 53.0074 75.8807 53.5908C75.5789 53.8977 75.5789 54.1224 75.8807 54.4292C76.3549 54.9133 76.8421 55.3844 77.3207 55.8684C77.6483 56.2012 77.6785 56.534 77.4241 56.9273C76.592 58.2109 75.9971 59.5938 75.6823 61.0935C75.5746 61.5992 75.3202 61.8023 74.8071 61.8066C74.1432 61.8109 73.4792 61.8066 72.811 61.8066C72.3712 61.8066 72.2332 61.9492 72.2246 62.3944C72.216 62.8007 72.2246 63.2026 72.2246 63.6088L72.216 63.6045Z" fill="#037A47"/>
<path d="M87.7284 81C87.2843 81 86.8402 81 86.3962 80.9914C84.9389 80.9741 83.9473 79.9801 83.9387 78.5063V78.247C83.9343 77.9402 83.93 77.6204 83.943 77.3005C83.9343 77.3005 83.9214 77.2919 83.9128 77.2876C82.8737 76.877 81.8175 76.4362 80.6792 75.9392C80.3731 76.259 80.067 76.5529 79.7566 76.8554C78.7434 77.8278 77.3336 77.8235 76.3247 76.8424C75.7168 76.2503 75.0787 75.615 74.432 74.9538C73.4706 73.9727 73.4706 72.5379 74.432 71.5438C74.695 71.2716 75.0054 70.9518 75.3417 70.6363C74.7381 69.599 74.2898 68.5142 73.988 67.3819C73.518 67.3949 73.0869 67.3862 72.7161 67.3819C71.3063 67.3517 70.3319 66.3965 70.2931 65.0006C70.2672 64.0714 70.2672 63.1422 70.2931 62.2346C70.3276 60.8559 71.3321 59.8792 72.7333 59.8662H72.9532C73.2938 59.8576 73.643 59.8533 73.9966 59.8662C73.9966 59.8619 73.9966 59.8576 74.0009 59.8533C74.501 58.5913 74.9278 57.567 75.3417 56.6292C75.3417 56.6205 75.3504 56.6119 75.3504 56.6032C75.0356 56.305 74.7338 56.0068 74.432 55.6913C73.4706 54.6843 73.4706 53.2841 74.432 52.2857C75.096 51.5985 75.7599 50.933 76.411 50.3106C77.3077 49.4506 78.7219 49.4376 79.6316 50.2761C79.9377 50.557 80.2136 50.8681 80.4809 51.1664C80.524 51.2182 80.5715 51.2658 80.6146 51.3133C81.7312 50.691 82.8134 50.2328 83.9214 49.926C83.9473 49.6796 83.943 49.429 83.9387 49.1783C83.9387 49.0141 83.9387 48.8498 83.9387 48.6856C83.9602 47.2681 84.9561 46.2654 86.353 46.2351C87.2627 46.2178 88.1768 46.2178 89.0692 46.2351C90.4532 46.2611 91.4405 47.2551 91.4664 48.651C91.4664 48.8239 91.4664 48.9968 91.4664 49.1697C91.4664 49.429 91.4664 49.6753 91.475 49.9217C92.3976 50.289 93.3246 50.6434 94.3291 51.0237L94.881 51.2355C94.881 51.2355 94.8982 51.2139 94.9068 51.2053C95.1181 50.9632 95.3811 50.665 95.6613 50.3841C96.6443 49.4117 98.0714 49.4074 99.063 50.3668C99.7184 51.0021 100.365 51.6461 100.986 52.2814C101.934 53.2495 101.943 54.6714 101.007 55.6611C100.861 55.8167 100.71 55.9636 100.559 56.1105C100.395 56.2748 100.227 56.4347 100.072 56.6032C100.469 57.5108 100.882 58.4184 101.309 59.3562L101.533 59.8533H101.646C101.973 59.8533 102.348 59.8533 102.723 59.8533C104.086 59.8619 105.121 60.8991 105.133 62.2649C105.142 63.1681 105.142 64.0714 105.133 64.979C105.121 66.3015 104.112 67.3257 102.784 67.3689C102.297 67.3819 101.853 67.3819 101.421 67.3689C101.421 67.3689 101.421 67.3689 101.421 67.3733C100.969 68.5186 100.529 69.5688 100.081 70.5974C100.081 70.606 100.072 70.6147 100.068 70.6233C100.361 70.8913 100.619 71.1592 100.87 71.4142L100.982 71.5266C101.943 72.5033 101.956 73.9252 101.016 74.9062C100.425 75.5243 99.783 76.1596 99.007 76.9073C98.0843 77.7932 96.6831 77.8019 95.7562 76.9202C95.4458 76.6263 95.1612 76.3022 94.9327 76.0429C94.9155 76.0213 94.8982 75.9997 94.881 75.9824L94.3895 76.1682C93.3634 76.5572 92.4192 76.9202 91.4836 77.2876C91.4707 77.5253 91.4707 77.7846 91.4707 78.0439C91.4707 78.2038 91.4707 78.3637 91.4707 78.5236C91.4534 79.9758 90.4704 80.9568 89.0261 80.9698C88.595 80.9698 88.1595 80.9741 87.7284 80.9741V81ZM80.6275 75.0575C80.7698 75.0575 80.8991 75.1007 81.0026 75.1483C82.1408 75.641 83.1971 76.0818 84.2275 76.4924C84.4086 76.5658 84.8354 76.7344 84.8052 77.3135C84.788 77.616 84.7923 77.9229 84.7966 78.2427V78.5063C84.8052 79.5004 85.4218 80.1227 86.4048 80.1314C87.2757 80.14 88.1466 80.14 89.0175 80.1314C89.9832 80.1227 90.5954 79.5133 90.6041 78.5366C90.6041 78.381 90.6041 78.2297 90.6041 78.0742C90.6041 77.7889 90.6041 77.508 90.617 77.2271C90.6299 76.9764 90.8067 76.6523 91.0826 76.5399C92.0484 76.1596 93.0185 75.7879 94.0791 75.386L95.1224 74.9884L95.3207 75.2044C95.3983 75.2909 95.4846 75.3903 95.5794 75.4983C95.8079 75.7576 96.0623 76.0515 96.3469 76.3195C96.9375 76.877 97.8214 76.8727 98.4077 76.3108C99.1794 75.5718 99.8089 74.9451 100.391 74.3358C101.012 73.6875 101.003 72.8145 100.365 72.1619L100.253 72.0495C99.9986 71.7902 99.7356 71.5179 99.464 71.2759C99.0285 70.8783 99.2096 70.4591 99.2872 70.2819C99.7313 69.2662 100.167 68.2203 100.615 67.088C100.714 66.8417 100.9 66.5046 101.413 66.5392C101.835 66.5521 102.275 66.5521 102.754 66.5392C103.62 66.5132 104.258 65.8693 104.267 65.0092C104.276 64.1103 104.276 63.2113 104.267 62.3124C104.258 61.4178 103.607 60.7652 102.715 60.7565C102.344 60.7565 101.973 60.7565 101.646 60.7565H100.977L100.52 59.7539C100.076 58.7771 99.6537 57.8393 99.2398 56.9014C99.1105 56.6032 99.2614 56.2445 99.4123 56.0803C99.5847 55.8901 99.7701 55.7129 99.9512 55.5314C100.093 55.3888 100.24 55.2505 100.378 55.1036C101.003 54.4466 100.995 53.5736 100.365 52.9253C99.7485 52.2944 99.1061 51.659 98.4594 51.0281C97.7998 50.3884 96.916 50.3927 96.2606 51.041C96.0019 51.3003 95.7605 51.5726 95.5492 51.8146C95.463 51.9097 95.3854 52.0005 95.3164 52.0783L95.1181 52.2987L94.0144 51.8751C92.9926 51.4862 92.0527 51.1231 91.1171 50.7558C90.8541 50.6521 90.6256 50.3409 90.6084 50.0643C90.5911 49.7747 90.5911 49.4852 90.5955 49.2086C90.5955 49.0443 90.5955 48.8758 90.5955 48.7115C90.5782 47.791 89.9531 47.16 89.0433 47.1427C88.1595 47.1254 87.2584 47.1254 86.3617 47.1427C85.439 47.16 84.8052 47.804 84.7923 48.7418C84.7923 48.8974 84.7923 49.0573 84.7923 49.2129C84.7923 49.4852 84.7966 49.7704 84.7794 50.0513C84.7664 50.2977 84.5681 50.6823 84.2405 50.7731C83.0548 51.0929 81.9425 51.5683 80.7353 52.2727L80.4378 52.4456L80.205 52.195C80.08 52.0567 79.9549 51.9184 79.8299 51.7801C79.5626 51.4818 79.3125 51.2009 79.0409 50.9503C78.4632 50.4187 77.5664 50.4273 77.0016 50.9719C76.3592 51.5856 75.6996 52.2425 75.0442 52.921C74.4018 53.5866 74.4018 54.451 75.0442 55.1252C75.346 55.4407 75.6478 55.7432 75.941 56.0155C76.329 56.3785 76.2256 56.7545 76.1135 57.0095C75.7039 57.9387 75.2814 58.9543 74.7856 60.2033C74.7166 60.3762 74.5484 60.7911 73.9923 60.7652C73.6474 60.7522 73.2938 60.7565 72.9489 60.7608H72.7247C71.7848 60.7738 71.164 61.3702 71.1381 62.2865C71.1166 63.1811 71.1166 64.093 71.1381 65.0092C71.164 65.9384 71.7676 66.5305 72.7161 66.5478C73.0955 66.5564 73.5396 66.5608 73.9836 66.5478C74.4062 66.5262 74.6821 66.7423 74.7899 67.1485C75.0787 68.2506 75.5185 69.3051 76.1005 70.2819C76.3118 70.6363 76.2644 70.9734 75.9626 71.2543C75.622 71.5698 75.3029 71.8982 75.0356 72.1748C74.3932 72.8404 74.3932 73.7221 75.0313 74.379C75.6737 75.0316 76.3032 75.6626 76.9068 76.2503C77.5837 76.9073 78.4589 76.9116 79.1401 76.259C79.4634 75.9521 79.7738 75.6453 80.067 75.3384C80.2524 75.1439 80.4378 75.0791 80.6059 75.0791L80.6275 75.0575ZM87.5301 79.5133C87.1722 79.5133 86.81 79.5133 86.4522 79.5133C85.7926 79.5133 85.4433 79.1546 85.439 78.4891C85.439 78.1476 85.439 77.8062 85.439 77.4691C85.439 77.145 85.439 76.8165 85.439 76.4924C85.439 76.1725 85.383 76.1336 85.1286 76.0775C83.5506 75.7404 82.0632 75.1223 80.7137 74.245C80.5154 74.1197 80.4335 74.111 80.2265 74.3141C79.9592 74.5735 79.6919 74.8371 79.4289 75.105C79.222 75.3125 79.0194 75.5156 78.8124 75.7187C78.2907 76.233 77.8294 76.233 77.3164 75.7317C76.73 75.1526 76.1437 74.5735 75.5659 73.9857C75.2426 73.6572 74.9796 73.1429 75.5789 72.5379C75.8117 72.3002 76.0488 72.0668 76.2816 71.8334C76.5101 71.6087 76.7386 71.3839 76.9628 71.1549C77.2086 70.9085 77.2172 70.8307 77.0275 70.5412C76.1738 69.2101 75.5789 67.7838 75.2641 66.2971C75.1908 65.9557 75.1391 65.9125 74.7899 65.9082C74.4838 65.9082 74.182 65.9082 73.8759 65.9082C73.5266 65.9082 73.1774 65.9082 72.8325 65.9082C72.134 65.8995 71.8021 65.5711 71.7891 64.8709C71.7891 64.577 71.7891 64.2831 71.7891 63.9893V63.6089V63.207C71.7891 62.9347 71.7891 62.6625 71.7891 62.3859C71.8021 61.6987 72.1254 61.3789 72.8023 61.3745C73.1429 61.3745 73.4835 61.3745 73.8198 61.3745C74.1432 61.3745 74.4708 61.3745 74.7942 61.3745C75.1046 61.3745 75.1865 61.3054 75.2512 61.0029C75.5659 59.4945 76.1738 58.0424 77.0534 56.6897C77.1999 56.4649 77.187 56.3612 77.0016 56.1711C76.7559 55.9204 76.5058 55.674 76.2601 55.4277C76.0272 55.1943 75.7944 54.9653 75.5659 54.7319C75.1003 54.2565 75.1003 53.7551 75.5659 53.2841C76.1437 52.7006 76.73 52.1172 77.3164 51.538C77.8122 51.0497 78.295 51.0497 78.7865 51.538C79.0323 51.7801 79.278 52.0264 79.5238 52.2727C79.7307 52.4802 79.9377 52.6876 80.1446 52.8951C80.4292 53.176 80.4852 53.1847 80.8215 52.9642C82.0977 52.1431 83.5118 51.5553 85.0208 51.2269C85.4045 51.1404 85.4347 51.1275 85.4347 50.6953C85.4347 50.4014 85.4347 50.1118 85.4347 49.8179C85.4347 49.4938 85.4347 49.174 85.4347 48.8498C85.439 48.1065 85.7796 47.7564 86.5082 47.7521C87.3317 47.7478 88.1552 47.7478 88.9787 47.7521C89.6125 47.7564 89.966 48.1151 89.9746 48.7548C89.9746 49.0919 89.9746 49.429 89.9746 49.7618C89.9746 50.0686 89.9746 50.3711 89.9746 50.678C89.9746 51.1145 90.0177 51.1361 90.3885 51.2182C91.8673 51.5424 93.2944 52.1301 94.6223 52.9686C94.9457 53.1717 94.9715 53.189 95.2949 52.8735L95.7389 52.4327C96.0364 52.1388 96.3296 51.8406 96.6271 51.5467C97.1315 51.0497 97.5972 51.041 98.093 51.5294C98.6923 52.1172 99.2829 52.7093 99.8736 53.3013C100.188 53.6212 100.447 54.1225 99.8693 54.7146C99.5976 54.9912 99.3217 55.2678 99.0458 55.5401C98.8604 55.7259 98.6707 55.9117 98.4853 56.1019C98.1964 56.3915 98.2094 56.4347 98.4077 56.7372C99.2355 58.0251 99.8262 59.4384 100.167 60.938C100.257 61.3443 100.296 61.3702 100.727 61.3702H101.395C101.814 61.3702 102.228 61.3702 102.646 61.3702C103.297 61.3745 103.642 61.7203 103.646 62.3643C103.655 63.2157 103.655 64.0671 103.646 64.9228C103.642 65.5322 103.284 65.8909 102.663 65.8995C102.241 65.9082 101.818 65.9038 101.395 65.9038H100.701C100.27 65.9038 100.253 65.9341 100.167 66.3144C99.8305 67.8314 99.2312 69.2533 98.3905 70.5498C98.2137 70.8221 98.2051 70.8869 98.4724 71.1549C98.6793 71.3623 98.882 71.5655 99.0889 71.7686C99.3476 72.0236 99.602 72.2786 99.8563 72.5379C100.339 73.0262 100.339 73.4973 99.8563 73.9814C99.2743 74.5648 98.6923 75.1483 98.1059 75.7274C97.6058 76.2201 97.1401 76.2244 96.64 75.736C96.4115 75.5113 96.1873 75.2866 95.9588 75.0618C95.7131 74.8155 95.4716 74.5735 95.2216 74.3314C94.9845 74.0981 94.9155 74.1067 94.6697 74.2666C93.3159 75.1353 91.8544 75.7404 90.3238 76.0645C90.0393 76.125 89.9746 76.1725 89.9746 76.5313C89.9746 76.8424 89.9746 77.1536 89.9746 77.4648C89.9746 77.8062 89.9746 78.1519 89.9746 78.4934C89.9703 79.1719 89.6383 79.5047 88.9614 79.5133C88.4829 79.5133 88.0086 79.5177 87.5301 79.5177V79.5133ZM86.3229 78.636C86.3229 78.636 86.3832 78.6446 86.4565 78.6446C87.2886 78.649 88.1207 78.6446 88.9528 78.6446C89.0261 78.6446 89.0735 78.6403 89.0994 78.636C89.1037 78.6101 89.108 78.5625 89.1123 78.4847C89.1123 78.1433 89.1123 77.8019 89.1123 77.4648C89.1123 77.1536 89.1123 76.8381 89.1123 76.5269C89.1166 75.7836 89.4486 75.3687 90.1471 75.2174C91.5741 74.9149 92.9409 74.3487 94.2041 73.5362C94.7948 73.1559 95.3078 73.2121 95.8209 73.7134C96.0709 73.9554 96.3167 74.2018 96.5624 74.4481C96.7866 74.6729 97.0108 74.8976 97.2393 75.118C97.2997 75.1785 97.3428 75.2088 97.3643 75.2261C97.3902 75.2088 97.429 75.1785 97.4937 75.1137C98.08 74.5389 98.6621 73.9598 99.2355 73.3763C99.2872 73.3244 99.3174 73.2856 99.3303 73.2639C99.3131 73.2423 99.2872 73.2034 99.2312 73.1473C98.9811 72.8923 98.7224 72.6373 98.4681 72.3866C98.2611 72.1792 98.0542 71.976 97.8472 71.7686C97.3083 71.2284 97.2479 70.7054 97.6532 70.0831C98.4379 68.8729 98.994 67.5418 99.3088 66.1286C99.4855 65.342 99.8563 65.0481 100.68 65.0438H101.378C101.792 65.0438 102.21 65.0438 102.629 65.0438C102.702 65.0438 102.741 65.0352 102.758 65.0265C102.758 65.0179 102.762 64.9833 102.762 64.9185C102.771 64.0714 102.771 63.2243 102.762 62.3772C102.762 62.3037 102.754 62.2649 102.749 62.2432C102.741 62.2432 102.698 62.2389 102.616 62.2389C102.202 62.2389 101.788 62.2389 101.374 62.2389H100.701C99.8606 62.2389 99.4812 61.9364 99.3002 61.1325C98.9854 59.7322 98.4336 58.4141 97.6575 57.2126C97.235 56.5557 97.2911 56.0587 97.8515 55.4968C98.0412 55.3067 98.2266 55.1208 98.4163 54.9307C98.6879 54.6584 98.9639 54.3861 99.2312 54.1139C99.2829 54.062 99.3088 54.0274 99.3217 54.0058C99.3088 53.9885 99.2872 53.9583 99.2441 53.915C98.6578 53.323 98.0671 52.7352 97.4721 52.1517C97.4118 52.0956 97.373 52.0653 97.3514 52.048C97.3255 52.0653 97.2824 52.0999 97.2134 52.169C96.916 52.4629 96.6228 52.7568 96.3253 53.0507L95.8812 53.4915C95.2949 54.075 94.8249 54.1355 94.1437 53.7033C92.8977 52.9167 91.5698 52.3678 90.1859 52.0653C89.4055 51.8967 89.0994 51.5078 89.0951 50.6866C89.0951 50.3798 89.0951 50.0729 89.0951 49.7618C89.0951 49.429 89.0951 49.0962 89.0951 48.7634C89.0951 48.6813 89.0865 48.6381 89.0778 48.6208C89.0692 48.6208 89.0261 48.6165 88.9528 48.6165C88.1336 48.6078 87.3145 48.6078 86.4953 48.6165C86.366 48.6165 86.3056 48.6338 86.2884 48.6381C86.2927 48.6467 86.2797 48.7072 86.2797 48.8585C86.2797 49.1783 86.2797 49.4981 86.2797 49.8179C86.2797 50.1118 86.2797 50.4057 86.2797 50.6996C86.2797 51.5251 85.9779 51.8967 85.189 52.0696C83.7791 52.3808 82.4598 52.9253 81.2699 53.6903C80.5973 54.1225 80.0886 54.0706 79.5195 53.5045C79.3082 53.297 79.1013 53.0853 78.8943 52.8778C78.6529 52.6358 78.4114 52.3894 78.1657 52.1517C78.101 52.0869 78.0622 52.0567 78.0364 52.0437C78.0148 52.0567 77.9717 52.0912 77.9027 52.1561C77.3164 52.7309 76.7386 53.31 76.1609 53.8934C76.0962 53.9583 76.0704 53.9972 76.0617 54.0145C76.0704 54.0188 76.0962 54.0577 76.1609 54.1225C76.3894 54.3559 76.6179 54.5849 76.8507 54.814C77.1008 55.0647 77.3552 55.311 77.6009 55.566C78.0708 56.0457 78.1269 56.5989 77.7604 57.1608C76.9413 58.4227 76.3765 59.7755 76.079 61.1801C75.9324 61.8845 75.5099 62.2303 74.7856 62.2346C74.4579 62.2346 74.1302 62.2346 73.8026 62.2346C73.4663 62.2346 73.1257 62.2346 72.7894 62.2346C72.7161 62.2346 72.6687 62.2389 72.6428 62.2432C72.6385 62.2692 72.6299 62.3167 72.6299 62.3945C72.6256 62.6625 72.6299 62.9304 72.6299 63.194V63.6003V63.9806C72.6299 64.2702 72.6299 64.5597 72.6299 64.8493C72.6299 64.9401 72.6385 64.9919 72.6471 65.0179C72.673 65.0222 72.7247 65.0308 72.8196 65.0352C73.1645 65.0352 73.5094 65.0352 73.8543 65.0352C74.1604 65.0352 74.4665 65.0352 74.7726 65.0352C75.5228 65.0395 75.9281 65.3723 76.0833 66.107C76.3765 67.49 76.9326 68.8211 77.7302 70.0615C78.1355 70.6924 78.0838 71.2154 77.5492 71.7513C77.3207 71.9804 77.0922 72.2094 76.8637 72.4385C76.6308 72.6719 76.398 72.9009 76.1652 73.1343C76.0962 73.2034 76.0704 73.2467 76.0617 73.2639C76.0704 73.2683 76.0919 73.3072 76.1523 73.3633C76.73 73.9468 77.312 74.5259 77.8941 75.1007C77.9631 75.1656 78.0062 75.2001 78.032 75.2174C78.0579 75.2001 78.1053 75.1656 78.1829 75.0878C78.3899 74.8846 78.5925 74.6815 78.7952 74.4784C79.0625 74.2104 79.3298 73.9425 79.6014 73.6788C80.0886 73.2078 80.6103 73.1516 81.1578 73.506C82.421 74.3271 83.8093 74.9019 85.2838 75.2174C85.9478 75.36 86.2711 75.7706 86.2754 76.4708C86.2754 76.7992 86.2754 77.1277 86.2754 77.4561C86.2754 77.7932 86.2754 78.1303 86.2754 78.4718C86.2754 78.5668 86.2841 78.6144 86.2927 78.6317C86.2927 78.6317 86.2927 78.6317 86.3013 78.6317L86.3229 78.636Z" fill="#037A47"/>
<path d="M87.7069 71.3452C83.4602 71.3452 80.0024 67.8791 80.0024 63.6221C80.0024 59.365 83.4602 55.8989 87.7069 55.8989C91.9536 55.8989 95.4114 59.365 95.4114 63.6221C95.4114 67.8791 91.9536 71.3452 87.7069 71.3452ZM87.7069 57.4678C84.3225 57.4678 81.5675 60.2294 81.5675 63.6221C81.5675 67.0147 84.3225 69.7764 87.7069 69.7764C91.0914 69.7764 93.8463 67.0147 93.8463 63.6221C93.8463 60.2294 91.0914 57.4678 87.7069 57.4678Z" fill="#037A47"/>
<path d="M87.7069 71.7774C83.223 71.7774 79.5713 68.1212 79.5713 63.6221C79.5713 59.1231 83.2187 55.4668 87.7069 55.4668C92.1951 55.4668 95.8425 59.1231 95.8425 63.6221C95.8425 68.1212 92.1951 71.7774 87.7069 71.7774ZM87.7069 56.3312C83.6973 56.3312 80.4336 59.6028 80.4336 63.6221C80.4336 67.6414 83.6973 70.9131 87.7069 70.9131C91.7165 70.9131 94.9802 67.6414 94.9802 63.6221C94.9802 59.6028 91.7165 56.3312 87.7069 56.3312ZM87.7069 70.2086C84.0853 70.2086 81.1363 67.2525 81.1363 63.6221C81.1363 59.9918 84.0853 57.0356 87.7069 57.0356C91.3285 57.0356 94.2775 59.9918 94.2775 63.6221C94.2775 67.2525 91.3285 70.2086 87.7069 70.2086ZM87.7069 57.9C84.5596 57.9 81.9986 60.4672 81.9986 63.6221C81.9986 66.7771 84.5596 69.3442 87.7069 69.3442C90.8542 69.3442 93.4152 66.7771 93.4152 63.6221C93.4152 60.4672 90.8542 57.9 87.7069 57.9Z" fill="#037A47"/>
</g>
<defs>
<clipPath id="clip0_320_1876">
<rect width="106" height="81" fill="white"/>
</clipPath>
</defs>
</svg>
