<svg width="99" height="90" viewBox="0 0 99 90" fill="none" xmlns="http://www.w3.org/2000/svg">
<g clip-path="url(#clip0_320_1866)">
<path d="M98.9416 62.6768C98.744 60.8279 97.8369 59.3209 96.3146 58.3178C94.3028 56.9907 91.5231 56.8288 89.8122 57.3596C89.2913 57.5171 87.5489 58.1693 84.2573 59.3974C80.9882 60.6165 75.1683 62.7892 70.525 64.4311C70.561 64.1792 70.5879 63.9183 70.5969 63.6529C70.7047 60.9809 69.5057 58.1199 67.6106 56.5364C64.9163 54.2917 56.8601 54.3772 50.5014 54.8585C49.3922 54.5391 45.6201 52.2629 43.0964 50.7424C39.5668 48.6147 37.3304 47.2876 36.0416 46.8423C33.4281 45.9471 23.2703 46.4105 18.7573 46.6714C17.7918 44.2107 15.3983 42.4653 12.6051 42.4653H2.02077C0.902613 42.4653 0 43.374 0 44.4896V80.495C0 81.6106 0.902613 82.5193 2.02077 82.5193H12.4435C15.3399 82.5193 17.8142 80.6885 18.7797 78.1244C20.0506 78.2323 22.48 78.6597 25.574 80.2881C27.5499 81.3227 29.647 82.6453 31.6768 83.9273C35.2558 86.181 38.3453 88.1289 40.7613 88.6147C41.1609 88.6957 41.6324 88.8216 42.1758 88.9656C43.8418 89.4154 46.0243 90.0002 48.8354 90.0002C52.1899 90.0002 56.447 89.168 61.8132 86.2755C68.4549 82.7037 79.4479 78.0929 86.7227 75.0429C92.9916 72.4159 94.5184 71.7546 95.1111 71.2912C98.735 68.4662 99.1931 65.0474 98.9416 62.6768ZM15.1738 75.7357C15.1738 77.2427 13.9523 78.4707 12.4435 78.4707H4.04155V46.5139H12.6051C14.0242 46.5139 15.1738 47.67 15.1738 49.087V75.7357ZM92.6862 68.0524C92.0216 68.4302 88.5369 69.8922 85.1644 71.3092C77.8178 74.3862 66.7125 79.042 59.9002 82.7127C51.4444 87.2652 46.4958 85.9336 43.2221 85.0564C42.6339 84.899 42.0815 84.7505 41.5516 84.6426C39.8676 84.3052 36.7961 82.3709 33.8278 80.4995C31.7351 79.177 29.5662 77.814 27.4511 76.7028C23.8631 74.8135 20.9756 74.2467 19.2153 74.0983V50.6974C25.9018 50.3241 33.3832 50.2071 34.7259 50.6705C35.7048 51.0078 38.5249 52.7082 41.0127 54.2107C47.3041 58.0074 49.2126 59.0195 50.6316 58.9116C58.6608 58.2908 64.0406 58.8261 65.0195 59.6493C65.8368 60.3286 66.6227 61.8625 66.5598 63.4865C66.5104 64.6426 66.0389 65.5468 65.1498 66.172C65.0959 66.208 65.0465 66.2485 65.0016 66.289C64.3953 66.4734 63.9553 66.5859 63.7173 66.6129C61.8537 66.7973 50.0254 66.6264 42.5306 66.4689H42.4857C41.39 66.4689 40.4918 67.3461 40.4694 68.4482C40.4424 69.5683 41.3271 70.495 42.4452 70.5175C44.3762 70.558 61.4136 70.9134 64.1214 70.639C65.9446 70.459 73.0982 67.8814 85.6674 63.1896C88.2989 62.2089 90.5711 61.3587 91.0022 61.2283C91.586 61.0483 93.1128 61.0528 94.0918 61.6961C94.5992 62.0335 94.8552 62.4653 94.9225 63.1086C95.1336 65.0744 94.4016 66.6939 92.6862 68.0524Z" fill="#037A47"/>
<path d="M82.2275 8.04768C80.5974 4.58839 77.8895 2.06027 74.5934 0.926671C70.2869 -0.557809 65.4056 0.0764686 62.1634 2.54161C60.21 4.02609 58.5485 6.04588 57.0711 8.75843C55.5757 5.9784 53.8962 3.91812 51.9114 2.41115C48.6691 -0.058484 43.7879 -0.692762 39.4769 0.791718C36.1852 1.92532 33.4729 4.45794 31.8473 7.91273C29.9208 12.0018 29.6784 16.8781 31.2007 20.9582C32.0314 23.1804 33.5537 25.0652 34.8964 26.7341L35.332 27.2784C38.4126 31.1336 41.9602 34.6199 45.391 37.9937C46.2083 38.8034 47.0301 39.6086 47.8384 40.4183C50.627 43.1984 53.1508 45.659 55.5532 47.9352C55.652 48.0297 55.7553 48.1062 55.8676 48.1781C55.8676 48.1781 55.8721 48.1826 55.8766 48.1826C56.2403 48.4795 56.6849 48.6235 57.1295 48.6235C57.6279 48.6235 58.1264 48.439 58.517 48.0702C60.9105 45.803 63.4343 43.3423 66.2319 40.5488C67.0447 39.7436 67.862 38.9339 68.6838 38.1287C72.1146 34.7548 75.6577 31.2641 78.7383 27.4089L79.1784 26.8646C80.521 25.2002 82.0434 23.3108 82.8696 21.0886C84.3919 17.013 84.1539 12.1367 82.2275 8.04768ZM79.0885 19.6716C78.4868 21.2775 77.2384 22.825 76.0349 24.3185L75.5859 24.8808C72.6535 28.547 69.1957 31.9523 65.8502 35.2407C65.0239 36.0549 64.1977 36.8646 63.3804 37.6833C61.1351 39.9235 59.0694 41.9478 57.107 43.8237C55.0997 41.9028 52.9846 39.8381 50.6899 37.5484C49.8726 36.7341 49.0464 35.9199 48.2201 35.1057C44.8746 31.8174 41.4168 28.412 38.4889 24.7458L38.0399 24.188C36.8364 22.6946 35.588 21.1471 34.9863 19.5367C33.8546 16.5092 34.0522 12.717 35.5027 9.64012C36.32 7.89923 37.9051 5.61403 40.7926 4.61988C43.8148 3.57624 47.2995 3.9856 49.4685 5.63202C51.6554 7.29644 53.4337 9.96851 55.0683 14.0441C55.2389 14.4624 55.5263 14.7908 55.8811 15.0112C56.0293 15.1282 56.1909 15.2272 56.375 15.2991C57.4124 15.7175 58.5889 15.2137 59.0065 14.1745C60.6366 10.1035 62.4194 7.43139 64.6063 5.76698C66.7708 4.12055 70.26 3.7112 73.2822 4.75483C76.1696 5.74898 77.7503 8.03418 78.5721 9.77507C80.0226 12.852 80.2157 16.6442 79.0885 19.6716Z" fill="#037A47"/>
</g>
<defs>
<clipPath id="clip0_320_1866">
<rect width="99" height="90" fill="white"/>
</clipPath>
</defs>
</svg>
