<svg xmlns="http://www.w3.org/2000/svg" xmlns:xlink="http://www.w3.org/1999/xlink" width="1920" zoomAndPan="magnify" viewBox="0 0 1440 809.999993" height="1080" preserveAspectRatio="xMidYMid meet" version="1.0"><defs><clipPath id="015a9aa4a1"><path d="M 353.621094 25.65625 L 1086.042969 25.65625 L 1086.042969 784.65625 L 353.621094 784.65625 Z M 353.621094 25.65625 " clip-rule="nonzero"/></clipPath></defs><g clip-path="url(#015a9aa4a1)"><path fill="#000000" d="M 1039.222656 465.546875 C 1040.214844 461.40625 1041.136719 457.25 1041.976562 453.078125 C 1043.714844 450.402344 1045.28125 445 1046.828125 441.019531 C 1047.4375 436.878906 1044.992188 436.492188 1046.539062 432.75 C 1046.5 428.609375 1048.597656 426.730469 1047.992188 430.332031 C 1048.621094 429.429688 1049.015625 426.800781 1049.648438 426.074219 C 1050.214844 421.550781 1050.617188 417.246094 1050.332031 415.335938 C 1049.472656 418.914062 1048.855469 425.335938 1047.246094 423.898438 C 1047.566406 420.878906 1047.871094 417.863281 1048.105469 414.84375 C 1049.398438 409.269531 1050.285156 417.667969 1050.859375 408.023438 C 1051.390625 403.191406 1050.332031 405.964844 1049.894531 405.0625 C 1049.488281 404.238281 1049.386719 402.589844 1048.910156 402.121094 C 1049.066406 399.96875 1048.941406 398.941406 1048.660156 398.734375 C 1048.511719 389.183594 1049.914062 387.242188 1049.472656 378.25 C 1051.101562 376.375 1050.644531 387.378906 1051.855469 387.652344 C 1053.304688 389.753906 1052.835938 382.457031 1052.683594 377.59375 C 1052.570312 377.375 1052.449219 377.140625 1052.324219 376.890625 C 1049.355469 363.671875 1048.019531 356.9375 1044.167969 346.980469 C 1044.433594 346.277344 1043.441406 343.453125 1042.835938 341.3125 C 1044.125 341.527344 1041.820312 335.785156 1043.085938 336.003906 C 1044.3125 337.675781 1046.210938 345.203125 1047.367188 347.410156 C 1047.429688 346.132812 1047.5625 345.109375 1047.414062 343.3125 C 1046.773438 337.96875 1045.890625 338.472656 1045.140625 333.15625 C 1045.347656 333.144531 1045.339844 332.609375 1045.242188 331.851562 C 1044.6875 330.273438 1044.609375 329.46875 1044.71875 328.964844 C 1044.453125 327.613281 1044.191406 326.3125 1044.199219 325.71875 C 1044.214844 324.761719 1044.199219 324.246094 1044.097656 323.707031 C 1043.515625 321.667969 1042.886719 319.570312 1042.640625 318.082031 C 1042.644531 318.078125 1042.644531 318.074219 1042.652344 318.066406 L 1041.660156 313.847656 C 1041.808594 315.632812 1041.925781 317.535156 1041.183594 317.46875 C 1041.148438 320.238281 1043.375 321.609375 1043.582031 324.871094 C 1042.117188 323.308594 1040.039062 318.84375 1038.285156 316.257812 C 1035.972656 310.992188 1035.84375 308.953125 1034.441406 305.144531 C 1032.019531 300.464844 1034.8125 308.332031 1033.21875 307.078125 C 1032.195312 304.910156 1031.589844 305.160156 1030.488281 302.761719 C 1028.972656 299.535156 1028.683594 301.402344 1027.21875 299.265625 C 1025.890625 297.335938 1024.042969 291.902344 1023.550781 293.410156 C 1021.378906 286.863281 1016.144531 281.046875 1016.460938 277.542969 C 1014.675781 275.0625 1013.3125 273.835938 1011.253906 270.796875 C 1007.871094 264.855469 1004.855469 259.617188 1002.96875 255.53125 C 1000.566406 251.691406 1000.445312 252.992188 997.605469 248.386719 C 997.582031 246.078125 994.445312 241.152344 995.757812 240.058594 C 991.273438 233.773438 988.398438 231.027344 985.230469 227.777344 C 983.765625 226.066406 983.09375 225.789062 982.53125 225.703125 C 986.820312 231.953125 990.949219 238.3125 994.785156 244.847656 C 1032.171875 308.226562 1046.75 383.105469 1037.722656 453.664062 C 1035.636719 459.902344 1036.789062 453.9375 1034.691406 455.429688 C 1033.589844 462.925781 1036.5 457.742188 1035.800781 463.726562 C 1034.089844 475.058594 1031.632812 486.789062 1028.457031 498.683594 C 1028.578125 498.339844 1028.714844 497.996094 1028.835938 497.65625 C 1032.140625 488.546875 1034.929688 479.730469 1037.441406 472.628906 C 1038.472656 470.425781 1039.464844 470.089844 1040.460938 469.949219 C 1041.769531 464.644531 1039.023438 468.390625 1039.222656 465.546875 Z M 1039.570312 544.488281 L 1038.199219 544.738281 C 1036.808594 546.867188 1035.257812 549.605469 1033.285156 553.640625 C 1033.957031 553.464844 1033.863281 554.3125 1033.75 555.183594 C 1035.75 552.386719 1038.765625 548.070312 1039.570312 544.488281 Z M 596.847656 731.929688 C 594.59375 731.089844 593.1875 730.363281 591.832031 729.597656 C 591.316406 730.679688 596.609375 732.957031 596.847656 731.929688 Z M 564.574219 716.488281 C 564.574219 716.480469 564.574219 716.476562 564.574219 716.46875 C 556.835938 713.761719 556.339844 712.1875 552.464844 709.628906 C 551.550781 709.015625 551.957031 707.800781 549.125 706.296875 C 547.492188 706.339844 544.351562 705.238281 544.082031 706.738281 C 543.777344 708.277344 549.121094 712.832031 547.0625 713.921875 C 551.898438 716.96875 549.238281 714.394531 554.097656 717.371094 C 549.9375 712.300781 548.636719 709.804688 552.039062 709.320312 C 558.515625 713.890625 560.707031 714.097656 564.574219 716.488281 Z M 433.039062 637.617188 C 431.359375 637.886719 435.964844 643.421875 438.421875 646.945312 C 438.988281 645.761719 435.765625 641.597656 433.039062 637.617188 Z M 368.46875 318.621094 C 368.542969 323.222656 369.308594 325.75 370.398438 327.1875 C 371.539062 323.121094 372.789062 318.789062 374.101562 314.523438 C 373.753906 314.015625 373.464844 313.347656 373.167969 312.714844 C 372.789062 309.804688 371.320312 316.792969 370.945312 317.347656 C 370.113281 318.476562 369.988281 313.640625 368.46875 318.621094 Z M 568.132812 96.285156 C 566.992188 96.847656 565.773438 97.515625 564.546875 98.199219 C 565.824219 97.601562 567.109375 97.003906 568.394531 96.421875 C 568.316406 96.34375 568.238281 96.242188 568.132812 96.285156 Z M 571.5625 94.785156 C 571.246094 94.921875 570.59375 95.3125 569.972656 95.691406 C 570.574219 95.425781 571.171875 95.148438 571.78125 94.882812 C 571.726562 94.800781 571.679688 94.738281 571.5625 94.785156 Z M 574.777344 93.609375 C 576.515625 92.871094 578.246094 92.113281 580.003906 91.398438 C 580.503906 91.050781 581.066406 90.679688 581.960938 90.246094 C 583.632812 89.429688 585.511719 88.609375 587.460938 87.808594 L 582.71875 89.265625 C 581.265625 89.660156 577.59375 92.023438 574.777344 93.609375 Z M 592.667969 81.53125 C 594.855469 80.53125 596.363281 80.046875 597.851562 79.621094 C 597.457031 78.496094 592.117188 80.636719 592.667969 81.53125 Z M 622.738281 75.898438 C 620.902344 76.386719 619.035156 77.003906 617.148438 77.6875 C 618.25 77.347656 619.355469 77.003906 620.394531 76.6875 C 622.269531 76.878906 622.875 76.945312 622.882812 77.210938 C 628.074219 75.875 633.316406 74.695312 638.585938 73.605469 C 642.769531 72.25 641.582031 71.277344 648.234375 69.851562 C 651.59375 70.273438 658.496094 68.179688 668.84375 66.730469 C 675.699219 65.777344 682.960938 65.09375 690.960938 63.882812 C 691.632812 64.902344 694.113281 66.054688 691.480469 66.851562 C 691.457031 66.914062 691.511719 66.972656 691.511719 67.03125 C 696.371094 66.820312 701.21875 66.714844 706.042969 66.714844 C 706.621094 66.355469 707.277344 65.96875 707.53125 65.628906 C 711.039062 64.828125 710.132812 65.507812 715.570312 65.28125 C 720.722656 65.078125 717.730469 63.816406 720.183594 63.277344 C 726.4375 62.84375 725.121094 64.179688 729.125 64.332031 C 736.332031 64.675781 737.347656 64.03125 740.710938 63.789062 C 748.179688 64.695312 751.222656 63.960938 757.429688 65.492188 C 763.960938 65.1875 769.75 66.898438 777.359375 67.25 C 777.636719 67.644531 779.992188 67.898438 781.609375 68.222656 C 785.289062 69.699219 787.058594 71.308594 791.347656 72.835938 C 797.078125 73.679688 801.5 74.984375 805.203125 75.542969 C 809.058594 76.152344 807.355469 74.726562 812.515625 76.035156 L 813.074219 77.332031 C 817.511719 78.144531 817.730469 77.164062 822.171875 78.066406 C 831.863281 80.394531 837.441406 82.757812 845.652344 85.511719 C 847.578125 87.027344 851.105469 88.761719 850.476562 89.988281 C 852.089844 90.921875 853 91.074219 856.292969 92.511719 C 858.265625 93.382812 860.527344 94.691406 863.925781 95.882812 C 865.421875 96.402344 865.667969 96.175781 867.550781 96.957031 C 869.789062 97.703125 871.207031 97.96875 870.925781 97.144531 C 872.1875 97.308594 874.148438 97.894531 876.285156 98.652344 C 885.34375 102.757812 882.117188 102.988281 884.238281 104.777344 C 889.507812 107.300781 896.042969 110.367188 898.761719 112.488281 C 903.316406 114.875 901.019531 112.023438 905.597656 114.480469 C 920.132812 122.59375 932.226562 131.183594 940.003906 138.417969 C 940.269531 138.5625 940.539062 138.753906 940.808594 138.90625 C 924.984375 124.5 909.066406 112.742188 891.988281 102.429688 C 874.460938 91.902344 855.65625 82.847656 833.769531 75.347656 C 831.9375 74.296875 832.214844 73.261719 828.277344 71.902344 C 826.3125 71.25 825.238281 70.90625 824.765625 70.382812 C 821.746094 69.992188 816.105469 68.355469 815.070312 69.066406 C 806.765625 66.328125 805.183594 63.714844 793.496094 61.488281 C 789.921875 60.855469 793.738281 63.226562 790.84375 62.867188 C 787.390625 62.109375 785.535156 61.621094 783.535156 60.734375 C 782.140625 60.128906 782.691406 59.488281 781.074219 58.792969 C 777.84375 57.417969 775.242188 56.070312 769.550781 55.199219 C 768.144531 55.023438 768.023438 55.453125 768.175781 55.773438 C 768.617188 56.691406 771.066406 57.4375 774.421875 58.519531 L 775.535156 60.964844 C 771.671875 60.488281 767.804688 60.886719 763.902344 60.570312 C 759.34375 60.21875 755.167969 59.054688 747.980469 58.789062 C 745.429688 58.722656 745.007812 58.964844 742.941406 58.890625 C 742.851562 58.886719 739.414062 58.449219 735.714844 58.183594 C 732.015625 57.894531 728.054688 57.804688 726.96875 58.15625 C 725.207031 58.722656 723.75 58.105469 718.21875 58.292969 C 715.398438 58.40625 715.476562 58.726562 713.234375 58.855469 C 708.898438 59.113281 702.542969 59.367188 697.5625 59.953125 C 694.890625 60.269531 691.320312 61 689.191406 61.238281 C 689.402344 61.21875 688.277344 60.988281 687.175781 61.101562 C 686.617188 61.171875 684.152344 61.597656 683.722656 61.570312 C 680.980469 61.457031 682.085938 61.65625 676.847656 62.601562 C 667.449219 64.320312 657.277344 66.066406 647.949219 68.648438 C 645.429688 68.078125 644.355469 67.851562 643.972656 66.972656 C 643.339844 65.570312 648.625 63.804688 647.488281 62.164062 C 646.617188 60.867188 639.371094 61.683594 640.046875 59.464844 C 634.480469 60.742188 637.664062 61.191406 632.132812 62.53125 C 638.652344 63.160156 640.308594 65.03125 638.261719 67.789062 C 630.449219 69.148438 627.957031 71.355469 622.292969 73.660156 C 623.371094 74.265625 624.207031 74.910156 622.738281 75.898438 Z M 764.652344 29.230469 C 765.082031 30.46875 770.308594 31.125 775.050781 32 C 776.046875 30.625 768.871094 29.980469 764.652344 29.230469 Z M 991.148438 152.796875 C 991.316406 154.304688 994.808594 158.347656 995.699219 160.492188 C 999.214844 164.839844 997.320312 164.964844 1001.242188 169.78125 C 1006.820312 175.445312 1007.449219 171.828125 1009.292969 170.394531 C 1009.214844 169.570312 1008.195312 167.972656 1007.183594 166.398438 C 1005.390625 165.347656 1004.636719 166.171875 1000.472656 160.964844 C 998.023438 157.957031 999.238281 157.8125 995.714844 154.074219 C 995.644531 156.050781 991.507812 151.277344 991.148438 152.796875 Z M 1011.210938 174.863281 C 1014.730469 179.660156 1018.546875 185.621094 1018.460938 183.121094 C 1017.84375 180.898438 1013.917969 174.878906 1011.777344 173.09375 Z M 1016.039062 267.804688 C 1019.609375 273.917969 1021.429688 275.703125 1022.625 275.480469 C 1021.722656 272.683594 1017.609375 265.636719 1016.011719 264.109375 C 1015.25 264.558594 1015.449219 265.972656 1016.039062 267.804688 Z M 980.171875 210.902344 C 976.199219 206.4375 975.535156 207.289062 974.585938 207.589844 C 979.214844 212.988281 978.097656 209.476562 980.171875 210.902344 Z M 977.304688 218.320312 C 977.007812 216.960938 975.953125 214.667969 974.933594 212.972656 C 972.648438 210.488281 971.195312 209.328125 970.15625 208.828125 C 972.605469 211.945312 974.976562 215.117188 977.304688 218.320312 Z M 994.609375 474.960938 C 992.578125 487.136719 988.234375 500.933594 983.113281 514.183594 C 978.027344 527.476562 972.160156 540.214844 967.964844 551.28125 C 973.835938 538.414062 971.226562 549.488281 975.058594 542.949219 C 975.257812 536.695312 981.488281 523.234375 986.480469 509.226562 C 991.59375 495.28125 995.414062 480.855469 994.609375 474.960938 Z M 998.28125 499.546875 C 996.089844 503.082031 993.953125 511.242188 991.695312 517.730469 C 991.15625 519.316406 990.613281 520.792969 990.085938 522.085938 C 989.90625 522.828125 989.488281 523.972656 988.660156 525.792969 C 988.300781 526.101562 988.054688 526.25 987.847656 526.320312 C 987.105469 527.136719 986.472656 527.144531 985.960938 525.949219 C 983.214844 534.453125 981.378906 537.117188 981.261719 539.425781 C 983.640625 537.011719 982.113281 540.953125 979.996094 545.796875 C 977.902344 550.640625 975.152344 556.320312 975.796875 557.71875 C 980.898438 549.148438 978.933594 551.664062 983.425781 541.523438 C 985.6875 540.847656 988.113281 539.226562 990.757812 534.992188 C 992.679688 527.3125 984.527344 541.597656 986.875 533.300781 C 992.398438 522.011719 996.578125 509.535156 998.28125 499.546875 Z M 891.613281 136.953125 C 890.835938 135.921875 889.835938 134.851562 888.886719 134.082031 C 885.917969 132.726562 883.152344 131.382812 880.472656 130.027344 C 884.230469 132.261719 887.945312 134.566406 891.613281 136.953125 Z M 973.113281 207.113281 C 973.875 206.59375 970.964844 203.664062 972.296875 203.523438 C 968.207031 198.824219 968.09375 200.070312 965.542969 197.71875 C 962.601562 194.832031 960.746094 191.953125 959.003906 189.867188 C 957.070312 187.527344 955.242188 185.5625 953.640625 183.441406 C 948.378906 178.992188 948.386719 180.921875 940.632812 173.863281 C 939.300781 173.1875 939.023438 173.722656 938.960938 174.507812 C 941.65625 177.085938 944.320312 179.699219 946.929688 182.371094 C 947.140625 182.449219 947.363281 182.546875 947.527344 182.582031 C 950.015625 184.988281 953.296875 187.925781 954.367188 189.671875 C 955.195312 190.144531 956.164062 191.046875 957.167969 191.753906 C 959.226562 193.191406 959.207031 193.363281 961.222656 195.601562 C 965.292969 200.25 966.496094 200.207031 973.113281 207.113281 Z M 967.695312 559.628906 C 966.769531 560.953125 965.996094 562.25 965.484375 563.507812 C 965.703125 563.488281 965.863281 563.628906 965.960938 563.976562 C 966.914062 561.835938 967.425781 560.515625 967.695312 559.628906 Z M 974.070312 550.925781 C 971.011719 556.234375 967.480469 561.558594 964.949219 565.621094 C 964.933594 565.824219 964.859375 566.039062 964.859375 566.238281 C 968.238281 561.46875 975.171875 553.605469 974.070312 550.925781 Z M 964.535156 586.085938 C 967.457031 583.019531 971.195312 576.878906 974.6875 570.363281 C 974.351562 568.621094 971.660156 572.644531 969.042969 577.003906 C 966.453125 581.367188 963.894531 586.078125 964.535156 586.085938 Z M 963.230469 578.28125 C 966.675781 574.207031 969.925781 568.890625 970.789062 565.722656 C 967.734375 571.144531 965.480469 572.703125 963.222656 574.421875 C 960.949219 576.140625 958.660156 578.011719 955.0625 583.863281 C 956.222656 585.207031 959.792969 582.371094 963.230469 578.28125 Z M 690.734375 721.082031 C 696.695312 721.429688 696.5625 720.351562 697.011719 719.464844 C 689.929688 718.9375 693.191406 720.625 690.734375 721.082031 Z M 860.582031 658.695312 C 858.734375 659.988281 856.492188 661.445312 854.046875 662.988281 C 855.398438 663.136719 857.664062 662.238281 860.117188 661.0625 C 859.546875 660.574219 860.046875 659.648438 860.582031 658.695312 Z M 871.363281 650.128906 C 872.949219 648.730469 875.78125 646.707031 875.078125 646.386719 C 868.511719 651.230469 866.820312 653.15625 866.855469 654.300781 C 866.871094 655.421875 868.546875 655.640625 868.378906 656.6875 C 873.855469 652.707031 873.847656 651.226562 881.265625 645.984375 C 880.6875 643.597656 872.789062 651.433594 871.363281 650.128906 Z M 904.296875 615.214844 C 905.113281 613.824219 904.195312 611.808594 900.265625 613.714844 C 900.078125 613.921875 899.902344 614.101562 899.710938 614.316406 C 898.640625 615.453125 897.46875 616.675781 896.257812 617.9375 C 896.429688 618.671875 897.617188 618.75 893.238281 622.300781 C 891.914062 623.0625 891.3125 623.296875 891.046875 623.246094 C 884.984375 629.308594 877.917969 636.027344 870.742188 642.078125 C 867.878906 644.539062 865 646.886719 862.234375 649.085938 C 863.617188 649.648438 870.363281 645.296875 878.496094 638.710938 C 886.925781 631.953125 896.617188 622.738281 904.296875 615.214844 Z M 902.160156 629.386719 C 900.167969 629.46875 902.667969 626.722656 900.9375 626.636719 C 893.9375 632.46875 892.613281 637.972656 895.902344 635.273438 C 895.382812 634.113281 898.808594 632.832031 902.160156 629.386719 Z M 928.9375 578.433594 L 931.410156 578.574219 C 933.609375 575.234375 937.304688 570.1875 936.621094 569.449219 C 933.941406 573.046875 932.820312 571.34375 928.9375 578.433594 Z M 960.171875 583.757812 C 957.726562 583.457031 953.15625 590.25 948.449219 596.097656 C 945.996094 596.792969 952.425781 589.070312 950.976562 588.753906 C 944.078125 596.921875 934.53125 605.996094 928.839844 614.359375 C 928.222656 610.234375 938.234375 599.96875 945.839844 586.265625 C 949.132812 582.191406 951.035156 582.332031 954.003906 578.964844 C 956.507812 573.167969 958.65625 567.886719 965.347656 556.433594 C 959.585938 563.046875 952.703125 574.875 943.613281 587.589844 C 934.597656 600.304688 923.265625 613.824219 910.71875 623.828125 C 907.445312 629.179688 901.847656 634.351562 895.355469 639.3125 C 888.851562 644.277344 881.480469 649.019531 874.585938 653.886719 C 873.207031 654.863281 871.757812 655.886719 870.28125 656.9375 C 870.492188 656.964844 870.6875 656.988281 870.851562 657.078125 C 851.933594 670.839844 833.976562 681.671875 815.101562 690.765625 C 796.21875 699.769531 776.339844 707.058594 753.148438 711.707031 C 749.769531 712.378906 746.367188 712.953125 742.957031 713.511719 C 742.929688 714.113281 744.285156 714.644531 743.472656 715.191406 C 742.453125 715.878906 735.375 716.886719 733.820312 717.945312 C 730.351562 718.007812 725.960938 718.253906 723.972656 717.785156 C 723.054688 718.042969 721.730469 718.085938 720.511719 718.296875 C 718.046875 718.742188 717.933594 718.609375 714.941406 718.449219 C 708.769531 718.054688 707.957031 718.949219 698.398438 718.761719 C 698.226562 719.660156 702.351562 719.667969 701.507812 720.710938 C 707.722656 721.132812 706.917969 720.175781 710.382812 720.023438 C 714.507812 719.980469 717.855469 720.699219 720.558594 720.9375 C 723.585938 721.21875 726.261719 721.304688 728.886719 721.667969 C 735.761719 721.074219 734.386719 719.722656 744.859375 719.203125 C 747.054688 718.484375 745.414062 717.496094 744.65625 716.578125 C 752.320312 715.5 754.023438 716.46875 757.25 716.886719 C 764.914062 714.78125 758.585938 713.445312 756.621094 711.65625 C 760.230469 710.300781 766.28125 709.195312 772.292969 708.246094 C 779.078125 707.167969 782.035156 707.835938 786.476562 707.113281 C 787.902344 706.847656 788.71875 706.621094 789.214844 706.410156 C 787.679688 706.628906 786.230469 706.769531 785.011719 706.75 C 794.128906 704.050781 802.066406 700.9375 803.316406 698.902344 C 806.589844 697.785156 805.558594 698.792969 804.007812 699.398438 C 805.492188 700.871094 808.730469 699.5625 812.125 698.105469 C 815.507812 696.621094 819.035156 695 821.34375 695.980469 C 820.242188 696.457031 819.128906 696.914062 818.019531 697.378906 C 819.933594 696.871094 821.761719 696.425781 823.417969 696.0625 C 823.78125 696.976562 822.265625 698.226562 820.070312 699.5625 C 825.296875 697.355469 831.085938 695.421875 831.960938 696.460938 C 834.359375 695.214844 836.792969 693.902344 839.238281 692.566406 C 839.25 692.46875 839.25 692.378906 839.359375 692.25 C 839.625 691.933594 840.984375 691.617188 840.675781 691.289062 C 840.4375 691.058594 842.195312 690.238281 841.59375 690.070312 C 843.136719 689.613281 844.753906 689.15625 847.035156 688.09375 C 849.765625 686.828125 851.503906 684.890625 854.179688 683.519531 C 855.640625 682.78125 857.628906 681.730469 859.742188 680.660156 C 874.703125 671.390625 889.761719 660.710938 903.753906 648.644531 C 926.601562 629.140625 946.386719 606.113281 960.171875 583.757812 Z M 836.246094 695.839844 C 830.152344 698.785156 823.425781 701.914062 816.332031 704.5 C 815.933594 704.773438 815.550781 705.03125 815.246094 705.257812 C 810.730469 706.800781 809.289062 706.492188 805.484375 707.507812 C 805.042969 708.097656 804.03125 708.726562 802.722656 709.328125 C 802.855469 709.804688 803.683594 710.171875 804.792969 710.394531 C 809.003906 708.949219 812.859375 707.460938 816.496094 706.070312 C 823.472656 703.394531 829.695312 701.070312 836.347656 699.585938 C 834.976562 699.097656 833.871094 699.679688 834.558594 698.273438 C 832.820312 698.132812 836.21875 696.75 836.867188 696.125 C 837.054688 695.964844 836.550781 695.910156 836.246094 695.839844 Z M 789.394531 711.832031 L 790.75 713.046875 C 792.96875 712.519531 794.292969 711.945312 794.75 711.53125 C 793.214844 711.71875 791.894531 711.707031 791.09375 711.410156 C 790.558594 711.523438 790.035156 711.648438 789.394531 711.832031 Z M 836.5625 699.683594 C 830.867188 702.394531 825.066406 704.910156 819.292969 707.195312 C 822.765625 706.070312 826.164062 705.070312 829.558594 704.222656 C 833.421875 702.507812 833.039062 701.578125 836.828125 699.796875 C 836.746094 699.746094 836.644531 699.722656 836.5625 699.683594 Z M 912.550781 646.808594 C 902.589844 654.382812 889.464844 663.527344 877.429688 671.152344 C 874.929688 672.761719 872.5 674.289062 870.164062 675.765625 C 872.332031 674.742188 874.570312 673.644531 876.023438 672.859375 C 878.71875 671.417969 881.253906 669.703125 883.894531 668.183594 C 888.894531 665.300781 894.425781 661.984375 900.011719 658.363281 C 905 654.582031 909.578125 650.617188 912.550781 646.808594 Z M 370.441406 378.496094 C 370.3125 380.101562 370.277344 381.996094 370.1875 383.648438 C 370.441406 382.78125 370.667969 381.675781 370.839844 380.015625 C 370.902344 373.644531 368.984375 373.730469 367.027344 373.863281 C 366.527344 377.902344 366.882812 383.539062 367.507812 388.664062 C 368.386719 387.75 367.730469 381.066406 368.175781 378.242188 C 369.082031 377.304688 369.949219 376.628906 370.441406 378.496094 Z M 994.660156 537.457031 C 982.722656 564.894531 966.453125 591.679688 946.03125 616.011719 C 936.980469 626.808594 927.070312 637.078125 916.472656 646.746094 C 917.933594 645.648438 919.425781 644.492188 920.957031 643.296875 C 923.902344 641.058594 932.714844 634.128906 937.023438 630.351562 C 941.414062 626.53125 944.328125 623.800781 946.648438 621.589844 C 954.011719 613.011719 961.042969 604.019531 967.601562 594.59375 C 980.285156 576.359375 991.234375 556.617188 999.785156 536.035156 C 1008.34375 515.457031 1014.507812 494.066406 1017.964844 472.816406 L 1019.523438 472.078125 C 1019.351562 479.574219 1016.984375 493.488281 1012.648438 507.492188 C 1008.394531 521.53125 1002.164062 535.53125 997.007812 543.917969 C 990.171875 562.597656 976.734375 587.800781 956.773438 612.707031 C 956.839844 612.660156 956.878906 612.632812 956.949219 612.570312 C 957.738281 611.914062 958.457031 610.941406 958.644531 611.292969 C 962.476562 609.851562 956.875 615.601562 958.429688 615.890625 C 960.484375 613.363281 962.484375 610.847656 964.40625 608.332031 C 964.796875 606.675781 967.835938 602.894531 967.589844 601.699219 C 970.171875 598.679688 973.082031 595.304688 974.109375 593.140625 C 973.984375 593.414062 975.4375 590.796875 974.804688 591.671875 C 976.492188 589.289062 977.222656 589.234375 978.605469 587.351562 C 979.496094 586.132812 979.253906 585.890625 980.355469 584.394531 C 981.703125 582.542969 982.578125 581.625 983.753906 580.191406 C 988.226562 572.910156 992.042969 566.039062 995.214844 559.859375 C 1001.796875 545.957031 1004.015625 535.441406 1010.242188 527.394531 L 1017.417969 499.207031 C 1020.148438 488.476562 1022.46875 479.320312 1024.339844 481.0625 C 1026.113281 471.941406 1025.6875 471.695312 1025.433594 471.242188 C 1025.105469 470.792969 1024.960938 470.128906 1026.3125 460.09375 C 1027.050781 465.425781 1026.210938 465.910156 1028.605469 458.851562 C 1028.339844 449.75 1026.75 459.339844 1027.382812 450.730469 C 1028.457031 444.855469 1028.789062 449.496094 1029.632812 449.421875 C 1029.375 447.207031 1029.199219 441.535156 1030.390625 440 C 1030.410156 435.757812 1029.132812 440.535156 1028.683594 444.054688 C 1027.230469 438.1875 1030.671875 426.800781 1028.972656 419.492188 C 1030.121094 417.792969 1030.175781 421.578125 1031.078125 421.125 C 1031.5 415.601562 1031.355469 412.953125 1031.277344 410.195312 C 1031.144531 407.4375 1031.078125 404.570312 1031.183594 398.582031 C 1029.839844 408.082031 1030.902344 414.039062 1028.078125 407.53125 C 1026.863281 414.5 1027.152344 427.636719 1026.289062 440.203125 C 1025.519531 452.75 1023.648438 464.648438 1020.800781 468.660156 C 1022.929688 464.15625 1022.132812 458.171875 1020.496094 465.972656 C 1020.277344 461.9375 1021.664062 449.839844 1022.617188 438.121094 C 1023.644531 426.398438 1024.269531 415.054688 1025.390625 412.683594 C 1023.808594 412.515625 1023.761719 403.832031 1023.183594 395.207031 C 1022.664062 386.570312 1021.636719 378.027344 1020.03125 378.171875 C 1022.242188 401.914062 1022.054688 427.898438 1018.125 454.9375 C 1014.238281 481.960938 1006.617188 510.019531 994.660156 537.457031 Z M 1017.9375 425.402344 C 1018.855469 423.582031 1019.929688 422.1875 1019.789062 416.691406 C 1017.652344 415.941406 1018.390625 425.929688 1016.199219 425.132812 C 1016.253906 429.558594 1015.515625 436.371094 1016.453125 436.714844 C 1016.230469 429.46875 1016.996094 427.226562 1017.9375 425.402344 Z M 1085.847656 435.527344 C 1085.660156 437.792969 1085.398438 444.121094 1085.167969 448.160156 C 1084.945312 451.839844 1084.953125 454.320312 1084.207031 456.734375 C 1084.867188 464.804688 1082.984375 475.792969 1080.875 489.292969 C 1079.53125 498.03125 1077.980469 508.523438 1076.292969 515.347656 C 1076.191406 515.742188 1075.855469 515.765625 1075.476562 517.511719 C 1075.363281 518.019531 1075.207031 518.96875 1075.0625 519.472656 C 1074.53125 521.417969 1073.347656 525.339844 1071.992188 529.667969 C 1070.804688 533.445312 1071.035156 535.199219 1069.9375 539.238281 C 1070.042969 538.863281 1069.289062 540.207031 1068.96875 541.335938 C 1068.292969 543.722656 1067.558594 546.746094 1066.730469 549.074219 C 1066.554688 549.574219 1066.265625 549.402344 1065.714844 551.15625 C 1064.703125 554.273438 1064.363281 554.535156 1063.445312 557.054688 C 1061.972656 561.128906 1061.179688 564.105469 1059.511719 568.46875 C 1057.859375 572.699219 1055.625 577.089844 1053.53125 581.84375 C 1050.980469 587.699219 1047.730469 596.078125 1044.886719 598.683594 C 1042.847656 602.945312 1043.148438 603.867188 1040.039062 609.410156 C 1038.398438 611.167969 1035.964844 615.785156 1033.957031 618.476562 C 1028.570312 628.59375 1023.457031 636.292969 1017.9375 644.242188 C 1016.742188 645.328125 1015.136719 647.535156 1013.636719 649.269531 C 1012.902344 650.113281 1011.027344 651.839844 1010.417969 652.574219 C 1008.886719 654.402344 1007.292969 657.167969 1005.71875 659.058594 C 1005.140625 659.773438 1002.75 661.804688 1002.394531 662.246094 C 1000.226562 664.878906 997.363281 668.933594 994.984375 671.664062 C 994.382812 671.195312 990.914062 676.21875 988.941406 677.757812 C 987.152344 679.175781 985.960938 680.816406 983.230469 683.730469 C 980.386719 686.75 979.609375 686.816406 976.03125 691.019531 C 974.121094 693.246094 974.550781 693.144531 971.890625 695.347656 C 969.445312 697.335938 967.972656 699.390625 962.933594 703.710938 C 962.402344 704.164062 962.476562 703.65625 961.027344 704.992188 C 959.078125 706.820312 957.882812 706.957031 955.753906 708.894531 C 955.351562 709.246094 954.667969 709.921875 954.257812 710.242188 L 945.894531 716.597656 C 940.777344 720.515625 934.382812 724.863281 929.765625 727.222656 C 926.40625 729.953125 923.390625 731.785156 919.769531 734.148438 C 917.648438 735.519531 913.070312 738.589844 911.207031 739.628906 C 910.089844 740.269531 908.75 740.566406 907.023438 741.496094 C 905.371094 742.402344 903.820312 743.675781 903.28125 743.464844 C 899.171875 746.054688 894.523438 749.175781 891.046875 750.496094 C 889.34375 751.171875 887.925781 752.007812 885.484375 753.25 C 884.171875 753.902344 883.617188 753.875 883.351562 754.007812 C 878.695312 756.328125 876.457031 757.875 872.472656 759.359375 C 871.753906 759.644531 867.441406 761.613281 866.785156 761.773438 C 865.566406 762.113281 858.582031 764.675781 853.464844 767.128906 C 852.300781 767.085938 849.65625 768.140625 848.660156 767.96875 C 838.878906 772.230469 835.097656 772.171875 825.519531 775.632812 C 822.71875 775.382812 815.523438 777.675781 812.117188 777.601562 C 792.804688 783.40625 774.042969 786.351562 768.640625 783.640625 C 770.535156 783.3125 772.453125 782.972656 774.347656 782.609375 C 770.242188 781.660156 780.042969 779.625 773.578125 779.683594 C 768.410156 780.824219 773.074219 781.671875 765.753906 782.980469 C 761.511719 783.785156 758.515625 783.992188 757.496094 783.472656 C 751.699219 784.457031 756.1875 783.140625 754.972656 783.058594 C 753.851562 782.992188 749.371094 783.390625 746.730469 783.289062 C 743.441406 783.195312 742.59375 782.789062 740.105469 782.824219 C 739.011719 782.824219 737.433594 783.109375 736.296875 783.148438 C 735.691406 783.171875 733.308594 783.003906 734.09375 782.929688 C 733.050781 783.03125 730.507812 783.933594 730.871094 783.917969 C 724.855469 784.078125 723.996094 782.480469 718.558594 783.359375 C 716.773438 782.910156 719.695312 782.8125 722.800781 782.824219 C 725.898438 782.820312 729.179688 782.886719 728.089844 782.941406 C 730.332031 782.847656 738.230469 781.292969 741.128906 781.589844 C 741.332031 781.621094 741.171875 781.945312 741.425781 781.941406 C 742.164062 781.933594 744.683594 781.523438 745.21875 781.566406 C 748.324219 781.878906 753.898438 780.34375 756.890625 780.515625 C 759.234375 780.660156 760.90625 780.160156 764.75 779.707031 C 767.429688 779.40625 773.023438 778.679688 780.089844 777.25 C 781.652344 776.925781 782.253906 777.195312 784.164062 776.761719 C 783.933594 776.8125 784.535156 776.304688 785.679688 776.03125 C 786.90625 775.742188 789.277344 775.566406 791.597656 775.027344 C 795.042969 774.222656 799.523438 773.726562 803.386719 772.699219 C 808.285156 771.40625 810.714844 769.796875 817.636719 767.96875 C 819.183594 767.539062 821.105469 767.363281 823.425781 766.40625 C 823.773438 766.265625 825.992188 765.167969 824.851562 765.511719 C 829.214844 764.179688 831.695312 763.925781 834.929688 762.980469 C 840.605469 759.542969 848.941406 757.441406 856.398438 754.226562 C 863.523438 751.164062 870.234375 747.316406 878.460938 742.949219 C 879.460938 743.195312 880.953125 743.007812 883.449219 741.851562 C 883.652344 743.457031 884.101562 743.683594 887.214844 743.585938 C 893.875 739.867188 894.574219 738.433594 901.566406 734.277344 C 904.382812 731.410156 904.050781 729.851562 905.6875 727.46875 C 910.15625 724.261719 911.480469 724.496094 915.886719 721.167969 C 916.398438 721.886719 915.832031 723.140625 915.402344 724.308594 C 913.609375 726.628906 919.59375 722.738281 920.25 722.613281 C 921.628906 722.40625 918.300781 725.910156 922.890625 723.464844 C 926.730469 719.515625 927.789062 716.929688 927.652344 715.042969 C 933.023438 711.449219 935.5 707.421875 938.019531 706.5 C 939.742188 704.210938 943.535156 700.609375 944.828125 698.476562 C 950.75 694.042969 952.109375 691.527344 958.585938 685.277344 C 961.6875 683.699219 962.257812 684.25 960.410156 687.183594 C 964.019531 685.457031 969.042969 679.914062 973.132812 674.703125 C 971.867188 674.730469 967.613281 679.910156 965.292969 681.578125 C 963.988281 681.597656 962.898438 681.464844 963.871094 679.796875 C 966.835938 677.285156 970.621094 673.128906 971.316406 674.476562 C 974.058594 669.863281 977.75 666.875 981.570312 661.335938 C 984.476562 657.335938 984.820312 658.53125 986.527344 656.945312 C 989.273438 653.433594 991.957031 649.882812 994.574219 646.269531 C 996.542969 644.917969 999.308594 641.546875 1000.644531 641.597656 C 1003.054688 637.902344 1004.550781 635.050781 1006.136719 632.054688 C 1007.542969 629.234375 1006.167969 629.476562 1008.398438 625.691406 C 1014.722656 617.203125 1018.214844 609.46875 1023.433594 603.867188 C 1029.585938 593.398438 1032.929688 584.925781 1033.535156 579.953125 C 1034.132812 578.339844 1035.214844 576.269531 1035.742188 574.675781 C 1035.945312 574.089844 1036.226562 572.496094 1036.011719 573.03125 C 1037.03125 570.40625 1037.910156 569.53125 1038.558594 567.597656 C 1039.519531 564.703125 1039.023438 563.265625 1041.457031 557.488281 C 1040.855469 558.628906 1040.25 559.761719 1039.699219 560.8125 C 1037.273438 562.8125 1037.539062 562.578125 1037.382812 561.160156 C 1037.339844 560.714844 1039.910156 555.230469 1037.421875 557.886719 C 1039.8125 553.445312 1039.570312 552.492188 1041.078125 549.105469 C 1038.558594 552.148438 1035.8125 555.847656 1032.777344 560.183594 C 1030.414062 562.722656 1033.492188 555.914062 1030.925781 560.425781 C 1029.761719 561.433594 1028.324219 563.140625 1027.144531 564.125 C 1024.308594 571.664062 1031.894531 563.28125 1033.578125 564.953125 C 1032.503906 566.996094 1033.601562 566.320312 1033.992188 566.527344 C 1033.234375 568.515625 1031.945312 571.183594 1029.40625 575.199219 C 1026.855469 579.859375 1028.773438 579.335938 1024.882812 585.375 C 1022.210938 587.460938 1018.824219 593.832031 1012.539062 602.1875 C 1008.378906 607.722656 1003.726562 613.347656 998.945312 619.882812 C 997.738281 619.636719 995.1875 620.582031 996.476562 618.144531 C 995.703125 616.722656 991.125 620.277344 992.277344 617.917969 C 997.617188 610.527344 997.390625 614.183594 1002.378906 607.039062 C 1007.359375 601.117188 1003.164062 603.886719 1005.300781 600.632812 C 1003.910156 600.679688 999.085938 608.144531 996.671875 610.109375 C 993.023438 614.253906 995.246094 613.148438 994.339844 614.816406 C 991.269531 618.65625 989.691406 619.53125 987.011719 622.394531 C 986.175781 623.628906 984.957031 625.269531 985.335938 625.476562 C 986.246094 625.976562 988.125 623.148438 987.195312 625.632812 C 986.988281 626.195312 985.882812 627.039062 986.351562 627.171875 C 986.8125 627.320312 985.871094 629.527344 986.007812 630.386719 C 984.097656 633.4375 984.261719 632.316406 980.582031 636.335938 C 977.082031 640.125 980.085938 638.898438 978.746094 641.015625 C 974.632812 645.753906 974.621094 643.878906 971.6875 646.609375 C 966.355469 651.480469 966.089844 652.652344 963.886719 655.207031 C 957.972656 659.863281 956.339844 662.535156 950.875 665.855469 C 946.480469 670.695312 941.1875 673.59375 935.5625 678.742188 C 935.085938 678.660156 933.25 680.152344 931.875 681.066406 C 928.234375 682.640625 925.84375 682.75 921.730469 684.710938 C 917.089844 688.175781 913.046875 690.398438 910.039062 692.625 C 906.878906 694.929688 909.097656 694.730469 904.527344 697.460938 L 903.222656 696.941406 C 899.507812 699.507812 900.046875 700.359375 896.273438 702.867188 C 887.785156 708.097656 882.167969 710.378906 874.425781 714.25 C 871.996094 714.554688 868.277344 715.828125 867.855469 714.523438 C 866.042969 714.996094 865.304688 715.539062 861.960938 716.855469 C 859.957031 717.648438 857.429688 718.324219 854.183594 719.890625 C 852.761719 720.585938 852.746094 720.917969 850.867188 721.695312 C 848.761719 722.757812 847.566406 723.574219 848.351562 723.960938 C 847.351562 724.734375 845.546875 725.722656 843.503906 726.699219 C 834.199219 730.21875 836.324219 727.769531 833.558594 728.011719 C 828.050781 729.953125 821.265625 732.421875 817.84375 732.863281 C 812.933594 734.402344 816.578125 734.796875 811.613281 736.300781 C 795.609375 740.875 780.992188 743.382812 770.378906 743.78125 C 761.804688 746.332031 749.308594 746.53125 737.648438 747.089844 C 735.703125 747.199219 732.578125 747.9375 731.878906 747.878906 C 729.40625 747.617188 728.28125 747.976562 721.472656 748.019531 C 716.988281 748.019531 713.089844 748.136719 704.996094 747.867188 C 701.347656 747.730469 697.390625 747.519531 693.121094 747.199219 C 692.726562 747.191406 692.328125 747.183594 691.925781 747.167969 C 681.179688 746.890625 670.808594 745.839844 664.496094 743.894531 C 660.210938 743.175781 655.890625 742.390625 651.355469 741.589844 C 647.085938 740.835938 644.890625 740.53125 641.171875 739.472656 C 640.058594 739.15625 641.167969 739.152344 638.976562 738.683594 C 635.570312 737.933594 634.832031 738.25 631.257812 737.5 C 627.90625 736.789062 626.679688 736.21875 623.15625 735.292969 C 619.339844 734.300781 613.652344 733.050781 611.382812 732.300781 C 606.878906 730.855469 603.605469 729.300781 599.246094 727.589844 C 598.707031 727.410156 598.160156 727.238281 597.625 727.066406 C 598.707031 727.675781 599.753906 728.414062 600.722656 728.941406 L 609.34375 733.515625 C 611.179688 734.574219 618.917969 736 621 737.113281 C 621.171875 737.199219 620.90625 737.449219 621.121094 737.53125 C 621.753906 737.785156 624.039062 738.25 624.484375 738.46875 C 624.609375 738.542969 624.449219 738.847656 624.601562 738.898438 C 627.765625 739.996094 631.773438 740.945312 634.886719 741.914062 C 635.484375 742.089844 637.894531 742.511719 638.289062 742.707031 C 638.464844 742.789062 638.210938 743.050781 638.429688 743.128906 C 639.085938 743.335938 641.394531 743.65625 641.84375 743.871094 C 644.234375 744.960938 648.378906 745.429688 652.457031 746.703125 C 654.230469 747.277344 655.289062 747.425781 657.800781 747.988281 C 659.363281 748.304688 660.882812 748.742188 663.175781 749.175781 C 664.101562 749.359375 665.285156 749.859375 665.097656 749.828125 C 666.472656 750.039062 668.960938 749.984375 668.378906 749.867188 C 671.050781 750.378906 673.011719 750.890625 675.734375 751.460938 C 676.679688 751.660156 675.707031 751.820312 677.675781 752.03125 C 678.144531 752.078125 678.976562 752.113281 679.425781 752.191406 C 682 752.660156 690.507812 753.984375 697.378906 754.054688 C 703.398438 755.527344 711.929688 756.175781 717.1875 757.488281 C 719.558594 759.1875 716.023438 759.925781 716.171875 761.273438 C 714.78125 761.609375 712.390625 761.757812 709.25 761.75 C 711.148438 764.109375 699.539062 763.90625 697.234375 765.335938 C 686.757812 764.894531 682.265625 765.605469 674.5 765.335938 C 671.503906 765.382812 668.5625 765.382812 670.082031 766.753906 C 661.714844 766.507812 651.507812 765.417969 639.707031 763.027344 C 637.117188 760.8125 642.644531 761.878906 643.890625 761.179688 C 642.726562 760.023438 636.917969 759.730469 638.847656 760.933594 C 635.097656 759.253906 637.609375 759.4375 640.976562 759.769531 C 644.335938 760.105469 648.554688 760.542969 648.222656 759.703125 C 652.269531 761.273438 655.277344 760.820312 658.800781 761.09375 C 663.292969 760.890625 664.820312 759.664062 667.789062 758.898438 C 673.355469 759.214844 670.90625 760.523438 675.570312 760.902344 C 679.097656 760.914062 675.988281 758.324219 673.90625 757.707031 C 668.085938 756.8125 665.070312 756.671875 662.417969 756.644531 C 659.769531 756.609375 657.484375 756.699219 653.179688 755.996094 C 651.972656 756.738281 646.523438 755.8125 649.109375 757.957031 C 644.382812 757.359375 645.175781 756.464844 641.648438 755.742188 C 638.304688 754.9375 641.921875 757.074219 640.550781 757.054688 C 639.859375 757.054688 637.371094 757.210938 635.882812 757.582031 C 633.042969 757.066406 632.664062 756.488281 630.382812 755.933594 C 627.773438 755.949219 625.566406 756.148438 626.125 757.589844 C 622.789062 757.269531 617.933594 756.1875 614.109375 755.488281 C 614.996094 757.261719 615.226562 758.695312 613.742188 759.292969 C 610.75 758.433594 607.769531 757.523438 604.800781 756.578125 C 602.964844 756.71875 599.6875 755.304688 596.167969 754.484375 C 595.019531 754.207031 593.84375 754.332031 592.871094 754.113281 C 592.238281 753.980469 589.746094 752.84375 589.339844 752.816406 C 586.988281 752.683594 576.925781 748.894531 570.410156 746.359375 C 567.828125 745.386719 564.585938 744.480469 561.972656 743.335938 C 558.882812 742.019531 554.558594 739.726562 551.753906 738.316406 C 548.675781 736.769531 547.285156 736.503906 545.035156 734.78125 C 545.058594 732.78125 545.089844 732.375 546.28125 732.035156 C 545.011719 730.199219 549.613281 733 551.109375 733.328125 C 549.007812 729.507812 556.273438 732.917969 553.648438 728.707031 C 550.398438 726.640625 550.0625 727.558594 548.855469 727.007812 C 546.945312 726.144531 544.222656 724.261719 542.378906 723.40625 C 540.378906 722.464844 539.832031 722.671875 537.632812 721.515625 C 538.066406 723.890625 535.761719 723.914062 534.789062 725.082031 C 535.421875 726.9375 539.664062 729.847656 538.390625 731.097656 C 535.179688 730.601562 524.941406 724.054688 517.378906 719.023438 C 516.398438 716.9375 520.316406 719.574219 517.320312 716.726562 C 512.835938 712.519531 507.8125 713.117188 503.34375 707.328125 C 501.015625 706.070312 500.578125 706.515625 498.71875 705.714844 C 498.261719 705.511719 496.109375 703.542969 495.695312 703.378906 C 494.65625 702.949219 495.324219 704.195312 494.113281 703.566406 C 490.511719 700.492188 483.285156 695.347656 482.300781 693.363281 C 479.5 691.101562 480.957031 694.171875 476.382812 689.660156 C 474.886719 686.578125 469.472656 681.128906 469.902344 679.03125 C 467.054688 675.988281 466.160156 674.121094 461.929688 670.050781 C 460.972656 668.59375 460.695312 667.574219 460.957031 666.890625 C 456.953125 662.050781 457.472656 663.359375 454.578125 659.484375 C 449.367188 654.609375 449.019531 657.601562 443.546875 651.992188 C 444.097656 654.433594 441.074219 650.765625 441.617188 653.191406 C 440.417969 652.230469 438.6875 650.324219 436.585938 647.667969 C 436.191406 648.976562 433.003906 645.238281 432.203125 645.777344 C 427.105469 638.453125 422.882812 632.882812 418.800781 627.339844 C 414.730469 621.792969 410.828125 616.238281 406.796875 608.804688 C 406.753906 604.5625 412.289062 614.4375 411.816406 609.121094 C 411.144531 605.792969 408.175781 603.894531 405.945312 599.121094 C 404.824219 594.246094 410.042969 599.933594 411.335938 598.703125 C 415.289062 603.585938 419.664062 608.875 421.996094 609.125 C 421.9375 606.417969 418.910156 604.5 417.457031 600.253906 C 415.273438 596.613281 414.894531 597.832031 413.84375 597.03125 C 413.351562 596.648438 411.972656 594.847656 411.574219 594.558594 C 411.316406 594.375 411.515625 595.796875 411.179688 595.390625 C 409.496094 593.371094 405.695312 589.367188 404.765625 590.738281 C 400.867188 581.917969 399.3125 580.816406 395.710938 574.367188 C 393.511719 574.152344 392.628906 578.746094 389.023438 573.347656 C 386.433594 566.839844 385.605469 567.066406 383.328125 561.160156 C 381.824219 558.917969 379.589844 553.191406 378.273438 551.363281 C 376.234375 545.339844 375.503906 541.726562 372.726562 534.234375 C 372.183594 532.761719 371.855469 532.753906 371.269531 530.84375 C 369.714844 525.847656 368.542969 518.554688 365.980469 511.824219 C 366.078125 508.183594 366.835938 507.746094 367.625 507.433594 C 368.304688 507.167969 368.894531 509.285156 369.75 509.832031 C 370.980469 510.613281 371.832031 508.929688 372.921875 508.550781 C 375.210938 513.90625 378.15625 523.257812 380.558594 526.496094 C 383.074219 535.160156 385.429688 540.582031 387.792969 545.695312 L 389.371094 543.433594 C 387.777344 537.984375 386.226562 535.875 385.105469 533.40625 C 383.726562 530.320312 382.609375 527.261719 381.402344 525.410156 C 380.824219 523.671875 380.492188 522.355469 380.234375 521.183594 C 379.003906 518.003906 377.804688 514.683594 376.457031 511.207031 C 375.433594 508.617188 374.179688 505.597656 373.089844 502.695312 C 372.910156 502.566406 372.726562 502.351562 372.527344 501.878906 C 372.300781 500.96875 372.09375 500.121094 371.890625 499.289062 C 371.285156 497.425781 370.867188 495.757812 370.722656 494.390625 C 370.539062 493.578125 370.363281 492.777344 370.199219 491.996094 C 369.414062 489.964844 368.78125 488.789062 368.074219 487.015625 C 367.859375 488.480469 367.394531 487.714844 367.578125 490.964844 C 366.585938 490.34375 365.542969 486.195312 364.589844 482.683594 C 364.015625 488.6875 362.144531 484.230469 360.6875 482.097656 C 359.4375 475.371094 361.105469 476.152344 360.011719 469.414062 C 358.75 461.464844 357.359375 457.792969 356.53125 449.023438 C 356.867188 448.664062 356.652344 446.359375 356.648438 444.761719 C 356.921875 443.941406 357.230469 443.238281 357.5625 442.59375 C 357.519531 442.367188 357.472656 442.148438 357.433594 441.925781 C 357.507812 440.3125 357.070312 437.605469 356.910156 435.328125 C 356.835938 434.203125 356.9375 431.660156 356.84375 430.714844 C 356.628906 428.332031 355.796875 425.246094 355.570312 422.804688 C 355.480469 421.882812 355.726562 418.753906 355.667969 418.191406 C 355.335938 414.796875 354.484375 409.90625 354.230469 406.289062 C 354.988281 406.199219 353.886719 400.195312 354.1875 397.703125 C 354.445312 395.441406 354.128906 393.433594 353.988281 389.441406 C 353.863281 385.289062 354.367188 384.699219 353.914062 379.191406 C 353.6875 376.265625 353.460938 376.644531 353.78125 373.199219 C 354.101562 370.074219 353.6875 367.574219 354.179688 360.953125 C 354.242188 360.257812 354.546875 360.664062 354.621094 358.691406 C 354.707031 356.023438 355.457031 355.078125 355.589844 352.199219 C 355.617188 351.671875 355.625 350.703125 355.683594 350.1875 L 357.09375 339.777344 C 357.9375 333.378906 359.363281 325.777344 360.957031 320.839844 C 361.402344 316.527344 362.238281 313.101562 363.121094 308.867188 C 363.640625 306.390625 364.707031 300.988281 365.292969 298.925781 C 365.625 297.6875 366.359375 296.523438 366.917969 294.636719 C 367.4375 292.832031 367.632812 290.832031 368.164062 290.601562 C 369.234375 285.859375 370.3125 280.359375 371.832031 276.960938 C 372.554688 275.277344 372.964844 273.683594 373.804688 271.074219 C 374.273438 269.679688 374.6875 269.3125 374.777344 269.03125 C 376.429688 264.085938 376.910156 261.414062 378.671875 257.542969 C 378.980469 256.828125 380.625 252.375 380.972656 251.804688 C 381.601562 250.699219 384.714844 243.945312 386.589844 238.578125 C 387.441406 237.789062 388.554688 235.164062 389.394531 234.582031 C 393.273438 224.640625 395.984375 222 400.296875 212.773438 C 402.460938 210.957031 405.914062 204.246094 408.367188 201.875 C 417.902344 184.09375 429.0625 168.714844 434.789062 166.800781 C 433.683594 168.378906 432.574219 169.96875 431.496094 171.566406 C 435.066406 169.335938 429.582031 177.714844 434.097656 173.085938 C 436.949219 168.621094 433.058594 171.332031 437.296875 165.222656 C 439.722656 161.640625 441.6875 159.367188 442.78125 159.015625 C 446.179688 154.21875 443.949219 158.324219 444.851562 157.519531 C 445.695312 156.773438 448.574219 153.3125 450.503906 151.511719 C 452.894531 149.25 453.78125 148.933594 455.519531 147.140625 C 456.292969 146.367188 457.203125 145.054688 457.972656 144.222656 C 458.386719 143.777344 460.191406 142.199219 459.6875 142.804688 C 460.351562 142 461.503906 139.5625 461.265625 139.828125 C 465.390625 135.449219 467.132812 135.96875 470.351562 131.496094 C 471.925781 130.546875 469.929688 132.691406 467.734375 134.878906 C 465.554688 137.078125 463.179688 139.355469 463.90625 138.542969 C 462.398438 140.203125 457.921875 146.894531 455.660156 148.742188 C 455.503906 148.867188 455.382812 148.527344 455.207031 148.699219 C 454.691406 149.230469 453.207031 151.308594 452.792969 151.664062 C 450.378906 153.640625 447.539062 158.683594 445.300781 160.675781 C 443.535156 162.230469 442.71875 163.773438 440.324219 166.8125 C 438.644531 168.933594 435.207031 173.40625 431.230469 179.421875 C 430.359375 180.757812 429.742188 180.996094 428.707031 182.65625 C 428.828125 182.457031 428.757812 183.242188 428.148438 184.25 C 427.484375 185.3125 425.933594 187.125 424.679688 189.15625 C 422.816406 192.164062 420.003906 195.6875 417.996094 199.148438 C 415.457031 203.546875 414.890625 206.398438 411.289062 212.585938 C 410.507812 213.992188 409.273438 215.484375 408.316406 217.796875 C 408.167969 218.144531 407.375 220.488281 407.941406 219.445312 C 405.796875 223.46875 404.226562 225.40625 402.613281 228.371094 C 401.039062 234.816406 396.648438 242.210938 393.648438 249.773438 C 390.785156 256.980469 388.769531 264.457031 386.050781 273.371094 C 385.171875 273.902344 384.261719 275.089844 383.308594 277.675781 C 382.03125 276.703125 381.554688 276.855469 379.425781 279.125 C 377.355469 286.46875 377.875 287.980469 375.882812 295.863281 C 375.921875 299.796875 377.1875 300.726562 377.75 303.414062 C 379.851562 297.480469 381.855469 292.5625 383.226562 290.074219 C 384.4375 287.851562 386.011719 286.699219 386.847656 284.1875 C 391.132812 280.503906 388.097656 290.84375 392.875 284.4375 C 395.882812 275.042969 400.179688 264.867188 397.785156 263.941406 C 401.238281 257.171875 404.6875 251.320312 408.039062 246.285156 L 410.410156 246.023438 C 411.667969 243.59375 412.902344 241.152344 414.21875 238.753906 C 413.03125 239.585938 411.851562 240.300781 411.574219 239.476562 C 413.039062 235.605469 413.417969 234.980469 416.792969 231.003906 C 417.273438 229.339844 416.132812 229.476562 416.621094 227.804688 C 418.992188 223.976562 421.578125 222.011719 423.292969 217.824219 C 423.933594 216.324219 423.597656 217.152344 427.921875 211.300781 C 431.863281 206.027344 436.464844 199.316406 441.863281 193.890625 C 442.554688 194.183594 443.007812 194.320312 443.285156 194.550781 C 452.390625 182.835938 462.234375 171.777344 472.746094 161.460938 C 473.882812 160.003906 475.097656 158.496094 475.804688 157.367188 C 480.019531 153.898438 482.65625 151.378906 487.984375 147.015625 C 488.027344 146.367188 488.066406 145.71875 487.660156 145.394531 C 488.40625 144.179688 489.984375 142.371094 492.210938 140.152344 C 489.199219 139.835938 497.542969 131.75 498.152344 129.105469 C 505.867188 121.988281 508.539062 118.300781 514.207031 112.996094 C 516.289062 110.832031 518.363281 108.742188 516.320312 108.863281 C 522.402344 103.105469 530.375 96.632812 540.40625 89.957031 C 543.804688 89.683594 539.140625 92.847656 538.753906 94.222656 C 540.394531 94.21875 544.703125 90.3125 542.496094 90.832031 C 546.328125 89.359375 544.421875 91.007812 541.816406 93.160156 C 539.207031 95.300781 535.914062 97.988281 536.742188 98.335938 C 532.78125 100.101562 530.972656 102.554688 528.292969 104.859375 C 525.265625 108.183594 525.054688 110.140625 523.503906 112.777344 C 519.339844 116.492188 520.152344 113.832031 516.589844 116.882812 C 514.09375 119.375 518.121094 118.996094 520.027344 117.957031 C 524.769531 114.457031 526.996094 112.421875 528.886719 110.566406 C 530.78125 108.714844 532.332031 107.023438 535.867188 104.472656 C 536.199219 103.09375 540.695312 99.878906 537.355469 100.207031 C 541.113281 97.273438 541.1875 98.472656 544.183594 96.472656 C 547.117188 94.679688 543.058594 95.726562 544.035156 94.773438 C 544.519531 94.289062 546.171875 92.402344 546.957031 91.085938 C 549.328125 89.449219 550.003906 89.585938 552.011719 88.355469 C 553.835938 86.496094 555.253906 84.785156 553.839844 84.160156 C 556.429688 82.039062 560.617188 79.351562 563.808594 77.136719 C 561.925781 76.519531 560.75 75.660156 561.375 74.1875 C 564.097656 72.671875 566.84375 71.207031 569.613281 69.769531 C 570.808594 68.371094 574.117188 67.039062 577.179688 65.128906 C 578.1875 64.507812 578.9375 63.585938 579.777344 63.050781 C 580.320312 62.695312 582.882812 61.726562 583.183594 61.460938 C 584.941406 59.894531 594.730469 55.4375 601.125 52.609375 C 603.632812 51.460938 606.566406 49.800781 609.222656 48.753906 C 612.328125 47.507812 617.007812 46.046875 619.980469 45.058594 C 623.246094 43.96875 624.421875 43.171875 627.226562 42.792969 C 628.632812 44.214844 628.894531 44.53125 628.292969 45.613281 C 630.484375 46.007812 625.257812 47.292969 623.976562 48.121094 C 628.160156 49.332031 620.613281 52.074219 625.445312 53.183594 C 629.203125 52.34375 628.789062 51.457031 630.035156 50.988281 C 631.992188 50.238281 635.246094 49.648438 637.15625 48.941406 C 639.230469 48.191406 639.46875 47.65625 641.839844 46.90625 C 639.851562 45.535156 641.460938 43.890625 641.324219 42.375 C 639.570312 41.507812 634.511719 42.46875 634.523438 40.683594 C 637.140625 38.757812 649.011719 36.121094 657.90625 34.308594 C 660.066406 35.085938 655.4375 36 659.566406 35.886719 C 665.714844 35.6875 668.839844 31.695312 676.085938 32.628906 C 678.625 31.863281 678.613281 31.238281 680.488281 30.480469 C 680.960938 30.304688 683.875 30.160156 684.28125 29.988281 C 685.320312 29.550781 683.964844 29.144531 685.265625 28.734375 C 689.984375 28.351562 698.730469 26.859375 700.832031 27.566406 C 704.398438 27.171875 701.203125 26.042969 707.625 25.984375 C 710.859375 27.101562 718.542969 27.105469 719.726562 28.894531 C 723.878906 29.019531 725.839844 29.707031 731.699219 29.574219 C 733.410156 29.933594 734.328125 30.464844 734.625 31.125 C 740.875 31.703125 739.578125 31.144531 744.371094 31.832031 C 751.496094 31.585938 749.628906 29.222656 757.460938 29.308594 C 755.34375 27.972656 760.074219 28.414062 757.964844 27.078125 C 759.507812 26.910156 762.070312 27.042969 765.429688 27.421875 C 764.789062 26.222656 769.683594 26.597656 769.867188 25.652344 C 778.648438 27.214844 785.570312 28.148438 792.375 29.164062 C 799.179688 30.199219 805.855469 31.351562 813.964844 33.738281 C 816.992188 36.703125 806.101562 33.660156 810.195312 37.074219 C 813.019531 38.949219 816.464844 38.183594 821.417969 39.976562 C 825.664062 42.617188 817.953125 42.300781 817.910156 44.09375 C 811.664062 43.445312 804.832031 42.816406 803.011719 44.289062 C 804.96875 46.160156 808.460938 45.371094 812.488281 47.339844 C 816.609375 48.359375 816.015625 47.230469 817.328125 47.054688 C 817.9375 46.976562 820.195312 47.265625 820.664062 47.183594 C 820.984375 47.128906 819.835938 46.265625 820.367188 46.320312 C 822.980469 46.550781 828.496094 46.683594 828.183594 45.058594 C 837.179688 48.519531 839.046875 48.199219 846.171875 50.195312 C 847.867188 48.792969 845.230469 44.917969 851.601562 46.167969 C 858.042969 48.929688 858.460938 48.1875 864.246094 50.742188 C 866.890625 51.253906 872.523438 53.722656 874.75 54.074219 C 880.445312 56.878906 883.515625 58.914062 890.785156 62.234375 C 892.210938 62.898438 892.453125 62.664062 894.214844 63.597656 C 898.847656 66.019531 904.835938 70.347656 911.40625 73.28125 C 913.914062 75.921875 913.691406 76.769531 913.351562 77.542969 C 913.0625 78.214844 911.152344 77.140625 910.15625 77.355469 C 908.726562 77.679688 909.320312 79.464844 908.824219 80.511719 C 903.421875 78.355469 894.722656 73.832031 890.734375 73.25 C 882.824219 68.921875 877.324219 66.761719 872.035156 64.824219 L 872.519531 67.539062 C 877.507812 70.257812 880.09375 70.644531 882.632812 71.59375 C 885.792969 72.800781 888.742188 74.164062 890.90625 74.617188 C 895.078125 76.703125 896.25 77.984375 899.308594 79.710938 C 903.269531 81.960938 905.882812 82.167969 910.75 86.117188 C 913.425781 87.203125 911.160156 83.855469 913.828125 84.933594 C 921.488281 89.558594 926.054688 92.292969 932.984375 97.949219 C 935.277344 98.394531 928.984375 93.917969 928.265625 93.199219 C 926.0625 90.875 927.972656 91.734375 925.042969 89.140625 C 926.175781 88.875 929.851562 91.058594 933.007812 92.859375 C 929.160156 88.21875 933.632812 90.042969 936.175781 90.507812 C 941.824219 94.378906 940.089844 95.003906 945.632812 98.988281 C 952.140625 103.710938 955.722656 105.3125 962.511719 110.917969 C 962.53125 111.40625 964.3125 112.882812 965.445312 114.003906 C 966.578125 116.257812 967.109375 118.230469 966.476562 119.492188 C 959.464844 114.113281 956.960938 114.632812 955.65625 116.429688 C 956.21875 117.976562 962.800781 122.898438 965.675781 125.925781 C 969.664062 129.203125 970.59375 128.511719 971.757812 128.054688 C 973.472656 129.535156 975.679688 132.105469 977.304688 133.523438 C 979.671875 135.570312 980.21875 134.378906 984.445312 138.710938 C 984.25 137.371094 980.996094 134.015625 979.222656 131.714844 C 981.207031 132.453125 980.304688 129.125 982.667969 130.371094 C 986.078125 133.363281 988.613281 136.984375 990.789062 139.441406 C 992.59375 141.449219 995.070312 143.394531 996.117188 145.335938 C 995.460938 147.894531 994.929688 150.363281 1001.199219 158.269531 C 1004.363281 162.113281 1004.0625 159.800781 1004.398438 158.636719 C 1005.398438 159.816406 1005.800781 159.675781 1006.984375 161.261719 C 1007.382812 161.789062 1008.769531 164.027344 1008.089844 163.273438 C 1011.847656 167.546875 1011.261719 164.964844 1015.804688 170.949219 C 1017.328125 173.445312 1015.449219 172.894531 1017.550781 175.933594 C 1021.113281 181.539062 1019.648438 176.765625 1021.578125 179.03125 C 1023.464844 181.503906 1023.367188 182.328125 1024.78125 184.394531 C 1026.445312 186.863281 1027.46875 187.148438 1029.460938 190.183594 C 1030.726562 192.09375 1032.558594 194.910156 1033.679688 196.949219 C 1034.503906 198.464844 1034.535156 199.007812 1035.554688 200.796875 C 1039.296875 207.363281 1044.097656 215.804688 1048.042969 223.609375 C 1051.992188 231.410156 1055.117188 238.527344 1056.144531 242.054688 C 1056.863281 244.476562 1056.566406 246.40625 1057.75 248.773438 C 1057.339844 254.414062 1052.160156 244.960938 1053.316406 252.875 C 1057.839844 261.632812 1062.011719 271.859375 1064.355469 270.820312 C 1066.707031 278.050781 1068.410156 284.625 1069.609375 290.554688 L 1067.859375 292.742188 C 1067.824219 293.902344 1067.800781 295.058594 1068.285156 297.273438 C 1068.734375 299.429688 1068.039062 299.277344 1068.644531 301.804688 C 1070.859375 306.570312 1070.003906 296.902344 1071.929688 297.867188 C 1073.625 301.644531 1073.8125 302.351562 1074.234375 307.546875 C 1075.078125 309.0625 1075.789062 308.160156 1076.625 309.683594 C 1077.660156 314.074219 1077.226562 317.296875 1078.976562 321.457031 C 1079.589844 322.976562 1079.246094 322.148438 1080.328125 329.347656 C 1081.285156 335.867188 1082.78125 343.867188 1082.808594 351.519531 C 1081.082031 352.230469 1081.074219 352.636719 1079.285156 350.367188 C 1078.40625 349.414062 1078.875 355.527344 1078.789062 357.136719 C 1078.96875 357.875 1079.679688 360.574219 1079.679688 360.960938 C 1079.6875 361.1875 1079.339844 361.046875 1079.382812 361.3125 C 1079.492188 362.085938 1080.25 364.683594 1080.253906 365.273438 C 1080.289062 367.492188 1080.710938 367 1081.484375 371.195312 C 1081.445312 371 1081.324219 372.238281 1081.554688 373.53125 C 1082.285156 377.65625 1082.660156 380.421875 1083.621094 387.789062 C 1084.367188 393.601562 1084.679688 399.871094 1085.214844 406.480469 C 1085.582031 411.222656 1085.703125 412.410156 1085.722656 416.824219 C 1085.78125 420.015625 1086.332031 430.8125 1085.847656 435.527344 Z M 898.683594 646.0625 C 891.296875 649.09375 890.121094 651.988281 891.558594 646.640625 C 882.632812 653.398438 883.234375 655.097656 873.929688 661.394531 C 876.007812 661.621094 881.210938 659.152344 886.351562 655.847656 C 891.503906 652.566406 896.554688 648.472656 898.683594 646.0625 Z M 941.363281 605.648438 C 930.960938 618.734375 918.128906 632.324219 904.179688 644.0625 C 890.265625 655.832031 875.277344 665.699219 861.679688 672.375 C 863.527344 668.339844 876.953125 657.769531 890.320312 645.855469 C 897.046875 639.921875 903.804688 633.714844 909.628906 628.339844 C 915.449219 622.964844 920.347656 618.449219 923.574219 616.132812 C 927.214844 613.476562 925.082031 620.863281 931.371094 614.660156 C 922.613281 624.71875 916.242188 628.371094 910.410156 631.195312 C 905.113281 636.472656 910.683594 634.847656 905.257812 640.101562 C 909.347656 638.808594 916.605469 632.039062 923.511719 624.546875 C 930.472656 617.078125 937.03125 608.90625 941.363281 605.648438 Z M 855.859375 676.4375 C 858.160156 675.921875 860.769531 675.113281 865.746094 671.390625 C 866.4375 673.949219 859.734375 675.582031 851.339844 681.261719 C 850.394531 679.210938 844.117188 682.910156 847.5 679.402344 C 851.546875 677.164062 853.558594 676.945312 855.859375 676.4375 " fill-opacity="1" fill-rule="evenodd"/></g></svg>